<?xml version="1.0" encoding="UTF-8"?>
<!DOCTYPE svg PUBLIC "-//W3C//DTD SVG 1.1//EN" "http://www.w3.org/Graphics/SVG/1.1/DTD/svg11.dtd">
<svg xmlns="http://www.w3.org/2000/svg" version="1.1" width="2598px" height="2598px" style="shape-rendering:geometricPrecision; text-rendering:geometricPrecision; image-rendering:optimizeQuality; fill-rule:evenodd; clip-rule:evenodd" xmlns:xlink="http://www.w3.org/1999/xlink">
<g><path style="opacity:1" fill="#fefffe" d="M -0.5,-0.5 C 865.5,-0.5 1731.5,-0.5 2597.5,-0.5C 2597.5,865.5 2597.5,1731.5 2597.5,2597.5C 1731.5,2597.5 865.5,2597.5 -0.5,2597.5C -0.5,1731.5 -0.5,865.5 -0.5,-0.5 Z"/></g>
<g><path style="opacity:1" fill="#000000" d="M 48.5,48.5 C 881.833,48.5 1715.17,48.5 2548.5,48.5C 2548.5,881.833 2548.5,1715.17 2548.5,2548.5C 1715.17,2548.5 881.833,2548.5 48.5,2548.5C 48.5,1715.17 48.5,881.833 48.5,48.5 Z"/></g>
<g><path style="opacity:1" fill="#fefffe" d="M 68.5,68.5 C 888.5,68.5 1708.5,68.5 2528.5,68.5C 2528.5,612.833 2528.5,1157.17 2528.5,1701.5C 2505.17,1701.5 2481.83,1701.5 2458.5,1701.5C 2458.5,1708.17 2458.5,1714.83 2458.5,1721.5C 2481.83,1721.5 2505.17,1721.5 2528.5,1721.5C 2528.5,1990.5 2528.5,2259.5 2528.5,2528.5C 1708.5,2528.5 888.5,2528.5 68.5,2528.5C 68.5,2259.5 68.5,1990.5 68.5,1721.5C 91.8333,1721.5 115.167,1721.5 138.5,1721.5C 138.5,1714.83 138.5,1708.17 138.5,1701.5C 115.167,1701.5 91.8333,1701.5 68.5,1701.5C 68.5,1432.83 68.5,1164.17 68.5,895.5C 83.5,895.5 98.5,895.5 113.5,895.5C 113.5,888.833 113.5,882.167 113.5,875.5C 98.5,875.5 83.5,875.5 68.5,875.5C 68.5,606.5 68.5,337.5 68.5,68.5 Z"/></g>
<g><path style="opacity:1" fill="#000000" d="M 1702.5,84.5 C 1709.17,84.5 1715.83,84.5 1722.5,84.5C 1722.5,111.167 1722.5,137.833 1722.5,164.5C 1715.83,164.5 1709.17,164.5 1702.5,164.5C 1702.5,137.833 1702.5,111.167 1702.5,84.5 Z"/></g>
<g><path style="opacity:1" fill="#000000" d="M 1702.5,204.5 C 1709.17,204.5 1715.83,204.5 1722.5,204.5C 1722.5,231.167 1722.5,257.833 1722.5,284.5C 1715.83,284.5 1709.17,284.5 1702.5,284.5C 1702.5,257.833 1702.5,231.167 1702.5,204.5 Z"/></g>
<g><path style="opacity:1" fill="#000000" d="M 1702.5,324.5 C 1709.17,324.5 1715.83,324.5 1722.5,324.5C 1722.5,351.167 1722.5,377.833 1722.5,404.5C 1715.83,404.5 1709.17,404.5 1702.5,404.5C 1702.5,377.833 1702.5,351.167 1702.5,324.5 Z"/></g>
<g><path style="opacity:1" fill="#000000" d="M 1702.5,444.5 C 1709.17,444.5 1715.83,444.5 1722.5,444.5C 1722.5,471.167 1722.5,497.833 1722.5,524.5C 1715.83,524.5 1709.17,524.5 1702.5,524.5C 1702.5,497.833 1702.5,471.167 1702.5,444.5 Z"/></g>
<g><path style="opacity:1" fill="#000000" d="M 1702.5,564.5 C 1709.17,564.5 1715.83,564.5 1722.5,564.5C 1722.5,591.167 1722.5,617.833 1722.5,644.5C 1715.83,644.5 1709.17,644.5 1702.5,644.5C 1702.5,617.833 1702.5,591.167 1702.5,564.5 Z"/></g>
<g><path style="opacity:1" fill="#000000" d="M 1702.5,684.5 C 1709.17,684.5 1715.83,684.5 1722.5,684.5C 1722.5,711.167 1722.5,737.833 1722.5,764.5C 1715.83,764.5 1709.17,764.5 1702.5,764.5C 1702.5,737.833 1702.5,711.167 1702.5,684.5 Z"/></g>
<g><path style="opacity:1" fill="#000000" d="M 1702.5,804.5 C 1709.17,804.5 1715.83,804.5 1722.5,804.5C 1722.5,831.167 1722.5,857.833 1722.5,884.5C 1715.83,884.5 1709.17,884.5 1702.5,884.5C 1702.5,857.833 1702.5,831.167 1702.5,804.5 Z"/></g>
<g><path style="opacity:1" fill="#000000" d="M 153.5,875.5 C 180.167,875.5 206.833,875.5 233.5,875.5C 233.5,882.167 233.5,888.833 233.5,895.5C 206.833,895.5 180.167,895.5 153.5,895.5C 153.5,888.833 153.5,882.167 153.5,875.5 Z"/></g>
<g><path style="opacity:1" fill="#000000" d="M 273.5,875.5 C 300.167,875.5 326.833,875.5 353.5,875.5C 353.5,882.167 353.5,888.833 353.5,895.5C 326.833,895.5 300.167,895.5 273.5,895.5C 273.5,888.833 273.5,882.167 273.5,875.5 Z"/></g>
<g><path style="opacity:1" fill="#000000" d="M 393.5,875.5 C 420.167,875.5 446.833,875.5 473.5,875.5C 473.5,882.167 473.5,888.833 473.5,895.5C 446.833,895.5 420.167,895.5 393.5,895.5C 393.5,888.833 393.5,882.167 393.5,875.5 Z"/></g>
<g><path style="opacity:1" fill="#000000" d="M 513.5,875.5 C 540.167,875.5 566.833,875.5 593.5,875.5C 593.5,882.167 593.5,888.833 593.5,895.5C 566.833,895.5 540.167,895.5 513.5,895.5C 513.5,888.833 513.5,882.167 513.5,875.5 Z"/></g>
<g><path style="opacity:1" fill="#000000" d="M 633.5,875.5 C 660.167,875.5 686.833,875.5 713.5,875.5C 713.5,882.167 713.5,888.833 713.5,895.5C 686.833,895.5 660.167,895.5 633.5,895.5C 633.5,888.833 633.5,882.167 633.5,875.5 Z"/></g>
<g><path style="opacity:1" fill="#000000" d="M 753.5,875.5 C 780.167,875.5 806.833,875.5 833.5,875.5C 833.5,882.167 833.5,888.833 833.5,895.5C 806.833,895.5 780.167,895.5 753.5,895.5C 753.5,888.833 753.5,882.167 753.5,875.5 Z"/></g>
<g><path style="opacity:1" fill="#000000" d="M 873.5,875.5 C 900.167,875.5 926.833,875.5 953.5,875.5C 953.5,882.167 953.5,888.833 953.5,895.5C 926.833,895.5 900.167,895.5 873.5,895.5C 873.5,888.833 873.5,882.167 873.5,875.5 Z"/></g>
<g><path style="opacity:1" fill="#000000" d="M 993.5,875.5 C 1020.17,875.5 1046.83,875.5 1073.5,875.5C 1073.5,882.167 1073.5,888.833 1073.5,895.5C 1046.83,895.5 1020.17,895.5 993.5,895.5C 993.5,888.833 993.5,882.167 993.5,875.5 Z"/></g>
<g><path style="opacity:1" fill="#000000" d="M 1113.5,875.5 C 1140.17,875.5 1166.83,875.5 1193.5,875.5C 1193.5,882.167 1193.5,888.833 1193.5,895.5C 1166.83,895.5 1140.17,895.5 1113.5,895.5C 1113.5,888.833 1113.5,882.167 1113.5,875.5 Z"/></g>
<g><path style="opacity:1" fill="#000000" d="M 1233.5,875.5 C 1260.17,875.5 1286.83,875.5 1313.5,875.5C 1313.5,882.167 1313.5,888.833 1313.5,895.5C 1286.83,895.5 1260.17,895.5 1233.5,895.5C 1233.5,888.833 1233.5,882.167 1233.5,875.5 Z"/></g>
<g><path style="opacity:1" fill="#000000" d="M 1353.5,875.5 C 1380.17,875.5 1406.83,875.5 1433.5,875.5C 1433.5,882.167 1433.5,888.833 1433.5,895.5C 1406.83,895.5 1380.17,895.5 1353.5,895.5C 1353.5,888.833 1353.5,882.167 1353.5,875.5 Z"/></g>
<g><path style="opacity:1" fill="#000000" d="M 1473.5,875.5 C 1500.17,875.5 1526.83,875.5 1553.5,875.5C 1553.5,882.167 1553.5,888.833 1553.5,895.5C 1526.83,895.5 1500.17,895.5 1473.5,895.5C 1473.5,888.833 1473.5,882.167 1473.5,875.5 Z"/></g>
<g><path style="opacity:1" fill="#000000" d="M 1593.5,875.5 C 1620.17,875.5 1646.83,875.5 1673.5,875.5C 1673.5,882.167 1673.5,888.833 1673.5,895.5C 1646.83,895.5 1620.17,895.5 1593.5,895.5C 1593.5,888.833 1593.5,882.167 1593.5,875.5 Z"/></g>
<g><path style="opacity:1" fill="#000000" d="M 178.5,1701.5 C 205.167,1701.5 231.833,1701.5 258.5,1701.5C 258.5,1708.17 258.5,1714.83 258.5,1721.5C 231.833,1721.5 205.167,1721.5 178.5,1721.5C 178.5,1714.83 178.5,1708.17 178.5,1701.5 Z"/></g>
<g><path style="opacity:1" fill="#000000" d="M 298.5,1701.5 C 325.167,1701.5 351.833,1701.5 378.5,1701.5C 378.5,1708.17 378.5,1714.83 378.5,1721.5C 351.833,1721.5 325.167,1721.5 298.5,1721.5C 298.5,1714.83 298.5,1708.17 298.5,1701.5 Z"/></g>
<g><path style="opacity:1" fill="#000000" d="M 418.5,1701.5 C 445.167,1701.5 471.833,1701.5 498.5,1701.5C 498.5,1708.17 498.5,1714.83 498.5,1721.5C 471.833,1721.5 445.167,1721.5 418.5,1721.5C 418.5,1714.83 418.5,1708.17 418.5,1701.5 Z"/></g>
<g><path style="opacity:1" fill="#000000" d="M 538.5,1701.5 C 565.167,1701.5 591.833,1701.5 618.5,1701.5C 618.5,1708.17 618.5,1714.83 618.5,1721.5C 591.833,1721.5 565.167,1721.5 538.5,1721.5C 538.5,1714.83 538.5,1708.17 538.5,1701.5 Z"/></g>
<g><path style="opacity:1" fill="#000000" d="M 658.5,1701.5 C 685.167,1701.5 711.833,1701.5 738.5,1701.5C 738.5,1708.17 738.5,1714.83 738.5,1721.5C 711.833,1721.5 685.167,1721.5 658.5,1721.5C 658.5,1714.83 658.5,1708.17 658.5,1701.5 Z"/></g>
<g><path style="opacity:1" fill="#000000" d="M 778.5,1701.5 C 805.167,1701.5 831.833,1701.5 858.5,1701.5C 858.5,1708.17 858.5,1714.83 858.5,1721.5C 831.833,1721.5 805.167,1721.5 778.5,1721.5C 778.5,1714.83 778.5,1708.17 778.5,1701.5 Z"/></g>
<g><path style="opacity:1" fill="#000000" d="M 898.5,1701.5 C 925.167,1701.5 951.833,1701.5 978.5,1701.5C 978.5,1708.17 978.5,1714.83 978.5,1721.5C 951.833,1721.5 925.167,1721.5 898.5,1721.5C 898.5,1714.83 898.5,1708.17 898.5,1701.5 Z"/></g>
<g><path style="opacity:1" fill="#000000" d="M 1018.5,1701.5 C 1045.17,1701.5 1071.83,1701.5 1098.5,1701.5C 1098.5,1708.17 1098.5,1714.83 1098.5,1721.5C 1071.83,1721.5 1045.17,1721.5 1018.5,1721.5C 1018.5,1714.83 1018.5,1708.17 1018.5,1701.5 Z"/></g>
<g><path style="opacity:1" fill="#000000" d="M 1138.5,1701.5 C 1165.17,1701.5 1191.83,1701.5 1218.5,1701.5C 1218.5,1708.17 1218.5,1714.83 1218.5,1721.5C 1191.83,1721.5 1165.17,1721.5 1138.5,1721.5C 1138.5,1714.83 1138.5,1708.17 1138.5,1701.5 Z"/></g>
<g><path style="opacity:1" fill="#000000" d="M 1258.5,1701.5 C 1285.17,1701.5 1311.83,1701.5 1338.5,1701.5C 1338.5,1708.17 1338.5,1714.83 1338.5,1721.5C 1311.83,1721.5 1285.17,1721.5 1258.5,1721.5C 1258.5,1714.83 1258.5,1708.17 1258.5,1701.5 Z"/></g>
<g><path style="opacity:1" fill="#000000" d="M 1378.5,1701.5 C 1405.17,1701.5 1431.83,1701.5 1458.5,1701.5C 1458.5,1708.17 1458.5,1714.83 1458.5,1721.5C 1431.83,1721.5 1405.17,1721.5 1378.5,1721.5C 1378.5,1714.83 1378.5,1708.17 1378.5,1701.5 Z"/></g>
<g><path style="opacity:1" fill="#000000" d="M 1498.5,1701.5 C 1525.17,1701.5 1551.83,1701.5 1578.5,1701.5C 1578.5,1708.17 1578.5,1714.83 1578.5,1721.5C 1551.83,1721.5 1525.17,1721.5 1498.5,1721.5C 1498.5,1714.83 1498.5,1708.17 1498.5,1701.5 Z"/></g>
<g><path style="opacity:1" fill="#000000" d="M 1618.5,1701.5 C 1645.17,1701.5 1671.83,1701.5 1698.5,1701.5C 1698.5,1708.17 1698.5,1714.83 1698.5,1721.5C 1671.83,1721.5 1645.17,1721.5 1618.5,1721.5C 1618.5,1714.83 1618.5,1708.17 1618.5,1701.5 Z"/></g>
<g><path style="opacity:1" fill="#000000" d="M 1738.5,1701.5 C 1765.17,1701.5 1791.83,1701.5 1818.5,1701.5C 1818.5,1708.17 1818.5,1714.83 1818.5,1721.5C 1791.83,1721.5 1765.17,1721.5 1738.5,1721.5C 1738.5,1714.83 1738.5,1708.17 1738.5,1701.5 Z"/></g>
<g><path style="opacity:1" fill="#000000" d="M 1858.5,1701.5 C 1885.17,1701.5 1911.83,1701.5 1938.5,1701.5C 1938.5,1708.17 1938.5,1714.83 1938.5,1721.5C 1911.83,1721.5 1885.17,1721.5 1858.5,1721.5C 1858.5,1714.83 1858.5,1708.17 1858.5,1701.5 Z"/></g>
<g><path style="opacity:1" fill="#000000" d="M 1978.5,1701.5 C 2005.17,1701.5 2031.83,1701.5 2058.5,1701.5C 2058.5,1708.17 2058.5,1714.83 2058.5,1721.5C 2031.83,1721.5 2005.17,1721.5 1978.5,1721.5C 1978.5,1714.83 1978.5,1708.17 1978.5,1701.5 Z"/></g>
<g><path style="opacity:1" fill="#000000" d="M 2098.5,1701.5 C 2125.17,1701.5 2151.83,1701.5 2178.5,1701.5C 2178.5,1708.17 2178.5,1714.83 2178.5,1721.5C 2151.83,1721.5 2125.17,1721.5 2098.5,1721.5C 2098.5,1714.83 2098.5,1708.17 2098.5,1701.5 Z"/></g>
<g><path style="opacity:1" fill="#000000" d="M 2218.5,1701.5 C 2245.17,1701.5 2271.83,1701.5 2298.5,1701.5C 2298.5,1708.17 2298.5,1714.83 2298.5,1721.5C 2271.83,1721.5 2245.17,1721.5 2218.5,1721.5C 2218.5,1714.83 2218.5,1708.17 2218.5,1701.5 Z"/></g>
<g><path style="opacity:1" fill="#000000" d="M 2338.5,1701.5 C 2365.17,1701.5 2391.83,1701.5 2418.5,1701.5C 2418.5,1708.17 2418.5,1714.83 2418.5,1721.5C 2391.83,1721.5 2365.17,1721.5 2338.5,1721.5C 2338.5,1714.83 2338.5,1708.17 2338.5,1701.5 Z"/></g>
</svg>
