<?xml version="1.0" encoding="utf-8"?>
<!-- Generator: Adobe Illustrator 27.9.1, SVG Export Plug-In . SVG Version: 6.00 Build 0)  -->
<svg version="1.1" id="Layer_1" xmlns="http://www.w3.org/2000/svg" xmlns:xlink="http://www.w3.org/1999/xlink" x="0px" y="0px"
	 viewBox="0 0 419.5 218.3" style="enable-background:new 0 0 419.5 218.3;" xml:space="preserve">
<style type="text/css">
	.st0{fill:none;stroke:#231F20;stroke-width:3;stroke-miterlimit:10;}
	.st1{fill:none;stroke:#231F20;stroke-width:3;stroke-miterlimit:10;stroke-dasharray:9.4354,9.4354,9.4354,9.4354;}
	.st2{fill:none;stroke:#231F20;stroke-width:3;stroke-miterlimit:10;stroke-dasharray:9.4354,9.4354,9.4354,9.4354,9.4354,9.4354;}
	.st3{fill:none;stroke:#231F20;stroke-width:3;stroke-miterlimit:10;stroke-dasharray:11.0838,11.0838,11.0838,11.0838;}
	
		.st4{fill:none;stroke:#231F20;stroke-width:3;stroke-miterlimit:10;stroke-dasharray:11.0838,11.0838,11.0838,11.0838,11.0838,11.0838;}
	.st5{display:none;}
	.st6{display:inline;}
	.st7{fill:none;stroke:#231F20;stroke-width:20;stroke-linecap:round;stroke-miterlimit:10;}
	.st8{display:inline;fill:none;stroke:#231F20;stroke-width:20;stroke-linecap:round;stroke-miterlimit:10;}
</style>
<line class="st0" x1="14.5" y1="12.7" x2="14.2" y2="218.2"/>
<line class="st0" x1="14" y1="14.2" x2="419.4" y2="14.2"/>
<g>
	<g>
		<line class="st0" x1="18.2" y1="212.6" x2="23.2" y2="212.6"/>
		<line class="st1" x1="32.6" y1="212.6" x2="65.6" y2="212.6"/>
		<line class="st2" x1="70.4" y1="212.6" x2="405.3" y2="212.6"/>
		<line class="st0" x1="410" y1="212.6" x2="415" y2="212.6"/>
	</g>
</g>
<g>
	<g>
		<line class="st0" x1="413.9" y1="212.9" x2="413.9" y2="207.9"/>
		<line class="st3" x1="413.9" y1="196.8" x2="413.9" y2="158"/>
		<line class="st4" x1="413.9" y1="152.5" x2="413.9" y2="25"/>
		<line class="st0" x1="413.9" y1="19.5" x2="413.9" y2="14.5"/>
	</g>
</g>
<g id="_x3149_" class="st5">
	<g id="_x3148__00000084489887402100461810000001297889126063004313_" class="st6">
		<g id="_x3145__00000137818351950916521180000005989163322944279991_">
			<line id="_x3145__00000168076789231556142260000004893870180948436883_" class="st7" x1="223.3" y1="176" x2="360.9" y2="43.4"/>
			
				<line id="_x3145__00000108274487586018568170000018319341486573458818_" class="st7" x1="307.7" y1="109.3" x2="361.3" y2="174"/>
		</g>
		<line id="_x3139__00000028282805488730165910000002699520860098490272_" class="st7" x1="223.5" y1="42.2" x2="360.9" y2="42.2"/>
	</g>
	<g id="_x3148__00000141434048601394714620000016897131123784521110_" class="st6">
		<g id="_x3145__00000049919510036911337960000013898654525057547141_">
			<line id="_x3145__00000125574045176769063590000009657814840624901051_" class="st7" x1="58.3" y1="176" x2="195.9" y2="43.4"/>
			
				<line id="_x3145__00000147222200659722228160000014450546662690503838_" class="st7" x1="142.7" y1="109.3" x2="196.3" y2="174"/>
		</g>
		<line id="_x3139__00000043427373159771884460000008790755309309626011_" class="st7" x1="58.5" y1="42.2" x2="195.9" y2="42.2"/>
	</g>
</g>
<g id="_x3146_" class="st5">
	<g id="_x3145__00000155835702725655190520000013049175087775955095_" class="st6">
		<line id="_x3145__00000070105699296778855170000011417271493118784130_" class="st7" x1="31" y1="179.8" x2="146.6" y2="41.4"/>
		
			<line id="_x3145__00000083053815238007563500000013212218816715901372_" class="st7" x1="129.1" y1="79.3" x2="202.4" y2="177.8"/>
	</g>
	<g id="_x3145__00000181774991012197975460000009992787965564666499_" class="st6">
		
			<line id="_x3145__00000018208539575609277730000001905334317222132654_" class="st7" x1="223.2" y1="176.8" x2="338.7" y2="38.4"/>
		
			<line id="_x3145__00000113335816160818454360000004679067327889856401_" class="st7" x1="321.2" y1="76.3" x2="394.5" y2="174.8"/>
	</g>
</g>
<g id="_x3143_" class="st5">
	<g id="_x3142__00000158739722534073592010000001151069167686158759_" class="st6">
		<g id="_x3137__00000155122685210671416490000016334702410035773581_">
			<g id="_x3134__00000026163664694041685550000002576215356665630860_">
				
					<line id="_x3139__00000023282933222213811210000016557476963705652117_" class="st7" x1="228.6" y1="176.7" x2="228.6" y2="40.6"/>
				
					<line id="_x3139__00000111889385980178636780000017794404255549056928_" class="st7" x1="228.6" y1="178.6" x2="366" y2="178.6"/>
			</g>
			
				<line id="_x3139__00000040537766433047477940000001068866035258214026_" class="st7" x1="228.2" y1="109.6" x2="365.6" y2="109.6"/>
		</g>
		
			<line id="_x3139__00000003792663209876809760000002371540434241593783_" class="st7" x1="366.6" y1="178.7" x2="366.6" y2="42.6"/>
	</g>
	<g id="_x3142__00000164496640950580216760000012179232645975603106_" class="st6">
		<g id="_x3137__00000098918883532935441020000017648906267584838532_">
			<g id="_x3134__00000041295201777191293300000014727899168548757660_">
				
					<line id="_x3139__00000039853193362874407060000006987392730736010885_" class="st7" x1="62.6" y1="175.7" x2="62.6" y2="39.6"/>
				
					<line id="_x3139__00000088831230256383375300000007478953498038163642_" class="st7" x1="62.6" y1="177.6" x2="200" y2="177.6"/>
			</g>
			
				<line id="_x3139__00000056417367414711497930000006576164263069153167_" class="st7" x1="62.2" y1="108.6" x2="199.6" y2="108.6"/>
		</g>
		
			<line id="_x3139__00000165209594366243437420000011912354818864550790_" class="st7" x1="200.6" y1="177.7" x2="200.6" y2="41.6"/>
	</g>
</g>
<g id="_x3138_" class="st5">
	<g id="_x3137__00000023979065930778583220000017162700937798377097_" class="st6">
		<g id="_x3134__00000047049149038313957870000005341375621627138691_">
			
				<line id="_x3139__00000141432703669514445950000007743959337911857067_" class="st7" x1="233.9" y1="178.2" x2="233.9" y2="42.1"/>
			
				<line id="_x3139__00000170982235400783592990000003137681097027351176_" class="st7" x1="233.9" y1="180.1" x2="371.3" y2="180.1"/>
		</g>
		<line id="_x3139__00000044173513162273074900000006634938218832487823_" class="st7" x1="234.5" y1="42.5" x2="371.9" y2="42.5"/>
	</g>
	<g id="_x3137__00000010995174999444154840000000178196943030048934_" class="st6">
		<g id="_x3134__00000031187858325983467860000011050883252809733311_">
			<line id="_x3139__00000124142744411575554380000003475726022509865631_" class="st7" x1="68.9" y1="178.2" x2="68.9" y2="42.1"/>
			
				<line id="_x3139__00000134241755532416837500000008070748114932182957_" class="st7" x1="68.9" y1="180.1" x2="206.3" y2="180.1"/>
		</g>
		<line id="_x3139__00000030482177800706809440000018179617105107376023_" class="st7" x1="69.5" y1="42.5" x2="206.9" y2="42.5"/>
	</g>
</g>
<g id="_x3132_" class="st5">
	<g id="_x3131__00000169545638465536761440000016178644647123635365_" class="st6">
		<line id="_x3139__00000055673235814159539680000018000241829907757462_" class="st7" x1="361.8" y1="40.4" x2="224.4" y2="40.4"/>
		
			<line id="_x3139__00000159432502928710859030000005206921098544433079_" class="st7" x1="362.1" y1="40.4" x2="362.1" y2="177.8"/>
	</g>
	<g id="_x3131__00000154399362204658902400000001175531250062422170_" class="st6">
		<line id="_x3139__00000175294947283999127110000016918413680622926243_" class="st7" x1="194.8" y1="40.4" x2="57.4" y2="40.4"/>
		
			<line id="_x3139__00000013910700907218518360000006982027086695147410_" class="st7" x1="195.1" y1="40.4" x2="195.1" y2="177.8"/>
	</g>
</g>
<g id="_x314E__00000060007193628547708090000001536059862351043219_" class="st5">
	<g id="_x314E_" class="st6">
		<path id="_x30__00000061466819452792643050000000498475016832393874_" class="st7" d="M272.3,130.7c0,29,24.8,52.5,55.5,52.5"/>
		<path id="_x30__00000093157671026920684620000007789815254335953084_" class="st7" d="M327.8,183.5c27.5,0,49.8-26.1,49.8-58.4"/>
		<path id="_x30__00000145756939392294334830000004196431365526629302_" class="st7" d="M377.7,127.5c0-29-24.8-52.5-55.5-52.5"/>
		<path id="_x30__00000124881669996706407130000010162513249413115321_" class="st7" d="M322.2,75c-27.5,0-49.8,26.1-49.8,58.4"/>
	</g>
	<line id="_x3139__00000097471783429593459940000015920910770986818194_" class="st8" x1="256.3" y1="49.7" x2="393.7" y2="49.7"/>
	<line id="_x3139__00000087394199786983190000000009429384128540119939_" class="st8" x1="325" y1="49.9" x2="325" y2="21.6"/>
</g>
<g id="_x314D_" class="st5">
	<g id="_x3137__00000042731836520828668340000006337340143640785559_" class="st6">
		<g id="_x3134__00000165222218875696387270000006472965841317136052_">
			<line id="_x3139__00000010288592894560687200000016503163761411132337_" class="st7" x1="169" y1="183.3" x2="169" y2="47.2"/>
			
				<line id="_x3139__00000032630682114190619610000008396084582435060399_" class="st7" x1="129" y1="185.3" x2="266.4" y2="185.3"/>
		</g>
		<line id="_x3139__00000149360227406405951030000003028602019127643022_" class="st7" x1="129.6" y1="47.3" x2="267" y2="47.3"/>
	</g>
	<line id="_x3139__00000020389785494763330460000014288516871107241396_" class="st8" x1="229" y1="185.3" x2="229" y2="49.2"/>
</g>
<g id="_x314C_" class="st5">
	<g class="st6">
		<g id="_x3134__00000001645991412743827160000003852759599860078468_">
			<line id="_x3139__00000090287139169740376770000011846842940066760068_" class="st7" x1="134" y1="184.8" x2="134" y2="47.4"/>
			
				<line id="_x3139__00000170982861258005566000000000169952736069612212_" class="st7" x1="134" y1="185.1" x2="271.4" y2="185.1"/>
		</g>
		<line id="_x3139__00000031202830447182085930000012147424340580055465_" class="st7" x1="134.6" y1="47.5" x2="272" y2="47.5"/>
	</g>
	
		<line id="_x3139__00000173874501543415196580000009434284850178602396_" class="st8" x1="134.3" y1="116.3" x2="271.7" y2="116.3"/>
</g>
<g id="_x314B_" class="st5">
	<g id="_x3131__00000076600455539464513130000011292389890065564589_" class="st6">
		<line id="_x3139__00000109007343802252708040000012816241503634945964_" class="st7" x1="235.5" y1="36.6" x2="98.2" y2="36.6"/>
		
			<line id="_x3139__00000150065272191464596300000012473266504100460960_" class="st7" x1="235.8" y1="36.6" x2="235.8" y2="173.9"/>
	</g>
	<line id="_x3139__00000168101722861985122750000005292450564899431343_" class="st8" x1="235.7" y1="105.3" x2="98.3" y2="105.3"/>
</g>
<g id="_x314A__00000094576017343493310170000014423528671209553839_" class="st5">
	<g id="_x314A_" class="st6">
		<g id="_x3145__00000109003574905719137300000004819937033670983349_">
			<line id="_x3145__00000124880515289858281710000001842125960698392743_" class="st7" x1="98" y1="186.5" x2="235.7" y2="53.8"/>
			
				<line id="_x3145__00000105388965180024089850000003437604346223392180_" class="st7" x1="182.4" y1="119.7" x2="236" y2="184.5"/>
		</g>
		<line id="_x3139__00000004518700713660761140000004174889933754506428_" class="st7" x1="98.2" y1="52.7" x2="235.6" y2="52.7"/>
	</g>
	<line id="_x3139__00000061431495356108983230000014693758017774055828_" class="st8" x1="167" y1="52.4" x2="167" y2="24.1"/>
</g>
<g id="_x3148_" class="st5">
	<g id="_x3145__00000176036552172950426980000012335897941521950640_" class="st6">
		<line id="_x3145__00000092416354804798785700000001988866793398494082_" class="st7" x1="265" y1="173.2" x2="402.7" y2="40.5"/>
		<line id="_x3145_" class="st7" x1="349.4" y1="106.4" x2="403" y2="171.2"/>
	</g>
	<line id="_x3139__00000088133878169359345240000016316202019467337150_" class="st8" x1="265.2" y1="39.4" x2="402.6" y2="39.4"/>
</g>
<g id="_x3147_" class="st5">
	<path id="_x30__00000160176543013836628730000012730868243718474662_" class="st8" d="M114.3,106.7c0,29,24.8,52.5,55.5,52.5"/>
	<path id="_x30__00000002384560913540772100000005079009347425563028_" class="st8" d="M169.8,159.5c27.5,0,49.8-26.1,49.8-58.4"/>
	<path id="_x30_" class="st8" d="M219.7,103.5c0-29-24.8-52.5-55.5-52.5"/>
	<path id="_x30__00000040557645117408956490000011533728137049625220_" class="st8" d="M164.2,51c-27.5,0-49.8,26.1-49.8,58.4"/>
</g>
<g id="_x3145__00000142870259340541009940000006755774677788516248_" class="st5">
	<line id="_x3145__00000100381136246387521990000013902550105797212861_" class="st8" x1="159.8" y1="174.9" x2="286.8" y2="36.6"/>
	<line id="_x3145__00000051347419555813084490000017131989260068608911_" class="st8" x1="267.5" y1="74.4" x2="348" y2="172.9"/>
</g>
<g id="_x3142_" class="st5">
	<g id="_x3137__00000074423522935271685570000008946941002837525679_" class="st6">
		<g id="_x3134__00000146473094887297759060000008916255655018799283_">
			
				<line id="_x3139__00000088827096486837987840000009411798041411290009_" class="st7" x1="136.2" y1="183.3" x2="136.2" y2="47.2"/>
			
				<line id="_x3139__00000127746553045022437560000007779725822773515923_" class="st7" x1="136.2" y1="185.3" x2="273.6" y2="185.3"/>
		</g>
		
			<line id="_x3139__00000128454363689753285960000002444805915811546810_" class="st7" x1="135.8" y1="116.3" x2="273.2" y2="116.3"/>
	</g>
	<line id="_x3139__00000078766469499516181990000009847093463023771054_" class="st8" x1="274.2" y1="185.3" x2="274.2" y2="49.2"/>
</g>
<g id="_x3141_" class="st5">
	<g id="_x3137__00000041996193579129870860000018112059000794020743_" class="st6">
		<g id="_x3134__00000029007393463256235190000004066028602550988441_">
			<line id="_x3139__00000068642643578330665220000013758325702068796552_" class="st7" x1="173" y1="175.3" x2="173" y2="39.2"/>
			
				<line id="_x3139__00000081646259469241984310000000196759611016939676_" class="st7" x1="173" y1="177.3" x2="310.4" y2="177.3"/>
		</g>
		<line id="_x3139__00000111182645877281915000000006101002529252084668_" class="st7" x1="173.6" y1="39.3" x2="311" y2="39.3"/>
	</g>
	<line id="_x3139__00000139256208464436306160000015392940362400143548_" class="st8" x1="311" y1="177.3" x2="311" y2="41.2"/>
</g>
<g id="_x3139_" class="st5">
	<g id="_x3137__00000067945023595379726450000008658604344718631314_" class="st6">
		<g id="_x3134__00000026161238134565832540000009179870843955528583_">
			
				<line id="_x3139__00000170252544995791820790000005432894333748702616_" class="st7" x1="230.2" y1="100.1" x2="230.2" y2="32.1"/>
			
				<line id="_x3139__00000138562168379022861440000014495874550241203131_" class="st7" x1="92.2" y1="169.1" x2="229.6" y2="169.1"/>
		</g>
		<line id="_x3139__00000083793954211842847930000006362460977535931837_" class="st7" x1="92.8" y1="31.4" x2="230.2" y2="31.4"/>
	</g>
	<line id="_x3139__00000032640913909619266610000001005467180365822375_" class="st8" x1="92.5" y1="100.2" x2="229.9" y2="100.2"/>
	<line id="_x3139__00000090255768220654687950000010810690300611831997_" class="st8" x1="91.8" y1="168.7" x2="91.8" y2="100.7"/>
</g>
<g id="_x3137_" class="st5">
	<g id="_x3134__00000001654027049463064660000007427190677684144289_" class="st6">
		<line id="_x3139__00000073697034119990745490000005941804626529949627_" class="st7" x1="98" y1="172.1" x2="98" y2="36.1"/>
		<line id="_x3139__00000026860701998508214790000012948310303056101517_" class="st7" x1="98" y1="174.1" x2="235.4" y2="174.1"/>
	</g>
	<line id="_x3139__00000145775074495612534760000018278726734916752512_" class="st8" x1="98.6" y1="36.5" x2="236" y2="36.5"/>
</g>
<g id="_x3134_" class="st5">
	<line id="_x3139__00000071555613146022014170000015797347702650758799_" class="st8" x1="98.3" y1="173.8" x2="98.3" y2="36.4"/>
	<line id="_x3139__00000062192558353490062280000009987698426026024124_" class="st8" x1="98.3" y1="174.1" x2="235.7" y2="174.1"/>
</g>
<g id="_x3131_">
	<line id="_x3139__00000132793554623618795300000010115786945768717975_" class="st7" x1="278.3" y1="40.4" x2="140.9" y2="40.4"/>
	<line id="_x3139__00000150072500724572447510000006977669912199539089_" class="st7" x1="278.6" y1="40.4" x2="278.6" y2="177.8"/>
</g>
</svg>
