<?xml version="1.0" encoding="utf-8"?>
<!-- Generator: Adobe Illustrator 27.9.1, SVG Export Plug-In . SVG Version: 6.00 Build 0)  -->
<svg version="1.1" id="Layer_1" xmlns="http://www.w3.org/2000/svg" xmlns:xlink="http://www.w3.org/1999/xlink" x="0px" y="0px"
	 viewBox="0 0 419.5 218.3" style="enable-background:new 0 0 419.5 218.3;" xml:space="preserve">
<style type="text/css">
	.st0{fill:none;stroke:#231F20;stroke-width:3;stroke-miterlimit:10;}
	.st1{fill:none;stroke:#231F20;stroke-width:3;stroke-miterlimit:10;stroke-dasharray:9.4354,9.4354,9.4354,9.4354;}
	.st2{fill:none;stroke:#231F20;stroke-width:3;stroke-miterlimit:10;stroke-dasharray:9.4354,9.4354,9.4354,9.4354,9.4354,9.4354;}
	.st3{fill:none;stroke:#231F20;stroke-width:3;stroke-miterlimit:10;stroke-dasharray:11.0838,11.0838,11.0838,11.0838;}
	
		.st4{fill:none;stroke:#231F20;stroke-width:3;stroke-miterlimit:10;stroke-dasharray:11.0838,11.0838,11.0838,11.0838,11.0838,11.0838;}
	.st5{display:none;}
	.st6{display:inline;fill:none;stroke:#231F20;stroke-width:20;stroke-linecap:round;stroke-miterlimit:10;}
	.st7{display:inline;}
	.st8{fill:none;stroke:#231F20;stroke-width:20;stroke-linecap:round;stroke-miterlimit:10;}
</style>
<line class="st0" x1="14.5" y1="12.7" x2="14.2" y2="218.2"/>
<line class="st0" x1="14" y1="14.2" x2="419.4" y2="14.2"/>
<g>
	<g>
		<line class="st0" x1="18.2" y1="212.6" x2="23.2" y2="212.6"/>
		<line class="st1" x1="32.6" y1="212.6" x2="65.6" y2="212.6"/>
		<line class="st2" x1="70.4" y1="212.6" x2="405.3" y2="212.6"/>
		<line class="st0" x1="410" y1="212.6" x2="415" y2="212.6"/>
	</g>
</g>
<g>
	<g>
		<line class="st0" x1="413.9" y1="212.9" x2="413.9" y2="207.9"/>
		<line class="st3" x1="413.9" y1="196.8" x2="413.9" y2="158"/>
		<line class="st4" x1="413.9" y1="152.5" x2="413.9" y2="25"/>
		<line class="st0" x1="413.9" y1="19.5" x2="413.9" y2="14.5"/>
	</g>
</g>
<g id="_x3134_" class="st5">
	<line id="_x3139__00000071555613146022014170000015797347702650758799_" class="st6" x1="141.1" y1="173.2" x2="141.1" y2="35.8"/>
	
		<line id="_x3139__00000062192558353490062280000009987698426026024124_" class="st6" x1="141.1" y1="173.5" x2="278.4" y2="173.5"/>
</g>
<g id="_x3147__00000160157717112511978230000012784163426992935346_" class="st5">
	<path id="_x30__00000112624015318692115620000004366722177101645236_" class="st6" d="M195.7,106.1c0,29,24.8,52.5,55.5,52.5"/>
	<path id="_x30__00000017485604483592071810000008796875371488957630_" class="st6" d="M251.2,158.9c27.5,0,49.8-26.1,49.8-58.4"/>
	<path id="_x30__00000107558354640828124920000011990968782640533168_" class="st6" d="M301,102.9c0-29-24.8-52.5-55.5-52.5"/>
	<path id="_x30__00000054237156980459802460000017265312360343254151_" class="st6" d="M245.5,50.4c-27.5,0-49.8,26.1-49.8,58.4"/>
</g>
<g id="_x314E__00000183207740004092161020000001526169812929141901_" class="st5">
	<g class="st7">
		<path id="_x30__00000043442123809795860830000008352551896527314613_" class="st8" d="M158.7,144c0,29,24.8,52.5,55.5,52.5"/>
		<path id="_x30__00000135662875156558081030000014678780669448236978_" class="st8" d="M214.2,196.8c27.5,0,49.8-26.1,49.8-58.4"/>
		<path id="_x30__00000001663040414063862690000015209037803964803983_" class="st8" d="M264,140.8c0-29-24.8-52.5-55.5-52.5"/>
		<path id="_x30__00000031194958944769405670000000543374690865503659_" class="st8" d="M208.5,88.3c-27.5,0-49.8,26.1-49.8,58.4"/>
	</g>
	<line id="_x314E__00000067224267040139801260000003941610929237282702_" class="st6" x1="148.3" y1="65.7" x2="274.3" y2="65.7"/>
	<line id="_x314E_" class="st6" x1="211.3" y1="64.6" x2="211.3" y2="30.6"/>
</g>
<g id="_x3145__00000176036552172950426980000012335897941521950640_" class="st5">
	<line id="_x3145__00000092416354804798785700000001988866793398494082_" class="st6" x1="115.7" y1="177.9" x2="242.6" y2="39.5"/>
	<line id="_x3145_" class="st6" x1="223.3" y1="77.4" x2="303.8" y2="175.8"/>
</g>
<g id="_x3143_" class="st5">
	<g id="_x3142__00000158739722534073592010000001151069167686158759_" class="st7">
		<g id="_x3137__00000155122685210671416490000016334702410035773581_">
			<g id="_x3134__00000026163664694041685550000002576215356665630860_">
				
					<line id="_x3139__00000023282933222213811210000016557476963705652117_" class="st8" x1="228.6" y1="176.7" x2="228.6" y2="40.6"/>
				
					<line id="_x3139__00000111889385980178636780000017794404255549056928_" class="st8" x1="228.6" y1="178.6" x2="366" y2="178.6"/>
			</g>
			
				<line id="_x3139__00000040537766433047477940000001068866035258214026_" class="st8" x1="228.2" y1="109.6" x2="365.6" y2="109.6"/>
		</g>
		
			<line id="_x3139__00000003792663209876809760000002371540434241593783_" class="st8" x1="366.6" y1="178.7" x2="366.6" y2="42.6"/>
	</g>
	<g id="_x3142__00000164496640950580216760000012179232645975603106_" class="st7">
		<g id="_x3137__00000098918883532935441020000017648906267584838532_">
			<g id="_x3134__00000041295201777191293300000014727899168548757660_">
				
					<line id="_x3139__00000039853193362874407060000006987392730736010885_" class="st8" x1="62.6" y1="175.7" x2="62.6" y2="39.6"/>
				
					<line id="_x3139__00000088831230256383375300000007478953498038163642_" class="st8" x1="62.6" y1="177.6" x2="200" y2="177.6"/>
			</g>
			
				<line id="_x3139__00000056417367414711497930000006576164263069153167_" class="st8" x1="62.2" y1="108.6" x2="199.6" y2="108.6"/>
		</g>
		
			<line id="_x3139__00000165209594366243437420000011912354818864550790_" class="st8" x1="200.6" y1="177.7" x2="200.6" y2="41.6"/>
	</g>
</g>
<g id="_x3138_">
	<g id="_x3137__00000023979065930778583220000017162700937798377097_">
		<g id="_x3134__00000047049149038313957870000005341375621627138691_">
			
				<line id="_x3139__00000141432703669514445950000007743959337911857067_" class="st8" x1="233.9" y1="178.2" x2="233.9" y2="42.1"/>
			
				<line id="_x3139__00000170982235400783592990000003137681097027351176_" class="st8" x1="233.9" y1="180.1" x2="371.3" y2="180.1"/>
		</g>
		<line id="_x3139__00000044173513162273074900000006634938218832487823_" class="st8" x1="234.5" y1="42.5" x2="371.9" y2="42.5"/>
	</g>
	<g id="_x3137__00000010995174999444154840000000178196943030048934_">
		<g id="_x3134__00000031187858325983467860000011050883252809733311_">
			<line id="_x3139__00000124142744411575554380000003475726022509865631_" class="st8" x1="68.9" y1="178.2" x2="68.9" y2="42.1"/>
			
				<line id="_x3139__00000134241755532416837500000008070748114932182957_" class="st8" x1="68.9" y1="180.1" x2="206.3" y2="180.1"/>
		</g>
		<line id="_x3139__00000030482177800706809440000018179617105107376023_" class="st8" x1="69.5" y1="42.5" x2="206.9" y2="42.5"/>
	</g>
</g>
</svg>
