<?xml version="1.0" encoding="UTF-8"?>
<svg id="Layer_1" data-name="Layer 1" xmlns="http://www.w3.org/2000/svg" viewBox="0 0 406.7 205.58">
  <defs>
    <style>
      .cls-1, .cls-2, .cls-3, .cls-4, .cls-5, .cls-6 {
        fill: none;
        stroke: #231f20;
        stroke-miterlimit: 10;
      }

      .cls-1, .cls-2, .cls-3, .cls-5, .cls-6 {
        stroke-width: 3px;
      }

      .cls-2 {
        stroke-dasharray: 0 0 0 0 11.08 11.08 11.08 11.08;
      }

      .cls-3 {
        stroke-dasharray: 0 0 0 0 0 0 11.08 11.08 11.08 11.08 11.08 11.08;
      }

      .cls-4 {
        stroke-linecap: round;
        stroke-width: 20px;
      }

      .cls-5 {
        stroke-dasharray: 0 0 0 0 9.44 9.44 9.44 9.44;
      }

      .cls-6 {
        stroke-dasharray: 0 0 0 0 0 0 9.44 9.44 9.44 9.44 9.44 9.44;
      }
    </style>
  </defs>
  <line class="cls-1" x1="1.83" y1=".06" x2="1.5" y2="205.58"/>
  <line class="cls-1" x1="1.34" y1="1.5" x2="406.7" y2="1.5"/>
  <g>
    <line class="cls-1" x1="5.5" y1="199.93" x2="10.5" y2="199.93"/>
    <line class="cls-5" x1="19.94" y1="199.93" x2="52.96" y2="199.93"/>
    <line class="cls-6" x1="57.68" y1="199.93" x2="392.63" y2="199.93"/>
    <line class="cls-1" x1="397.35" y1="199.93" x2="402.35" y2="199.93"/>
  </g>
  <g>
    <line class="cls-1" x1="401.18" y1="200.21" x2="401.18" y2="195.21"/>
    <line class="cls-2" x1="401.18" y1="184.13" x2="401.18" y2="145.34"/>
    <line class="cls-3" x1="401.18" y1="139.8" x2="401.18" y2="12.33"/>
    <line class="cls-1" x1="401.18" y1="6.79" x2="401.18" y2="1.79"/>
  </g>
  <g id="_" data-name="ㅎ">
    <g>
      <path id="_0" data-name="0" class="cls-4" d="m145.99,131.32c0,29,24.83,52.47,55.51,52.47"/>
      <path id="_0-2" data-name="0" class="cls-4" d="m201.5,184.12c27.54,0,49.83-26.14,49.83-58.45"/>
      <path id="_0-3" data-name="0" class="cls-4" d="m251.33,128.13c0-29-24.83-52.47-55.51-52.47"/>
      <path id="_0-4" data-name="0" class="cls-4" d="m195.82,75.66c-27.54,0-49.83,26.14-49.83,58.45"/>
    </g>
    <line id="_-2" data-name="ㅎ" class="cls-4" x1="135.65" y1="53.03" x2="261.67" y2="53.03"/>
    <line id="_-3" data-name="ㅎ" class="cls-4" x1="198.66" y1="51.9" x2="198.66" y2="17.88"/>
  </g>
</svg>