<?xml version="1.0" encoding="utf-8"?>
<!-- Generator: Adobe Illustrator 27.9.2, SVG Export Plug-In . SVG Version: 6.00 Build 0)  -->
<svg version="1.1" id="Layer_1" xmlns="http://www.w3.org/2000/svg" xmlns:xlink="http://www.w3.org/1999/xlink" x="0px" y="0px"
	 viewBox="0 0 623.6 400.9" style="enable-background:new 0 0 623.6 400.9;" xml:space="preserve">
<style type="text/css">
	.st0{fill:none;stroke:#231F20;stroke-width:20;stroke-linecap:round;stroke-miterlimit:10;}
	.st1{display:none;}
	.st2{display:inline;fill:none;stroke:#231F20;stroke-width:20;stroke-linecap:round;stroke-miterlimit:10;}
	.st3{fill:none;stroke:#231F20;stroke-width:3;stroke-miterlimit:10;}
	.st4{fill:none;stroke:#231F20;stroke-width:3;stroke-miterlimit:10;stroke-dasharray:9.4354,9.4354,9.4354,9.4354;}
	.st5{fill:none;stroke:#231F20;stroke-width:3;stroke-miterlimit:10;stroke-dasharray:9.4354,9.4354,9.4354,9.4354,9.4354,9.4354;}
	.st6{fill:none;stroke:#231F20;stroke-width:3;stroke-miterlimit:10;stroke-dasharray:11.0838,11.0838,11.0838,11.0838;}
	
		.st7{fill:none;stroke:#231F20;stroke-width:3;stroke-miterlimit:10;stroke-dasharray:11.0838,11.0838,11.0838,11.0838,11.0838,11.0838;}
</style>
<g id="_x3157_">
	<line id="_x314F__00000060732124643354352910000013155112303764982174_" class="st0" x1="363.8" y1="266.4" x2="80.4" y2="266.4"/>
	
		<line id="_x3151__00000063591520359124249950000003183124225374880900_" class="st0" x1="222.1" y1="266.8" x2="222.1" y2="351.9"/>
</g>
<g id="_x314F_" class="st1">
	<line id="_x314F__00000119839374445916725690000018441937281624183967_" class="st2" x1="527.2" y1="338.1" x2="527.2" y2="54.6"/>
	
		<line id="_x3151__00000036246497452233402360000017657035932569567910_" class="st2" x1="526.7" y1="196.4" x2="441.6" y2="196.4"/>
</g>
<line class="st3" x1="14.5" y1="400.1" x2="14.2" y2="11.8"/>
<line class="st3" x1="609.4" y1="401.2" x2="609.5" y2="12.9"/>
<line class="st3" x1="14" y1="12.5" x2="609.3" y2="12.5"/>
<g>
	<g>
		<line class="st3" x1="14.5" y1="211" x2="19.5" y2="211"/>
		<line class="st4" x1="28.9" y1="211" x2="61.9" y2="211"/>
		<line class="st5" x1="66.7" y1="211" x2="401.6" y2="211"/>
		<line class="st3" x1="406.3" y1="211" x2="411.3" y2="211"/>
	</g>
</g>
<g>
	<g>
		<line class="st3" x1="410.2" y1="211.3" x2="410.2" y2="206.3"/>
		<line class="st6" x1="410.2" y1="195.2" x2="410.2" y2="156.4"/>
		<line class="st7" x1="410.2" y1="150.9" x2="410.2" y2="23.4"/>
		<line class="st3" x1="410.2" y1="17.9" x2="410.2" y2="12.9"/>
	</g>
</g>
<g class="st1">
	<line id="_x314F__00000134231182162528917830000001849310651653353655_" class="st2" x1="515.8" y1="342.2" x2="515.8" y2="58.7"/>
	
		<line id="_x3151__00000182528923844234208300000015162030395235344283_" class="st2" x1="515.3" y1="200.4" x2="444.4" y2="200.4"/>
</g>
<line id="_x314F__00000000923643029027104950000004083998648024095381_" class="st0" x1="517.1" y1="342.2" x2="517.1" y2="58.7"/>
</svg>
