<?xml version="1.0" encoding="UTF-8"?>
<svg id="Layer_1" data-name="Layer 1" xmlns="http://www.w3.org/2000/svg" viewBox="0 0 598.08 211.46">
  <defs>
    <style>
      .cls-1 {
        stroke-dasharray: 0 0 0 0 9.92 9.92 9.92 9.92;
      }

      .cls-1, .cls-2, .cls-3, .cls-4 {
        fill: none;
        stroke: #231f20;
        stroke-miterlimit: 10;
      }

      .cls-1, .cls-2, .cls-4 {
        stroke-width: 3px;
      }

      .cls-3 {
        stroke-linecap: round;
        stroke-width: 20px;
      }

      .cls-4 {
        stroke-dasharray: 0 0 0 0 0 0 9.92 9.92 9.92 9.92 9.92 9.92;
      }
    </style>
  </defs>
  <line class="cls-2" x1="1.17" y1="209.76" x2="596.45" y2="209.76"/>
  <g>
    <line class="cls-2" x1="1.17" y1="10.66" x2="6.17" y2="10.66"/>
    <line class="cls-1" x1="16.09" y1="10.66" x2="50.81" y2="10.66"/>
    <line class="cls-4" x1="55.77" y1="10.66" x2="586.49" y2="10.66"/>
    <line class="cls-2" x1="591.45" y1="10.66" x2="596.45" y2="10.66"/>
  </g>
  <line class="cls-2" x1="1.5" y1=".5" x2="1.58" y2="211.46"/>
  <line class="cls-2" x1="596.58" y1="210.96" x2="596.5" y2="0"/>
  <g id="_" data-name="ㅎ">
    <g>
      <path id="_0" data-name="0" class="cls-3" d="m320.96,138.47c0,26.7,24.83,48.31,55.51,48.31"/>
      <path id="_0-2" data-name="0" class="cls-3" d="m376.47,187.09c27.54,0,49.83-24.07,49.83-53.82"/>
      <path id="_0-3" data-name="0" class="cls-3" d="m426.3,135.53c0-26.7-24.83-48.31-55.51-48.31"/>
      <path id="_0-4" data-name="0" class="cls-3" d="m370.79,87.22c-27.54,0-49.83,24.07-49.83,53.82"/>
    </g>
    <line id="_-2" data-name="ㅎ" class="cls-3" x1="310.62" y1="66.38" x2="436.64" y2="66.38"/>
    <line id="_-3" data-name="ㅎ" class="cls-3" x1="373.63" y1="65.34" x2="373.63" y2="34.02"/>
  </g>
  <g>
    <line id="_-4" data-name="ㄹ" class="cls-3" x1="285.7" y1="48.98" x2="285.7" y2="109.52"/>
    <g>
      <line id="_-5" data-name="ㄹ" class="cls-3" x1="160.98" y1="172.12" x2="160.98" y2="111.58"/>
      <line id="_-6" data-name="ㄹ" class="cls-3" x1="160.98" y1="172.91" x2="285.18" y2="172.91"/>
      <line id="_-7" data-name="ㄹ" class="cls-3" x1="285.7" y1="48.19" x2="161.5" y2="48.19"/>
      <line id="_-8" data-name="ㄹ" class="cls-3" x1="285.7" y1="111.14" x2="161.5" y2="111.14"/>
    </g>
  </g>
</svg>