<?xml version="1.0" encoding="utf-8"?>
<!-- Generator: Adobe Illustrator 27.9.1, SVG Export Plug-In . SVG Version: 6.00 Build 0)  -->
<svg version="1.1" id="Layer_1" xmlns="http://www.w3.org/2000/svg" xmlns:xlink="http://www.w3.org/1999/xlink" x="0px" y="0px"
	 viewBox="0 0 623.6 221.1" style="enable-background:new 0 0 623.6 221.1;" xml:space="preserve">
<style type="text/css">
	.st0{fill:none;stroke:#231F20;stroke-width:3;stroke-miterlimit:10;}
	.st1{fill:none;stroke:#231F20;stroke-width:3;stroke-miterlimit:10;stroke-dasharray:9.9199,9.9199,9.9199,9.9199;}
	.st2{fill:none;stroke:#231F20;stroke-width:3;stroke-miterlimit:10;stroke-dasharray:9.9199,9.9199,9.9199,9.9199,9.9199,9.9199;}
	.st3{display:none;}
	.st4{display:inline;}
	.st5{fill:none;stroke:#231F20;stroke-width:20;stroke-linecap:round;stroke-miterlimit:10;}
	.st6{display:inline;fill:none;stroke:#231F20;stroke-width:20;stroke-linecap:round;stroke-miterlimit:10;}
</style>
<line class="st0" x1="14.2" y1="209.8" x2="609.4" y2="209.8"/>
<g>
	<g>
		<line class="st0" x1="14.2" y1="10.7" x2="19.2" y2="10.7"/>
		<line class="st1" x1="29.1" y1="10.7" x2="63.8" y2="10.7"/>
		<line class="st2" x1="68.8" y1="10.7" x2="599.5" y2="10.7"/>
		<line class="st0" x1="604.4" y1="10.7" x2="609.4" y2="10.7"/>
	</g>
</g>
<line class="st0" x1="14.5" y1="0.5" x2="14.6" y2="211.5"/>
<line class="st0" x1="609.6" y1="211" x2="609.5" y2="0"/>
<g id="_x314E__00000060007193628547708090000001536059862351043219_" class="st3">
	<g id="_x314E_" class="st4">
		<path id="_x30__00000061466819452792643050000000498475016832393874_" class="st5" d="M259.1,137c0,29,24.8,52.5,55.5,52.5"/>
		<path id="_x30__00000093157671026920684620000007789815254335953084_" class="st5" d="M314.6,189.8c27.5,0,49.8-26.1,49.8-58.4"/>
		<path id="_x30__00000145756939392294334830000004196431365526629302_" class="st5" d="M364.5,133.8c0-29-24.8-52.5-55.5-52.5"/>
		<path id="_x30__00000124881669996706407130000010162513249413115321_" class="st5" d="M309,81.3c-27.5,0-49.8,26.1-49.8,58.4"/>
	</g>
	<line id="_x3139__00000097471783429593459940000015920910770986818194_" class="st6" x1="243.1" y1="56" x2="380.5" y2="56"/>
	<line id="_x3139__00000087394199786983190000000009429384128540119939_" class="st6" x1="311.8" y1="56.2" x2="311.8" y2="27.8"/>
</g>
<g id="_x314D_" class="st3">
	<g id="_x3137__00000042731836520828668340000006337340143640785559_" class="st4">
		<g id="_x3134__00000165222218875696387270000006472965841317136052_">
			
				<line id="_x3139__00000010288592894560687200000016503163761411132337_" class="st5" x1="282.8" y1="177.6" x2="282.8" y2="41.5"/>
			
				<line id="_x3139__00000032630682114190619610000008396084582435060399_" class="st5" x1="242.8" y1="179.6" x2="380.2" y2="179.6"/>
		</g>
		<line id="_x3139__00000149360227406405951030000003028602019127643022_" class="st5" x1="243.4" y1="41.6" x2="380.8" y2="41.6"/>
	</g>
	<line id="_x3139__00000020389785494763330460000014288516871107241396_" class="st6" x1="342.8" y1="179.6" x2="342.8" y2="43.5"/>
</g>
<g id="_x314C_" class="st3">
	<g class="st4">
		<g id="_x3134__00000001645991412743827160000003852759599860078468_">
			
				<line id="_x3139__00000090287139169740376770000011846842940066760068_" class="st5" x1="242.8" y1="179.1" x2="242.8" y2="41.7"/>
			
				<line id="_x3139__00000170982861258005566000000000169952736069612212_" class="st5" x1="242.8" y1="179.4" x2="380.2" y2="179.4"/>
		</g>
		<line id="_x3139__00000031202830447182085930000012147424340580055465_" class="st5" x1="243.4" y1="41.8" x2="380.8" y2="41.8"/>
	</g>
	
		<line id="_x3139__00000173874501543415196580000009434284850178602396_" class="st6" x1="243.1" y1="110.6" x2="380.5" y2="110.6"/>
</g>
<g id="_x314B_" class="st3">
	<g id="_x3131__00000076600455539464513130000011292389890065564589_" class="st4">
		<line id="_x3139__00000109007343802252708040000012816241503634945964_" class="st5" x1="380.3" y1="41.9" x2="243" y2="41.9"/>
		
			<line id="_x3139__00000150065272191464596300000012473266504100460960_" class="st5" x1="380.7" y1="41.9" x2="380.7" y2="179.2"/>
	</g>
	
		<line id="_x3139__00000168101722861985122750000005292450564899431343_" class="st6" x1="380.5" y1="110.6" x2="243.1" y2="110.6"/>
</g>
<g id="_x314A__00000094576017343493310170000014423528671209553839_" class="st3">
	<g id="_x314A_" class="st4">
		<g id="_x3145__00000109003574905719137300000004819937033670983349_">
			
				<line id="_x3145__00000124880515289858281710000001842125960698392743_" class="st5" x1="242.8" y1="191.8" x2="380.5" y2="59.1"/>
			
				<line id="_x3145__00000105388965180024089850000003437604346223392180_" class="st5" x1="327.2" y1="125" x2="380.8" y2="189.8"/>
		</g>
		<line id="_x3139__00000004518700713660761140000004174889933754506428_" class="st5" x1="243" y1="58" x2="380.4" y2="58"/>
	</g>
	<line id="_x3139__00000061431495356108983230000014693758017774055828_" class="st6" x1="311.8" y1="57.7" x2="311.8" y2="29.3"/>
</g>
<g id="_x3148_" class="st3">
	<g id="_x3145__00000176036552172950426980000012335897941521950640_" class="st4">
		
			<line id="_x3145__00000092416354804798785700000001988866793398494082_" class="st5" x1="242.8" y1="177.5" x2="380.5" y2="44.8"/>
		<line id="_x3145_" class="st5" x1="327.2" y1="110.7" x2="380.8" y2="175.5"/>
	</g>
	<line id="_x3139__00000088133878169359345240000016316202019467337150_" class="st6" x1="243" y1="43.6" x2="380.4" y2="43.6"/>
</g>
<g id="_x3147_" class="st3">
	<path id="_x30__00000160176543013836628730000012730868243718474662_" class="st6" d="M259.1,112c0,29,24.8,52.5,55.5,52.5"/>
	<path id="_x30__00000002384560913540772100000005079009347425563028_" class="st6" d="M314.6,164.8c27.5,0,49.8-26.1,49.8-58.4"/>
	<path id="_x30_" class="st6" d="M364.5,108.8c0-29-24.8-52.5-55.5-52.5"/>
	<path id="_x30__00000040557645117408956490000011533728137049625220_" class="st6" d="M309,56.3c-27.5,0-49.8,26.1-49.8,58.4"/>
</g>
<g id="_x3145__00000142870259340541009940000006755774677788516248_" class="st3">
	<line id="_x3145__00000100381136246387521990000013902550105797212861_" class="st6" x1="293.7" y1="164.2" x2="420.6" y2="25.8"/>
	<line id="_x3145__00000051347419555813084490000017131989260068608911_" class="st6" x1="401.3" y1="63.7" x2="481.8" y2="162.2"/>
</g>
<g id="_x3142_" class="st3">
	<g id="_x3137__00000074423522935271685570000008946941002837525679_" class="st4">
		<g id="_x3134__00000146473094887297759060000008916255655018799283_">
			<line id="_x3139__00000088827096486837987840000009411798041411290009_" class="st5" x1="243" y1="177.6" x2="243" y2="41.5"/>
			
				<line id="_x3139__00000127746553045022437560000007779725822773515923_" class="st5" x1="243" y1="179.6" x2="380.4" y2="179.6"/>
		</g>
		<line id="_x3139__00000128454363689753285960000002444805915811546810_" class="st5" x1="242.6" y1="110.6" x2="380" y2="110.6"/>
	</g>
	<line id="_x3139__00000078766469499516181990000009847093463023771054_" class="st6" x1="381" y1="179.6" x2="381" y2="43.5"/>
</g>
<g id="_x3141_" class="st3">
	<g id="_x3137__00000041996193579129870860000018112059000794020743_" class="st4">
		<g id="_x3134__00000029007393463256235190000004066028602550988441_">
			
				<line id="_x3139__00000068642643578330665220000013758325702068796552_" class="st5" x1="242.8" y1="177.6" x2="242.8" y2="41.5"/>
			
				<line id="_x3139__00000081646259469241984310000000196759611016939676_" class="st5" x1="242.8" y1="179.6" x2="380.2" y2="179.6"/>
		</g>
		<line id="_x3139__00000111182645877281915000000006101002529252084668_" class="st5" x1="243.4" y1="41.6" x2="380.8" y2="41.6"/>
	</g>
	<line id="_x3139__00000139256208464436306160000015392940362400143548_" class="st6" x1="380.8" y1="179.6" x2="380.8" y2="43.5"/>
</g>
<g id="_x3139_" class="st3">
	<g id="_x3137__00000067945023595379726450000008658604344718631314_" class="st4">
		<g id="_x3134__00000026161238134565832540000009179870843955528583_">
			<line id="_x3139__00000170252544995791820790000005432894333748702616_" class="st5" x1="381" y1="110.4" x2="381" y2="42.4"/>
			
				<line id="_x3139__00000138562168379022861440000014495874550241203131_" class="st5" x1="243" y1="179.4" x2="380.4" y2="179.4"/>
		</g>
		<line id="_x3139__00000083793954211842847930000006362460977535931837_" class="st5" x1="243.6" y1="41.7" x2="381" y2="41.7"/>
	</g>
	
		<line id="_x3139__00000032640913909619266610000001005467180365822375_" class="st6" x1="243.3" y1="110.5" x2="380.7" y2="110.5"/>
	<line id="_x3139__00000090255768220654687950000010810690300611831997_" class="st6" x1="242.6" y1="179" x2="242.6" y2="111"/>
</g>
<g id="_x3137_" class="st3">
	<g id="_x3134__00000001654027049463064660000007427190677684144289_" class="st4">
		
			<line id="_x3139__00000073697034119990745490000005941804626529949627_" class="st5" x1="242.8" y1="177.4" x2="242.8" y2="41.4"/>
		
			<line id="_x3139__00000026860701998508214790000012948310303056101517_" class="st5" x1="242.8" y1="179.4" x2="380.2" y2="179.4"/>
	</g>
	<line id="_x3139__00000145775074495612534760000018278726734916752512_" class="st6" x1="243.4" y1="41.8" x2="380.8" y2="41.8"/>
</g>
<g id="_x3134_" class="st3">
	<line id="_x3139__00000071555613146022014170000015797347702650758799_" class="st6" x1="243.1" y1="179.1" x2="243.1" y2="41.7"/>
	
		<line id="_x3139__00000062192558353490062280000009987698426026024124_" class="st6" x1="243.1" y1="179.4" x2="380.5" y2="179.4"/>
</g>
<g id="_x3131_" class="st3">
	<line id="_x3139__00000132793554623618795300000010115786945768717975_" class="st6" x1="524.3" y1="38.9" x2="387" y2="38.9"/>
	<line id="_x3139__00000150072500724572447510000006977669912199539089_" class="st6" x1="524.7" y1="38.9" x2="524.7" y2="176.2"/>
</g>
<g id="_x3146_">
	<g id="_x3145__00000155835702725655190520000013049175087775955095_">
		
			<line id="_x3145__00000070105699296778855170000011417271493118784130_" class="st5" x1="130.1" y1="181.2" x2="245.6" y2="42.9"/>
		
			<line id="_x3145__00000083053815238007563500000013212218816715901372_" class="st5" x1="228.1" y1="80.7" x2="301.4" y2="179.2"/>
	</g>
	<g id="_x3145__00000181774991012197975460000009992787965564666499_">
		
			<line id="_x3145__00000018208539575609277730000001905334317222132654_" class="st5" x1="322.2" y1="178.2" x2="437.8" y2="39.9"/>
		
			<line id="_x3145__00000113335816160818454360000004679067327889856401_" class="st5" x1="420.2" y1="77.7" x2="493.5" y2="176.2"/>
	</g>
</g>
<g id="_x3132_" class="st3">
	<g id="_x3131__00000169545638465536761440000016178644647123635365_" class="st4">
		<line id="_x3139__00000055673235814159539680000018000241829907757462_" class="st5" x1="463.8" y1="41.9" x2="326.5" y2="41.9"/>
		
			<line id="_x3139__00000159432502928710859030000005206921098544433079_" class="st5" x1="464.2" y1="41.9" x2="464.2" y2="179.2"/>
	</g>
	<g id="_x3131__00000154399362204658902400000001175531250062422170_" class="st4">
		<line id="_x3139__00000175294947283999127110000016918413680622926243_" class="st5" x1="296.8" y1="41.9" x2="159.5" y2="41.9"/>
		
			<line id="_x3139__00000013910700907218518360000006982027086695147410_" class="st5" x1="297.2" y1="41.9" x2="297.2" y2="179.2"/>
	</g>
</g>
</svg>
