<?xml version="1.0" encoding="utf-8"?>
<!-- Generator: Adobe Illustrator 27.9.1, SVG Export Plug-In . SVG Version: 6.00 Build 0)  -->
<svg version="1.1" id="Layer_1" xmlns="http://www.w3.org/2000/svg" xmlns:xlink="http://www.w3.org/1999/xlink" x="0px" y="0px"
	 viewBox="0 0 623.6 221.1" style="enable-background:new 0 0 623.6 221.1;" xml:space="preserve">
<style type="text/css">
	.st0{fill:none;stroke:#231F20;stroke-width:3;stroke-miterlimit:10;}
	.st1{fill:none;stroke:#231F20;stroke-width:3;stroke-miterlimit:10;stroke-dasharray:9.9199,9.9199,9.9199,9.9199;}
	.st2{fill:none;stroke:#231F20;stroke-width:3;stroke-miterlimit:10;stroke-dasharray:9.9199,9.9199,9.9199,9.9199,9.9199,9.9199;}
	.st3{display:none;}
	.st4{display:inline;fill:none;stroke:#231F20;stroke-width:20;stroke-linecap:round;stroke-miterlimit:10;}
	.st5{display:inline;}
	.st6{fill:none;stroke:#231F20;stroke-width:20;stroke-linecap:round;stroke-miterlimit:10;}
</style>
<line class="st0" x1="14.2" y1="209.8" x2="609.4" y2="209.8"/>
<g>
	<g>
		<line class="st0" x1="14.2" y1="10.7" x2="19.2" y2="10.7"/>
		<line class="st1" x1="29.1" y1="10.7" x2="63.8" y2="10.7"/>
		<line class="st2" x1="68.8" y1="10.7" x2="599.5" y2="10.7"/>
		<line class="st0" x1="604.4" y1="10.7" x2="609.4" y2="10.7"/>
	</g>
</g>
<line class="st0" x1="14.5" y1="0.5" x2="14.6" y2="211.5"/>
<line class="st0" x1="609.6" y1="211" x2="609.5" y2="0"/>
<g id="_x3134_" class="st3">
	<line id="_x3139__00000071555613146022014170000015797347702650758799_" class="st4" x1="243.1" y1="179.1" x2="243.1" y2="41.7"/>
	
		<line id="_x3139__00000062192558353490062280000009987698426026024124_" class="st4" x1="243.1" y1="179.4" x2="380.5" y2="179.4"/>
</g>
<g id="_x3147_" class="st3">
	<path id="_x30__00000160176543013836628730000012730868243718474662_" class="st4" d="M259.1,112c0,29,24.8,52.5,55.5,52.5"/>
	<path id="_x30__00000002384560913540772100000005079009347425563028_" class="st4" d="M314.6,164.8c27.5,0,49.8-26.1,49.8-58.4"/>
	<path id="_x30_" class="st4" d="M364.5,108.8c0-29-24.8-52.5-55.5-52.5"/>
	<path id="_x30__00000040557645117408956490000011533728137049625220_" class="st4" d="M309,56.3c-27.5,0-49.8,26.1-49.8,58.4"/>
</g>
<g class="st3">
	<g id="_x314E_" class="st5">
		<path id="_x30__00000061466819452792643050000000498475016832393874_" class="st6" d="M259.1,137c0,29,24.8,52.5,55.5,52.5"/>
		<path id="_x30__00000093157671026920684620000007789815254335953084_" class="st6" d="M314.6,189.8c27.5,0,49.8-26.1,49.8-58.4"/>
		<path id="_x30__00000145756939392294334830000004196431365526629302_" class="st6" d="M364.5,133.8c0-29-24.8-52.5-55.5-52.5"/>
		<path id="_x30__00000124881669996706407130000010162513249413115321_" class="st6" d="M309,81.3c-27.5,0-49.8,26.1-49.8,58.4"/>
	</g>
	<line id="_x3139__00000097471783429593459940000015920910770986818194_" class="st4" x1="243.1" y1="56" x2="380.5" y2="56"/>
	<line id="_x3139__00000087394199786983190000000009429384128540119939_" class="st4" x1="311.8" y1="56.2" x2="311.8" y2="27.8"/>
</g>
<g id="_x3137_" class="st3">
	<g id="_x3134__00000001654027049463064660000007427190677684144289_" class="st5">
		
			<line id="_x3139__00000073697034119990745490000005941804626529949627_" class="st6" x1="242.8" y1="179.1" x2="242.8" y2="41.7"/>
		
			<line id="_x3139__00000026860701998508214790000012948310303056101517_" class="st6" x1="242.8" y1="179.4" x2="380.2" y2="179.4"/>
	</g>
	<line id="_x3139__00000145775074495612534760000018278726734916752512_" class="st4" x1="243.4" y1="41.8" x2="380.8" y2="41.8"/>
</g>
<g id="_x314C_" class="st3">
	<g class="st5">
		<g id="_x3134__00000001645991412743827160000003852759599860078468_">
			
				<line id="_x3139__00000090287139169740376770000011846842940066760068_" class="st6" x1="242.8" y1="179.1" x2="242.8" y2="41.7"/>
			
				<line id="_x3139__00000170982861258005566000000000169952736069612212_" class="st6" x1="242.8" y1="179.4" x2="380.2" y2="179.4"/>
		</g>
		<line id="_x3139__00000031202830447182085930000012147424340580055465_" class="st6" x1="243.4" y1="41.8" x2="380.8" y2="41.8"/>
	</g>
	
		<line id="_x3139__00000173874501543415196580000009434284850178602396_" class="st4" x1="243.1" y1="110.6" x2="380.5" y2="110.6"/>
</g>
<g id="_x3131_" class="st3">
	<line id="_x3139__00000132793554623618795300000010115786945768717975_" class="st4" x1="380.3" y1="41.9" x2="243" y2="41.9"/>
	<line id="_x3139__00000150072500724572447510000006977669912199539089_" class="st4" x1="380.7" y1="41.9" x2="380.7" y2="179.2"/>
</g>
<g id="_x314B_">
	<g id="_x3131__00000076600455539464513130000011292389890065564589_">
		<line id="_x3139__00000109007343802252708040000012816241503634945964_" class="st6" x1="380.3" y1="41.9" x2="243" y2="41.9"/>
		
			<line id="_x3139__00000150065272191464596300000012473266504100460960_" class="st6" x1="380.7" y1="41.9" x2="380.7" y2="179.2"/>
	</g>
	
		<line id="_x3139__00000168101722861985122750000005292450564899431343_" class="st6" x1="380.5" y1="110.6" x2="243.1" y2="110.6"/>
</g>
</svg>
