<?xml version="1.0" encoding="UTF-8"?>
<!DOCTYPE svg PUBLIC "-//W3C//DTD SVG 1.1//EN" "http://www.w3.org/Graphics/SVG/1.1/DTD/svg11.dtd">
<svg xmlns="http://www.w3.org/2000/svg" version="1.1" width="2598px" height="2598px" style="shape-rendering:geometricPrecision; text-rendering:geometricPrecision; image-rendering:optimizeQuality; fill-rule:evenodd; clip-rule:evenodd" xmlns:xlink="http://www.w3.org/1999/xlink">
<g><path style="opacity:1" fill="#fefffe" d="M -0.5,-0.5 C 865.5,-0.5 1731.5,-0.5 2597.5,-0.5C 2597.5,865.5 2597.5,1731.5 2597.5,2597.5C 1731.5,2597.5 865.5,2597.5 -0.5,2597.5C -0.5,1731.5 -0.5,865.5 -0.5,-0.5 Z"/></g>
<g><path style="opacity:1" fill="#000000" d="M 48.5,50.5 C 881.833,50.5 1715.17,50.5 2548.5,50.5C 2548.5,883.833 2548.5,1717.17 2548.5,2550.5C 1715.17,2550.5 881.833,2550.5 48.5,2550.5C 48.5,1717.17 48.5,883.833 48.5,50.5 Z"/></g>
<g><path style="opacity:1" fill="#fefefe" d="M 68.5,70.5 C 888.5,70.5 1708.5,70.5 2528.5,70.5C 2528.5,614.5 2528.5,1158.5 2528.5,1702.5C 2505.17,1702.5 2481.83,1702.5 2458.5,1702.5C 2458.5,1709.17 2458.5,1715.83 2458.5,1722.5C 2481.83,1722.5 2505.17,1722.5 2528.5,1722.5C 2528.5,1991.5 2528.5,2260.5 2528.5,2529.5C 1708.52,2530.6 888.524,2530.6 68.5,2529.5C 68.5,2260.5 68.5,1991.5 68.5,1722.5C 91.8333,1722.5 115.167,1722.5 138.5,1722.5C 138.5,1715.83 138.5,1709.17 138.5,1702.5C 115.167,1702.5 91.8333,1702.5 68.5,1702.5C 68.5,1434.17 68.5,1165.83 68.5,897.5C 83.5,897.5 98.5,897.5 113.5,897.5C 113.5,890.833 113.5,884.167 113.5,877.5C 98.5,877.5 83.5,877.5 68.5,877.5C 68.5,608.5 68.5,339.5 68.5,70.5 Z"/></g>
<g><path style="opacity:1" fill="#000000" d="M 1702.5,86.5 C 1709.17,86.5 1715.83,86.5 1722.5,86.5C 1722.5,113.167 1722.5,139.833 1722.5,166.5C 1715.83,166.5 1709.17,166.5 1702.5,166.5C 1702.5,139.833 1702.5,113.167 1702.5,86.5 Z"/></g>
<g><path style="opacity:1" fill="#000000" d="M 1702.5,206.5 C 1709.17,206.5 1715.83,206.5 1722.5,206.5C 1722.5,233.167 1722.5,259.833 1722.5,286.5C 1715.83,286.5 1709.17,286.5 1702.5,286.5C 1702.5,259.833 1702.5,233.167 1702.5,206.5 Z"/></g>
<g><path style="opacity:1" fill="#000000" d="M 1702.5,326.5 C 1709.17,326.5 1715.83,326.5 1722.5,326.5C 1722.5,353.167 1722.5,379.833 1722.5,406.5C 1715.83,406.5 1709.17,406.5 1702.5,406.5C 1702.5,379.833 1702.5,353.167 1702.5,326.5 Z"/></g>
<g><path style="opacity:1" fill="#000000" d="M 1702.5,446.5 C 1709.17,446.5 1715.83,446.5 1722.5,446.5C 1722.5,473.167 1722.5,499.833 1722.5,526.5C 1715.83,526.5 1709.17,526.5 1702.5,526.5C 1702.5,499.833 1702.5,473.167 1702.5,446.5 Z"/></g>
<g><path style="opacity:1" fill="#000000" d="M 1175.5,1867.5 C 1174.71,1867.78 1174.04,1868.28 1173.5,1869C 1377.83,1869.5 1582.17,1869.67 1786.5,1869.5C 1812.52,1869.5 1836.52,1876.34 1858.5,1890C 1876.73,1904.95 1887.9,1924.12 1892,1947.5C 1894.93,1970.77 1893.6,1993.77 1888,2016.5C 1877.19,2049.64 1854.69,2069.8 1820.5,2077C 1811.27,2079.08 1801.94,2080.41 1792.5,2081C 1473.83,2081.67 1155.17,2081.67 836.5,2081C 782.605,2076.1 751.772,2046.94 744,1993.5C 741.694,1972.06 746.027,1952.06 757,1933.5C 772.746,1909.09 792.579,1888.59 816.5,1872C 886.121,1825.02 953.788,1775.35 1019.5,1723C 1018.52,1716.26 1018.19,1709.42 1018.5,1702.5C 1027.51,1702.67 1036.51,1702.5 1045.5,1702C 1144.99,1619.85 1238.16,1530.68 1325,1434.5C 1382.25,1370.73 1429.58,1300.06 1467,1222.5C 1499.29,1153.69 1518.62,1081.36 1525,1005.5C 1527.54,970.095 1526.88,934.761 1523,899.5C 1506.74,897.523 1490.24,896.857 1473.5,897.5C 1473.5,890.833 1473.5,884.167 1473.5,877.5C 1488.5,877.5 1503.5,877.5 1518.5,877.5C 1500.36,781.52 1444.02,721.02 1349.5,696C 1312.11,685.13 1273.95,679.63 1235,679.5C 1131.39,680.969 1048.72,722.969 987,805.5C 971.239,827.518 958.739,851.352 949.5,877C 950.793,877.49 952.127,877.657 953.5,877.5C 953.5,884.167 953.5,890.833 953.5,897.5C 949.833,897.5 946.167,897.5 942.5,897.5C 937.193,917.203 933.36,937.203 931,957.5C 929.352,983.838 927.685,1010.17 926,1036.5C 919.522,1079.31 895.022,1104.81 852.5,1113C 821.252,1119.27 790.586,1117.27 760.5,1107C 733.162,1095.32 715.328,1075.16 707,1046.5C 704.028,1035 702.028,1023.34 701,1011.5C 700.351,994.838 699.851,978.171 699.5,961.5C 700.173,940.121 701.506,918.788 703.5,897.5C 680.167,897.5 656.833,897.5 633.5,897.5C 633.5,890.833 633.5,884.167 633.5,877.5C 658.167,877.5 682.833,877.5 707.5,877.5C 724.555,774.21 770.889,686.71 846.5,615C 948.752,520.995 1069.75,471.662 1209.5,467C 1294.79,463.423 1377.79,475.423 1458.5,503C 1552.88,539.722 1627.05,600.889 1681,686.5C 1688.76,698.346 1695.76,710.679 1702,723.5C 1702.5,711.171 1702.67,698.838 1702.5,686.5C 1709.17,686.5 1715.83,686.5 1722.5,686.5C 1722.83,713.408 1722.49,740.241 1721.5,767C 1744.46,825.062 1755.12,885.396 1753.5,948C 1751.43,1098.79 1714.26,1240.29 1642,1372.5C 1572.62,1496.25 1485.12,1606.08 1379.5,1702C 1405.83,1702.5 1432.16,1702.67 1458.5,1702.5C 1458.5,1709.17 1458.5,1715.83 1458.5,1722.5C 1431.83,1722.5 1405.17,1722.5 1378.5,1722.5C 1378.67,1716.16 1378.5,1709.82 1378,1703.5C 1313.68,1762.37 1246.18,1817.04 1175.5,1867.5 Z"/></g>
<g><path style="opacity:1" fill="#000000" d="M 1702.5,566.5 C 1709.17,566.5 1715.83,566.5 1722.5,566.5C 1722.5,593.167 1722.5,619.833 1722.5,646.5C 1715.83,646.5 1709.17,646.5 1702.5,646.5C 1702.5,619.833 1702.5,593.167 1702.5,566.5 Z"/></g>
<g><path style="opacity:1" fill="#000000" d="M 153.5,877.5 C 180.167,877.5 206.833,877.5 233.5,877.5C 233.5,884.167 233.5,890.833 233.5,897.5C 206.833,897.5 180.167,897.5 153.5,897.5C 153.5,890.833 153.5,884.167 153.5,877.5 Z"/></g>
<g><path style="opacity:1" fill="#000000" d="M 273.5,877.5 C 300.167,877.5 326.833,877.5 353.5,877.5C 353.5,884.167 353.5,890.833 353.5,897.5C 326.833,897.5 300.167,897.5 273.5,897.5C 273.5,890.833 273.5,884.167 273.5,877.5 Z"/></g>
<g><path style="opacity:1" fill="#000000" d="M 393.5,877.5 C 420.167,877.5 446.833,877.5 473.5,877.5C 473.5,884.167 473.5,890.833 473.5,897.5C 446.833,897.5 420.167,897.5 393.5,897.5C 393.5,890.833 393.5,884.167 393.5,877.5 Z"/></g>
<g><path style="opacity:1" fill="#000000" d="M 513.5,877.5 C 540.167,877.5 566.833,877.5 593.5,877.5C 593.5,884.167 593.5,890.833 593.5,897.5C 566.833,897.5 540.167,897.5 513.5,897.5C 513.5,890.833 513.5,884.167 513.5,877.5 Z"/></g>
<g><path style="opacity:1" fill="#000000" d="M 993.5,877.5 C 1020.17,877.5 1046.83,877.5 1073.5,877.5C 1073.5,884.167 1073.5,890.833 1073.5,897.5C 1046.83,897.5 1020.17,897.5 993.5,897.5C 993.5,890.833 993.5,884.167 993.5,877.5 Z"/></g>
<g><path style="opacity:1" fill="#000000" d="M 1113.5,877.5 C 1140.17,877.5 1166.83,877.5 1193.5,877.5C 1193.5,884.167 1193.5,890.833 1193.5,897.5C 1166.83,897.5 1140.17,897.5 1113.5,897.5C 1113.5,890.833 1113.5,884.167 1113.5,877.5 Z"/></g>
<g><path style="opacity:1" fill="#000000" d="M 1233.5,877.5 C 1260.17,877.5 1286.83,877.5 1313.5,877.5C 1313.5,884.167 1313.5,890.833 1313.5,897.5C 1286.83,897.5 1260.17,897.5 1233.5,897.5C 1233.5,890.833 1233.5,884.167 1233.5,877.5 Z"/></g>
<g><path style="opacity:1" fill="#000000" d="M 1353.5,877.5 C 1380.17,877.5 1406.83,877.5 1433.5,877.5C 1433.5,884.167 1433.5,890.833 1433.5,897.5C 1406.83,897.5 1380.17,897.5 1353.5,897.5C 1353.5,890.833 1353.5,884.167 1353.5,877.5 Z"/></g>
<g><path style="opacity:1" fill="#000000" d="M 178.5,1702.5 C 205.167,1702.5 231.833,1702.5 258.5,1702.5C 258.5,1709.17 258.5,1715.83 258.5,1722.5C 231.833,1722.5 205.167,1722.5 178.5,1722.5C 178.5,1715.83 178.5,1709.17 178.5,1702.5 Z"/></g>
<g><path style="opacity:1" fill="#000000" d="M 298.5,1702.5 C 325.167,1702.5 351.833,1702.5 378.5,1702.5C 378.5,1709.17 378.5,1715.83 378.5,1722.5C 351.833,1722.5 325.167,1722.5 298.5,1722.5C 298.5,1715.83 298.5,1709.17 298.5,1702.5 Z"/></g>
<g><path style="opacity:1" fill="#000000" d="M 418.5,1702.5 C 445.167,1702.5 471.833,1702.5 498.5,1702.5C 498.5,1709.17 498.5,1715.83 498.5,1722.5C 471.833,1722.5 445.167,1722.5 418.5,1722.5C 418.5,1715.83 418.5,1709.17 418.5,1702.5 Z"/></g>
<g><path style="opacity:1" fill="#000000" d="M 538.5,1702.5 C 565.167,1702.5 591.833,1702.5 618.5,1702.5C 618.5,1709.17 618.5,1715.83 618.5,1722.5C 591.833,1722.5 565.167,1722.5 538.5,1722.5C 538.5,1715.83 538.5,1709.17 538.5,1702.5 Z"/></g>
<g><path style="opacity:1" fill="#000000" d="M 658.5,1702.5 C 685.167,1702.5 711.833,1702.5 738.5,1702.5C 738.5,1709.17 738.5,1715.83 738.5,1722.5C 711.833,1722.5 685.167,1722.5 658.5,1722.5C 658.5,1715.83 658.5,1709.17 658.5,1702.5 Z"/></g>
<g><path style="opacity:1" fill="#000000" d="M 778.5,1702.5 C 805.167,1702.5 831.833,1702.5 858.5,1702.5C 858.5,1709.17 858.5,1715.83 858.5,1722.5C 831.833,1722.5 805.167,1722.5 778.5,1722.5C 778.5,1715.83 778.5,1709.17 778.5,1702.5 Z"/></g>
<g><path style="opacity:1" fill="#000000" d="M 898.5,1702.5 C 925.167,1702.5 951.833,1702.5 978.5,1702.5C 978.5,1709.17 978.5,1715.83 978.5,1722.5C 951.833,1722.5 925.167,1722.5 898.5,1722.5C 898.5,1715.83 898.5,1709.17 898.5,1702.5 Z"/></g>
<g><path style="opacity:1" fill="#000000" d="M 1498.5,1702.5 C 1525.17,1702.5 1551.83,1702.5 1578.5,1702.5C 1578.5,1709.17 1578.5,1715.83 1578.5,1722.5C 1551.83,1722.5 1525.17,1722.5 1498.5,1722.5C 1498.5,1715.83 1498.5,1709.17 1498.5,1702.5 Z"/></g>
<g><path style="opacity:1" fill="#000000" d="M 1618.5,1702.5 C 1645.17,1702.5 1671.83,1702.5 1698.5,1702.5C 1698.5,1709.17 1698.5,1715.83 1698.5,1722.5C 1671.83,1722.5 1645.17,1722.5 1618.5,1722.5C 1618.5,1715.83 1618.5,1709.17 1618.5,1702.5 Z"/></g>
<g><path style="opacity:1" fill="#000000" d="M 1738.5,1702.5 C 1765.17,1702.5 1791.83,1702.5 1818.5,1702.5C 1818.5,1709.17 1818.5,1715.83 1818.5,1722.5C 1791.83,1722.5 1765.17,1722.5 1738.5,1722.5C 1738.5,1715.83 1738.5,1709.17 1738.5,1702.5 Z"/></g>
<g><path style="opacity:1" fill="#000000" d="M 1858.5,1702.5 C 1885.17,1702.5 1911.83,1702.5 1938.5,1702.5C 1938.5,1709.17 1938.5,1715.83 1938.5,1722.5C 1911.83,1722.5 1885.17,1722.5 1858.5,1722.5C 1858.5,1715.83 1858.5,1709.17 1858.5,1702.5 Z"/></g>
<g><path style="opacity:1" fill="#000000" d="M 1978.5,1702.5 C 2005.17,1702.5 2031.83,1702.5 2058.5,1702.5C 2058.5,1709.17 2058.5,1715.83 2058.5,1722.5C 2031.83,1722.5 2005.17,1722.5 1978.5,1722.5C 1978.5,1715.83 1978.5,1709.17 1978.5,1702.5 Z"/></g>
<g><path style="opacity:1" fill="#000000" d="M 2098.5,1702.5 C 2125.17,1702.5 2151.83,1702.5 2178.5,1702.5C 2178.5,1709.17 2178.5,1715.83 2178.5,1722.5C 2151.83,1722.5 2125.17,1722.5 2098.5,1722.5C 2098.5,1715.83 2098.5,1709.17 2098.5,1702.5 Z"/></g>
<g><path style="opacity:1" fill="#000000" d="M 2218.5,1702.5 C 2245.17,1702.5 2271.83,1702.5 2298.5,1702.5C 2298.5,1709.17 2298.5,1715.83 2298.5,1722.5C 2271.83,1722.5 2245.17,1722.5 2218.5,1722.5C 2218.5,1715.83 2218.5,1709.17 2218.5,1702.5 Z"/></g>
<g><path style="opacity:1" fill="#000000" d="M 2338.5,1702.5 C 2365.17,1702.5 2391.83,1702.5 2418.5,1702.5C 2418.5,1709.17 2418.5,1715.83 2418.5,1722.5C 2391.83,1722.5 2365.17,1722.5 2338.5,1722.5C 2338.5,1715.83 2338.5,1709.17 2338.5,1702.5 Z"/></g>
<g><path style="opacity:1" fill="#a3a3a3" d="M 1175.5,1867.5 C 1379.17,1868.17 1582.83,1868.83 1786.5,1869.5C 1582.17,1869.67 1377.83,1869.5 1173.5,1869C 1174.04,1868.28 1174.71,1867.78 1175.5,1867.5 Z"/></g>
</svg>
