<?xml version="1.0" encoding="UTF-8"?>
<!DOCTYPE svg PUBLIC "-//W3C//DTD SVG 1.1//EN" "http://www.w3.org/Graphics/SVG/1.1/DTD/svg11.dtd">
<svg xmlns="http://www.w3.org/2000/svg" version="1.1" width="2598px" height="2598px" style="shape-rendering:geometricPrecision; text-rendering:geometricPrecision; image-rendering:optimizeQuality; fill-rule:evenodd; clip-rule:evenodd" xmlns:xlink="http://www.w3.org/1999/xlink">
<g><path style="opacity:1" fill="#fefffe" d="M -0.5,-0.5 C 865.5,-0.5 1731.5,-0.5 2597.5,-0.5C 2597.5,865.5 2597.5,1731.5 2597.5,2597.5C 1731.5,2597.5 865.5,2597.5 -0.5,2597.5C -0.5,1731.5 -0.5,865.5 -0.5,-0.5 Z"/></g>
<g><path style="opacity:1" fill="#000000" d="M 48.5,50.5 C 881.833,50.5 1715.17,50.5 2548.5,50.5C 2548.5,883.833 2548.5,1717.17 2548.5,2550.5C 1715.17,2550.5 881.833,2550.5 48.5,2550.5C 48.5,1717.17 48.5,883.833 48.5,50.5 Z"/></g>
<g><path style="opacity:1" fill="#fefefe" d="M 68.5,70.5 C 888.5,70.5 1708.5,70.5 2528.5,70.5C 2528.5,614.5 2528.5,1158.5 2528.5,1702.5C 2505.17,1702.5 2481.83,1702.5 2458.5,1702.5C 2458.5,1709.17 2458.5,1715.83 2458.5,1722.5C 2481.83,1722.5 2505.17,1722.5 2528.5,1722.5C 2528.5,1991.5 2528.5,2260.5 2528.5,2529.5C 1708.52,2530.6 888.524,2530.6 68.5,2529.5C 68.5,2260.5 68.5,1991.5 68.5,1722.5C 91.8333,1722.5 115.167,1722.5 138.5,1722.5C 138.5,1715.83 138.5,1709.17 138.5,1702.5C 115.167,1702.5 91.8333,1702.5 68.5,1702.5C 68.5,1434.17 68.5,1165.83 68.5,897.5C 83.5,897.5 98.5,897.5 113.5,897.5C 113.5,890.833 113.5,884.167 113.5,877.5C 98.5,877.5 83.5,877.5 68.5,877.5C 68.5,608.5 68.5,339.5 68.5,70.5 Z"/></g>
<g><path style="opacity:1" fill="#000000" d="M 1702.5,86.5 C 1709.17,86.5 1715.83,86.5 1722.5,86.5C 1722.5,113.167 1722.5,139.833 1722.5,166.5C 1715.83,166.5 1709.17,166.5 1702.5,166.5C 1702.5,139.833 1702.5,113.167 1702.5,86.5 Z"/></g>
<g><path style="opacity:1" fill="#000000" d="M 1702.5,206.5 C 1709.17,206.5 1715.83,206.5 1722.5,206.5C 1722.5,233.167 1722.5,259.833 1722.5,286.5C 1715.83,286.5 1709.17,286.5 1702.5,286.5C 1702.5,259.833 1702.5,233.167 1702.5,206.5 Z"/></g>
<g><path style="opacity:1" fill="#000000" d="M 1702.5,326.5 C 1709.17,326.5 1715.83,326.5 1722.5,326.5C 1722.5,353.167 1722.5,379.833 1722.5,406.5C 1715.83,406.5 1709.17,406.5 1702.5,406.5C 1702.5,379.833 1702.5,353.167 1702.5,326.5 Z"/></g>
<g><path style="opacity:1" fill="#000000" d="M 1202.5,396.5 C 1277.94,393.543 1351.94,402.377 1424.5,423C 1520.51,452.227 1600.68,505.06 1665,581.5C 1679.59,600.336 1691.93,620.669 1702,642.5C 1702.5,617.169 1702.67,591.836 1702.5,566.5C 1709.17,566.5 1715.83,566.5 1722.5,566.5C 1722.5,593.167 1722.5,619.833 1722.5,646.5C 1716.16,646.334 1709.82,646.5 1703.5,647C 1709.76,659.687 1714.76,672.854 1718.5,686.5C 1719.83,686.5 1721.17,686.5 1722.5,686.5C 1722.33,691.511 1722.5,696.511 1723,701.5C 1745.92,789.793 1744.92,877.793 1720,965.5C 1696.42,1037.06 1654.92,1095.9 1595.5,1142C 1571.99,1159.59 1547.32,1175.43 1521.5,1189.5C 1685.28,1245.81 1780.44,1359.81 1807,1531.5C 1812.84,1570.29 1815.51,1609.29 1815,1648.5C 1814.47,1666.56 1813.31,1684.56 1811.5,1702.5C 1813.83,1702.5 1816.17,1702.5 1818.5,1702.5C 1818.5,1709.17 1818.5,1715.83 1818.5,1722.5C 1815.22,1722.22 1812.06,1722.55 1809,1723.5C 1784.79,1879.86 1707.29,2001.7 1576.5,2089C 1505.95,2132.85 1429.29,2159.85 1346.5,2170C 1090,2203.59 888.17,2115.09 741,1904.5C 712.051,1857.34 717.884,1815.18 758.5,1778C 778.461,1760.68 801.128,1748.01 826.5,1740C 858.193,1732.8 886.527,1739.47 911.5,1760C 919,1766.17 925.833,1773 932,1780.5C 964.183,1823.02 1001.35,1860.52 1043.5,1893C 1152.31,1969.49 1268.98,1983.82 1393.5,1936C 1446.93,1912.24 1490.43,1876.4 1524,1828.5C 1546.7,1796.43 1563.53,1761.43 1574.5,1723.5C 1549.18,1722.5 1523.84,1722.17 1498.5,1722.5C 1498.5,1715.83 1498.5,1709.17 1498.5,1702.5C 1525.17,1702.5 1551.83,1702.5 1578.5,1702.5C 1578.35,1703.55 1578.52,1704.55 1579,1705.5C 1611.61,1563.3 1565.78,1455.13 1441.5,1381C 1385.41,1351.31 1325.57,1337.81 1262,1340.5C 1236.48,1340.65 1210.98,1341.48 1185.5,1343C 1130.93,1346.72 1076.43,1351.22 1022,1356.5C 960.119,1355.04 927.119,1323.37 923,1261.5C 918.563,1208.27 942.063,1174.44 993.5,1160C 1001.53,1158.46 1009.53,1156.79 1017.5,1155C 1078.53,1146.85 1139.53,1138.52 1200.5,1130C 1266.87,1118.77 1329.2,1096.43 1387.5,1063C 1433.8,1035.7 1468.64,997.863 1492,949.5C 1499.22,932.672 1504.72,915.339 1508.5,897.5C 1496.83,897.5 1485.17,897.5 1473.5,897.5C 1473.5,890.833 1473.5,884.167 1473.5,877.5C 1486.5,877.5 1499.5,877.5 1512.5,877.5C 1522.89,811.702 1507.39,753.035 1466,701.5C 1439.59,668.743 1406.75,644.91 1367.5,630C 1325.31,615.23 1281.81,608.064 1237,608.5C 1185.33,607.7 1135.83,617.533 1088.5,638C 1048.66,656.856 1016.49,684.689 992,721.5C 983.918,735.333 975.584,749 967,762.5C 932.747,809.031 887.58,824.531 831.5,809C 810.983,803.244 792.65,793.578 776.5,780C 757.522,759.961 750.022,736.127 754,708.5C 761.581,675.002 773.914,643.335 791,613.5C 827.749,551.364 877.582,502.531 940.5,467C 1009.07,429.214 1082.4,406.881 1160.5,400C 1174.66,398.899 1188.66,397.732 1202.5,396.5 Z"/></g>
<g><path style="opacity:1" fill="#000000" d="M 1702.5,446.5 C 1709.17,446.5 1715.83,446.5 1722.5,446.5C 1722.5,473.167 1722.5,499.833 1722.5,526.5C 1715.83,526.5 1709.17,526.5 1702.5,526.5C 1702.5,499.833 1702.5,473.167 1702.5,446.5 Z"/></g>
<g><path style="opacity:1" fill="#000000" d="M 153.5,877.5 C 180.167,877.5 206.833,877.5 233.5,877.5C 233.5,884.167 233.5,890.833 233.5,897.5C 206.833,897.5 180.167,897.5 153.5,897.5C 153.5,890.833 153.5,884.167 153.5,877.5 Z"/></g>
<g><path style="opacity:1" fill="#000000" d="M 273.5,877.5 C 300.167,877.5 326.833,877.5 353.5,877.5C 353.5,884.167 353.5,890.833 353.5,897.5C 326.833,897.5 300.167,897.5 273.5,897.5C 273.5,890.833 273.5,884.167 273.5,877.5 Z"/></g>
<g><path style="opacity:1" fill="#000000" d="M 393.5,877.5 C 420.167,877.5 446.833,877.5 473.5,877.5C 473.5,884.167 473.5,890.833 473.5,897.5C 446.833,897.5 420.167,897.5 393.5,897.5C 393.5,890.833 393.5,884.167 393.5,877.5 Z"/></g>
<g><path style="opacity:1" fill="#000000" d="M 513.5,877.5 C 540.167,877.5 566.833,877.5 593.5,877.5C 593.5,884.167 593.5,890.833 593.5,897.5C 566.833,897.5 540.167,897.5 513.5,897.5C 513.5,890.833 513.5,884.167 513.5,877.5 Z"/></g>
<g><path style="opacity:1" fill="#000000" d="M 633.5,877.5 C 660.167,877.5 686.833,877.5 713.5,877.5C 713.5,884.167 713.5,890.833 713.5,897.5C 686.833,897.5 660.167,897.5 633.5,897.5C 633.5,890.833 633.5,884.167 633.5,877.5 Z"/></g>
<g><path style="opacity:1" fill="#000000" d="M 753.5,877.5 C 780.167,877.5 806.833,877.5 833.5,877.5C 833.5,884.167 833.5,890.833 833.5,897.5C 806.833,897.5 780.167,897.5 753.5,897.5C 753.5,890.833 753.5,884.167 753.5,877.5 Z"/></g>
<g><path style="opacity:1" fill="#000000" d="M 873.5,877.5 C 900.167,877.5 926.833,877.5 953.5,877.5C 953.5,884.167 953.5,890.833 953.5,897.5C 926.833,897.5 900.167,897.5 873.5,897.5C 873.5,890.833 873.5,884.167 873.5,877.5 Z"/></g>
<g><path style="opacity:1" fill="#000000" d="M 993.5,877.5 C 1020.17,877.5 1046.83,877.5 1073.5,877.5C 1073.5,884.167 1073.5,890.833 1073.5,897.5C 1046.83,897.5 1020.17,897.5 993.5,897.5C 993.5,890.833 993.5,884.167 993.5,877.5 Z"/></g>
<g><path style="opacity:1" fill="#000000" d="M 1113.5,877.5 C 1140.17,877.5 1166.83,877.5 1193.5,877.5C 1193.5,884.167 1193.5,890.833 1193.5,897.5C 1166.83,897.5 1140.17,897.5 1113.5,897.5C 1113.5,890.833 1113.5,884.167 1113.5,877.5 Z"/></g>
<g><path style="opacity:1" fill="#000000" d="M 1233.5,877.5 C 1260.17,877.5 1286.83,877.5 1313.5,877.5C 1313.5,884.167 1313.5,890.833 1313.5,897.5C 1286.83,897.5 1260.17,897.5 1233.5,897.5C 1233.5,890.833 1233.5,884.167 1233.5,877.5 Z"/></g>
<g><path style="opacity:1" fill="#000000" d="M 1353.5,877.5 C 1380.17,877.5 1406.83,877.5 1433.5,877.5C 1433.5,884.167 1433.5,890.833 1433.5,897.5C 1406.83,897.5 1380.17,897.5 1353.5,897.5C 1353.5,890.833 1353.5,884.167 1353.5,877.5 Z"/></g>
<g><path style="opacity:1" fill="#000000" d="M 178.5,1702.5 C 205.167,1702.5 231.833,1702.5 258.5,1702.5C 258.5,1709.17 258.5,1715.83 258.5,1722.5C 231.833,1722.5 205.167,1722.5 178.5,1722.5C 178.5,1715.83 178.5,1709.17 178.5,1702.5 Z"/></g>
<g><path style="opacity:1" fill="#000000" d="M 298.5,1702.5 C 325.167,1702.5 351.833,1702.5 378.5,1702.5C 378.5,1709.17 378.5,1715.83 378.5,1722.5C 351.833,1722.5 325.167,1722.5 298.5,1722.5C 298.5,1715.83 298.5,1709.17 298.5,1702.5 Z"/></g>
<g><path style="opacity:1" fill="#000000" d="M 418.5,1702.5 C 445.167,1702.5 471.833,1702.5 498.5,1702.5C 498.5,1709.17 498.5,1715.83 498.5,1722.5C 471.833,1722.5 445.167,1722.5 418.5,1722.5C 418.5,1715.83 418.5,1709.17 418.5,1702.5 Z"/></g>
<g><path style="opacity:1" fill="#000000" d="M 538.5,1702.5 C 565.167,1702.5 591.833,1702.5 618.5,1702.5C 618.5,1709.17 618.5,1715.83 618.5,1722.5C 591.833,1722.5 565.167,1722.5 538.5,1722.5C 538.5,1715.83 538.5,1709.17 538.5,1702.5 Z"/></g>
<g><path style="opacity:1" fill="#000000" d="M 658.5,1702.5 C 685.167,1702.5 711.833,1702.5 738.5,1702.5C 738.5,1709.17 738.5,1715.83 738.5,1722.5C 711.833,1722.5 685.167,1722.5 658.5,1722.5C 658.5,1715.83 658.5,1709.17 658.5,1702.5 Z"/></g>
<g><path style="opacity:1" fill="#000000" d="M 778.5,1702.5 C 805.167,1702.5 831.833,1702.5 858.5,1702.5C 858.5,1709.17 858.5,1715.83 858.5,1722.5C 831.833,1722.5 805.167,1722.5 778.5,1722.5C 778.5,1715.83 778.5,1709.17 778.5,1702.5 Z"/></g>
<g><path style="opacity:1" fill="#000000" d="M 898.5,1702.5 C 925.167,1702.5 951.833,1702.5 978.5,1702.5C 978.5,1709.17 978.5,1715.83 978.5,1722.5C 951.833,1722.5 925.167,1722.5 898.5,1722.5C 898.5,1715.83 898.5,1709.17 898.5,1702.5 Z"/></g>
<g><path style="opacity:1" fill="#000000" d="M 1018.5,1702.5 C 1045.17,1702.5 1071.83,1702.5 1098.5,1702.5C 1098.5,1709.17 1098.5,1715.83 1098.5,1722.5C 1071.83,1722.5 1045.17,1722.5 1018.5,1722.5C 1018.5,1715.83 1018.5,1709.17 1018.5,1702.5 Z"/></g>
<g><path style="opacity:1" fill="#000000" d="M 1138.5,1702.5 C 1165.17,1702.5 1191.83,1702.5 1218.5,1702.5C 1218.5,1709.17 1218.5,1715.83 1218.5,1722.5C 1191.83,1722.5 1165.17,1722.5 1138.5,1722.5C 1138.5,1715.83 1138.5,1709.17 1138.5,1702.5 Z"/></g>
<g><path style="opacity:1" fill="#000000" d="M 1258.5,1702.5 C 1285.17,1702.5 1311.83,1702.5 1338.5,1702.5C 1338.5,1709.17 1338.5,1715.83 1338.5,1722.5C 1311.83,1722.5 1285.17,1722.5 1258.5,1722.5C 1258.5,1715.83 1258.5,1709.17 1258.5,1702.5 Z"/></g>
<g><path style="opacity:1" fill="#000000" d="M 1378.5,1702.5 C 1405.17,1702.5 1431.83,1702.5 1458.5,1702.5C 1458.5,1709.17 1458.5,1715.83 1458.5,1722.5C 1431.83,1722.5 1405.17,1722.5 1378.5,1722.5C 1378.5,1715.83 1378.5,1709.17 1378.5,1702.5 Z"/></g>
<g><path style="opacity:1" fill="#000000" d="M 1858.5,1702.5 C 1885.17,1702.5 1911.83,1702.5 1938.5,1702.5C 1938.5,1709.17 1938.5,1715.83 1938.5,1722.5C 1911.83,1722.5 1885.17,1722.5 1858.5,1722.5C 1858.5,1715.83 1858.5,1709.17 1858.5,1702.5 Z"/></g>
<g><path style="opacity:1" fill="#000000" d="M 1978.5,1702.5 C 2005.17,1702.5 2031.83,1702.5 2058.5,1702.5C 2058.5,1709.17 2058.5,1715.83 2058.5,1722.5C 2031.83,1722.5 2005.17,1722.5 1978.5,1722.5C 1978.5,1715.83 1978.5,1709.17 1978.5,1702.5 Z"/></g>
<g><path style="opacity:1" fill="#000000" d="M 2098.5,1702.5 C 2125.17,1702.5 2151.83,1702.5 2178.5,1702.5C 2178.5,1709.17 2178.5,1715.83 2178.5,1722.5C 2151.83,1722.5 2125.17,1722.5 2098.5,1722.5C 2098.5,1715.83 2098.5,1709.17 2098.5,1702.5 Z"/></g>
<g><path style="opacity:1" fill="#000000" d="M 2218.5,1702.5 C 2245.17,1702.5 2271.83,1702.5 2298.5,1702.5C 2298.5,1709.17 2298.5,1715.83 2298.5,1722.5C 2271.83,1722.5 2245.17,1722.5 2218.5,1722.5C 2218.5,1715.83 2218.5,1709.17 2218.5,1702.5 Z"/></g>
<g><path style="opacity:1" fill="#000000" d="M 2338.5,1702.5 C 2365.17,1702.5 2391.83,1702.5 2418.5,1702.5C 2418.5,1709.17 2418.5,1715.83 2418.5,1722.5C 2391.83,1722.5 2365.17,1722.5 2338.5,1722.5C 2338.5,1715.83 2338.5,1709.17 2338.5,1702.5 Z"/></g>
</svg>
