<?xml version="1.0" encoding="UTF-8"?>
<!DOCTYPE svg PUBLIC "-//W3C//DTD SVG 1.1//EN" "http://www.w3.org/Graphics/SVG/1.1/DTD/svg11.dtd">
<svg xmlns="http://www.w3.org/2000/svg" version="1.1" width="2598px" height="2598px" style="shape-rendering:geometricPrecision; text-rendering:geometricPrecision; image-rendering:optimizeQuality; fill-rule:evenodd; clip-rule:evenodd" xmlns:xlink="http://www.w3.org/1999/xlink">
<g><path style="opacity:1" fill="#fefffe" d="M -0.5,-0.5 C 865.5,-0.5 1731.5,-0.5 2597.5,-0.5C 2597.5,865.5 2597.5,1731.5 2597.5,2597.5C 1731.5,2597.5 865.5,2597.5 -0.5,2597.5C -0.5,1731.5 -0.5,865.5 -0.5,-0.5 Z"/></g>
<g><path style="opacity:1" fill="#000000" d="M 48.5,50.5 C 881.833,50.5 1715.17,50.5 2548.5,50.5C 2548.5,883.833 2548.5,1717.17 2548.5,2550.5C 1715.17,2550.5 881.833,2550.5 48.5,2550.5C 48.5,1717.17 48.5,883.833 48.5,50.5 Z"/></g>
<g><path style="opacity:1" fill="#fefefe" d="M 68.5,70.5 C 888.5,70.5 1708.5,70.5 2528.5,70.5C 2528.5,614.5 2528.5,1158.5 2528.5,1702.5C 2505.17,1702.5 2481.83,1702.5 2458.5,1702.5C 2458.5,1709.17 2458.5,1715.83 2458.5,1722.5C 2481.83,1722.5 2505.17,1722.5 2528.5,1722.5C 2528.5,1991.5 2528.5,2260.5 2528.5,2529.5C 1708.52,2530.6 888.524,2530.6 68.5,2529.5C 68.5,2260.5 68.5,1991.5 68.5,1722.5C 91.8333,1722.5 115.167,1722.5 138.5,1722.5C 138.5,1715.83 138.5,1709.17 138.5,1702.5C 115.167,1702.5 91.8333,1702.5 68.5,1702.5C 68.5,1434.17 68.5,1165.83 68.5,897.5C 83.5,897.5 98.5,897.5 113.5,897.5C 113.5,890.833 113.5,884.167 113.5,877.5C 98.5,877.5 83.5,877.5 68.5,877.5C 68.5,608.5 68.5,339.5 68.5,70.5 Z"/></g>
<g><path style="opacity:1" fill="#000000" d="M 1702.5,86.5 C 1709.17,86.5 1715.83,86.5 1722.5,86.5C 1722.5,113.167 1722.5,139.833 1722.5,166.5C 1715.83,166.5 1709.17,166.5 1702.5,166.5C 1702.5,139.833 1702.5,113.167 1702.5,86.5 Z"/></g>
<g><path style="opacity:1" fill="#000000" d="M 1702.5,206.5 C 1709.17,206.5 1715.83,206.5 1722.5,206.5C 1722.5,233.167 1722.5,259.833 1722.5,286.5C 1715.83,286.5 1709.17,286.5 1702.5,286.5C 1702.5,259.833 1702.5,233.167 1702.5,206.5 Z"/></g>
<g><path style="opacity:1" fill="#000000" d="M 1702.5,326.5 C 1709.17,326.5 1715.83,326.5 1722.5,326.5C 1722.5,353.167 1722.5,379.833 1722.5,406.5C 1715.83,406.5 1709.17,406.5 1702.5,406.5C 1702.5,379.833 1702.5,353.167 1702.5,326.5 Z"/></g>
<g><path style="opacity:1" fill="#000000" d="M 1658.5,897.5 C 1657.5,1112.33 1657.17,1327.33 1657.5,1542.5C 1660.17,1542.5 1662.83,1542.5 1665.5,1542.5C 1731.83,1543.5 1798.17,1544.67 1864.5,1546C 1940.65,1549.15 1976.49,1588.65 1972,1664.5C 1967.04,1721.79 1935.87,1752.62 1878.5,1757C 1868.33,1757.17 1858.17,1757.33 1848,1757.5C 1784.49,1756.02 1720.99,1754.36 1657.5,1752.5C 1657.67,1849.17 1657.5,1945.83 1657,2042.5C 1656.68,2068.44 1649.35,2092.11 1635,2113.5C 1614.85,2135.65 1589.68,2147.15 1559.5,2148C 1529.09,2151.56 1500.43,2146.23 1473.5,2132C 1454.25,2119.04 1441.75,2101.2 1436,2078.5C 1433.09,2065.98 1431.26,2053.32 1430.5,2040.5C 1430.5,1944.17 1430.5,1847.83 1430.5,1751.5C 1423.83,1751.5 1417.17,1751.5 1410.5,1751.5C 1184.5,1745.63 958.503,1739.8 732.5,1734C 715.979,1732.5 699.979,1728.83 684.5,1723C 675.84,1722.5 667.173,1722.33 658.5,1722.5C 658.666,1717.49 658.499,1712.49 658,1707.5C 640.546,1691.95 629.212,1672.62 624,1649.5C 617.21,1621.22 619.877,1593.89 632,1567.5C 636.158,1558.51 640.825,1549.85 646,1541.5C 901.319,1179.86 1156.99,818.526 1413,457.5C 1465.54,397.935 1527.37,386.101 1598.5,422C 1625.05,438.231 1642.55,461.397 1651,491.5C 1654.19,504.331 1656.19,517.331 1657,530.5C 1657.5,646.166 1657.67,761.833 1657.5,877.5C 1662.83,877.5 1668.17,877.5 1673.5,877.5C 1673.5,884.167 1673.5,890.833 1673.5,897.5C 1668.5,897.5 1663.5,897.5 1658.5,897.5 Z"/></g>
<g><path style="opacity:1" fill="#000000" d="M 1702.5,446.5 C 1709.17,446.5 1715.83,446.5 1722.5,446.5C 1722.5,473.167 1722.5,499.833 1722.5,526.5C 1715.83,526.5 1709.17,526.5 1702.5,526.5C 1702.5,499.833 1702.5,473.167 1702.5,446.5 Z"/></g>
<g><path style="opacity:1" fill="#000000" d="M 1702.5,566.5 C 1709.17,566.5 1715.83,566.5 1722.5,566.5C 1722.5,593.167 1722.5,619.833 1722.5,646.5C 1715.83,646.5 1709.17,646.5 1702.5,646.5C 1702.5,619.833 1702.5,593.167 1702.5,566.5 Z"/></g>
<g><path style="opacity:1" fill="#000000" d="M 1702.5,686.5 C 1709.17,686.5 1715.83,686.5 1722.5,686.5C 1722.5,713.167 1722.5,739.833 1722.5,766.5C 1715.83,766.5 1709.17,766.5 1702.5,766.5C 1702.5,739.833 1702.5,713.167 1702.5,686.5 Z"/></g>
<g><path style="opacity:1" fill="#bbbbbb" d="M 1428.5,762.5 C 1428.56,761.957 1428.89,761.624 1429.5,761.5C 1430.83,800.331 1430.83,838.998 1429.5,877.5C 1429.83,838.996 1429.5,800.663 1428.5,762.5 Z"/></g>
<g><path style="opacity:1" fill="#fefefe" d="M 1428.5,762.5 C 1429.5,800.663 1429.83,838.996 1429.5,877.5C 1404.17,877.5 1378.83,877.5 1353.5,877.5C 1353.5,884.167 1353.5,890.833 1353.5,897.5C 1379.17,897.5 1404.83,897.5 1430.5,897.5C 1430.5,1110.5 1430.5,1323.5 1430.5,1536.5C 1257.47,1532.37 1084.47,1527.37 911.5,1521.5C 1083.6,1268.3 1255.93,1015.3 1428.5,762.5 Z"/></g>
<g><path style="opacity:1" fill="#000000" d="M 1702.5,806.5 C 1709.17,806.5 1715.83,806.5 1722.5,806.5C 1722.5,833.167 1722.5,859.833 1722.5,886.5C 1715.83,886.5 1709.17,886.5 1702.5,886.5C 1702.5,859.833 1702.5,833.167 1702.5,806.5 Z"/></g>
<g><path style="opacity:1" fill="#000000" d="M 153.5,877.5 C 180.167,877.5 206.833,877.5 233.5,877.5C 233.5,884.167 233.5,890.833 233.5,897.5C 206.833,897.5 180.167,897.5 153.5,897.5C 153.5,890.833 153.5,884.167 153.5,877.5 Z"/></g>
<g><path style="opacity:1" fill="#000000" d="M 273.5,877.5 C 300.167,877.5 326.833,877.5 353.5,877.5C 353.5,884.167 353.5,890.833 353.5,897.5C 326.833,897.5 300.167,897.5 273.5,897.5C 273.5,890.833 273.5,884.167 273.5,877.5 Z"/></g>
<g><path style="opacity:1" fill="#000000" d="M 393.5,877.5 C 420.167,877.5 446.833,877.5 473.5,877.5C 473.5,884.167 473.5,890.833 473.5,897.5C 446.833,897.5 420.167,897.5 393.5,897.5C 393.5,890.833 393.5,884.167 393.5,877.5 Z"/></g>
<g><path style="opacity:1" fill="#000000" d="M 513.5,877.5 C 540.167,877.5 566.833,877.5 593.5,877.5C 593.5,884.167 593.5,890.833 593.5,897.5C 566.833,897.5 540.167,897.5 513.5,897.5C 513.5,890.833 513.5,884.167 513.5,877.5 Z"/></g>
<g><path style="opacity:1" fill="#000000" d="M 633.5,877.5 C 660.167,877.5 686.833,877.5 713.5,877.5C 713.5,884.167 713.5,890.833 713.5,897.5C 686.833,897.5 660.167,897.5 633.5,897.5C 633.5,890.833 633.5,884.167 633.5,877.5 Z"/></g>
<g><path style="opacity:1" fill="#000000" d="M 753.5,877.5 C 780.167,877.5 806.833,877.5 833.5,877.5C 833.5,884.167 833.5,890.833 833.5,897.5C 806.833,897.5 780.167,897.5 753.5,897.5C 753.5,890.833 753.5,884.167 753.5,877.5 Z"/></g>
<g><path style="opacity:1" fill="#000000" d="M 873.5,877.5 C 900.167,877.5 926.833,877.5 953.5,877.5C 953.5,884.167 953.5,890.833 953.5,897.5C 926.833,897.5 900.167,897.5 873.5,897.5C 873.5,890.833 873.5,884.167 873.5,877.5 Z"/></g>
<g><path style="opacity:1" fill="#000000" d="M 993.5,877.5 C 1020.17,877.5 1046.83,877.5 1073.5,877.5C 1073.5,884.167 1073.5,890.833 1073.5,897.5C 1046.83,897.5 1020.17,897.5 993.5,897.5C 993.5,890.833 993.5,884.167 993.5,877.5 Z"/></g>
<g><path style="opacity:1" fill="#dfdfdf" d="M 1658.5,897.5 C 1658.5,1112.17 1658.5,1326.83 1658.5,1541.5C 1661.06,1541.2 1663.39,1541.53 1665.5,1542.5C 1662.83,1542.5 1660.17,1542.5 1657.5,1542.5C 1657.17,1327.33 1657.5,1112.33 1658.5,897.5 Z"/></g>
<g><path style="opacity:1" fill="#000000" d="M 178.5,1702.5 C 205.167,1702.5 231.833,1702.5 258.5,1702.5C 258.5,1709.17 258.5,1715.83 258.5,1722.5C 231.833,1722.5 205.167,1722.5 178.5,1722.5C 178.5,1715.83 178.5,1709.17 178.5,1702.5 Z"/></g>
<g><path style="opacity:1" fill="#000000" d="M 298.5,1702.5 C 325.167,1702.5 351.833,1702.5 378.5,1702.5C 378.5,1709.17 378.5,1715.83 378.5,1722.5C 351.833,1722.5 325.167,1722.5 298.5,1722.5C 298.5,1715.83 298.5,1709.17 298.5,1702.5 Z"/></g>
<g><path style="opacity:1" fill="#000000" d="M 418.5,1702.5 C 445.167,1702.5 471.833,1702.5 498.5,1702.5C 498.5,1709.17 498.5,1715.83 498.5,1722.5C 471.833,1722.5 445.167,1722.5 418.5,1722.5C 418.5,1715.83 418.5,1709.17 418.5,1702.5 Z"/></g>
<g><path style="opacity:1" fill="#000000" d="M 538.5,1702.5 C 565.167,1702.5 591.833,1702.5 618.5,1702.5C 618.5,1709.17 618.5,1715.83 618.5,1722.5C 591.833,1722.5 565.167,1722.5 538.5,1722.5C 538.5,1715.83 538.5,1709.17 538.5,1702.5 Z"/></g>
<g><path style="opacity:1" fill="#000000" d="M 1978.5,1702.5 C 2005.17,1702.5 2031.83,1702.5 2058.5,1702.5C 2058.5,1709.17 2058.5,1715.83 2058.5,1722.5C 2031.83,1722.5 2005.17,1722.5 1978.5,1722.5C 1978.5,1715.83 1978.5,1709.17 1978.5,1702.5 Z"/></g>
<g><path style="opacity:1" fill="#000000" d="M 2098.5,1702.5 C 2125.17,1702.5 2151.83,1702.5 2178.5,1702.5C 2178.5,1709.17 2178.5,1715.83 2178.5,1722.5C 2151.83,1722.5 2125.17,1722.5 2098.5,1722.5C 2098.5,1715.83 2098.5,1709.17 2098.5,1702.5 Z"/></g>
<g><path style="opacity:1" fill="#000000" d="M 2218.5,1702.5 C 2245.17,1702.5 2271.83,1702.5 2298.5,1702.5C 2298.5,1709.17 2298.5,1715.83 2298.5,1722.5C 2271.83,1722.5 2245.17,1722.5 2218.5,1722.5C 2218.5,1715.83 2218.5,1709.17 2218.5,1702.5 Z"/></g>
<g><path style="opacity:1" fill="#000000" d="M 2338.5,1702.5 C 2365.17,1702.5 2391.83,1702.5 2418.5,1702.5C 2418.5,1709.17 2418.5,1715.83 2418.5,1722.5C 2391.83,1722.5 2365.17,1722.5 2338.5,1722.5C 2338.5,1715.83 2338.5,1709.17 2338.5,1702.5 Z"/></g>
<g><path style="opacity:1" fill="#b8b8b8" d="M 1410.5,1751.5 C 1417.17,1751.5 1423.83,1751.5 1430.5,1751.5C 1430.5,1847.83 1430.5,1944.17 1430.5,2040.5C 1429.5,1944.67 1429.17,1848.67 1429.5,1752.5C 1422.98,1752.82 1416.64,1752.49 1410.5,1751.5 Z"/></g>
</svg>
