<?xml version="1.0" encoding="UTF-8"?>
<!DOCTYPE svg PUBLIC "-//W3C//DTD SVG 1.1//EN" "http://www.w3.org/Graphics/SVG/1.1/DTD/svg11.dtd">
<svg xmlns="http://www.w3.org/2000/svg" version="1.1" width="2598px" height="2598px" style="shape-rendering:geometricPrecision; text-rendering:geometricPrecision; image-rendering:optimizeQuality; fill-rule:evenodd; clip-rule:evenodd" xmlns:xlink="http://www.w3.org/1999/xlink">
<g><path style="opacity:1" fill="#fefffe" d="M -0.5,-0.5 C 865.5,-0.5 1731.5,-0.5 2597.5,-0.5C 2597.5,865.5 2597.5,1731.5 2597.5,2597.5C 1731.5,2597.5 865.5,2597.5 -0.5,2597.5C -0.5,1731.5 -0.5,865.5 -0.5,-0.5 Z"/></g>
<g><path style="opacity:1" fill="#000000" d="M 48.5,50.5 C 881.833,50.5 1715.17,50.5 2548.5,50.5C 2548.5,883.833 2548.5,1717.17 2548.5,2550.5C 1715.17,2550.5 881.833,2550.5 48.5,2550.5C 48.5,1717.17 48.5,883.833 48.5,50.5 Z"/></g>
<g><path style="opacity:1" fill="#fefefe" d="M 68.5,70.5 C 888.5,70.5 1708.5,70.5 2528.5,70.5C 2528.5,614.5 2528.5,1158.5 2528.5,1702.5C 2505.17,1702.5 2481.83,1702.5 2458.5,1702.5C 2458.5,1709.17 2458.5,1715.83 2458.5,1722.5C 2481.83,1722.5 2505.17,1722.5 2528.5,1722.5C 2528.5,1991.5 2528.5,2260.5 2528.5,2529.5C 1708.52,2530.6 888.524,2530.6 68.5,2529.5C 68.5,2260.5 68.5,1991.5 68.5,1722.5C 91.8333,1722.5 115.167,1722.5 138.5,1722.5C 138.5,1715.83 138.5,1709.17 138.5,1702.5C 115.167,1702.5 91.8333,1702.5 68.5,1702.5C 68.5,1434.17 68.5,1165.83 68.5,897.5C 83.5,897.5 98.5,897.5 113.5,897.5C 113.5,890.833 113.5,884.167 113.5,877.5C 98.5,877.5 83.5,877.5 68.5,877.5C 68.5,608.5 68.5,339.5 68.5,70.5 Z"/></g>
<g><path style="opacity:1" fill="#000000" d="M 1702.5,86.5 C 1709.17,86.5 1715.83,86.5 1722.5,86.5C 1722.5,113.167 1722.5,139.833 1722.5,166.5C 1715.83,166.5 1709.17,166.5 1702.5,166.5C 1702.5,139.833 1702.5,113.167 1702.5,86.5 Z"/></g>
<g><path style="opacity:1" fill="#000000" d="M 1702.5,206.5 C 1709.17,206.5 1715.83,206.5 1722.5,206.5C 1722.5,233.167 1722.5,259.833 1722.5,286.5C 1715.83,286.5 1709.17,286.5 1702.5,286.5C 1702.5,259.833 1702.5,233.167 1702.5,206.5 Z"/></g>
<g><path style="opacity:1" fill="#000000" d="M 1277.5,319.5 C 1353.89,315.272 1428.89,323.438 1502.5,344C 1577.92,366.879 1644.42,404.712 1702,457.5C 1702.5,453.848 1702.67,450.182 1702.5,446.5C 1709.17,446.5 1715.83,446.5 1722.5,446.5C 1722.33,456.839 1722.5,467.172 1723,477.5C 1793.25,553.373 1828.09,643.373 1827.5,747.5C 1825.64,866.251 1790.14,973.585 1721,1069.5C 1675.08,1132.43 1621.58,1188.26 1560.5,1237C 1531.75,1264.32 1510.91,1296.82 1498,1334.5C 1480.35,1389.42 1471.01,1445.76 1470,1503.5C 1469.6,1534.17 1469.6,1564.84 1470,1595.5C 1467.47,1648.03 1440.3,1678.53 1388.5,1687C 1366.54,1689.86 1344.54,1690.19 1322.5,1688C 1281.55,1681.38 1256.38,1657.88 1247,1617.5C 1244.32,1602.28 1242.65,1586.95 1242,1571.5C 1236.67,1488.62 1242.67,1406.62 1260,1325.5C 1273.91,1268.01 1299.25,1216.34 1336,1170.5C 1356.04,1146.91 1377.54,1124.75 1400.5,1104C 1450,1066.5 1493.5,1023 1531,973.5C 1576.74,911.615 1600.57,842.115 1602.5,765C 1600.29,665.839 1553.95,596.506 1463.5,557C 1425.97,542.026 1386.97,533.693 1346.5,532C 1290.47,528.836 1235.47,534.836 1181.5,550C 1108.37,572.8 1057.2,619.633 1028,690.5C 1011.84,731.461 1000.84,773.794 995,817.5C 990.677,840.515 981.011,860.848 966,878.5C 962,881.833 958,885.167 954,888.5C 953.502,891.482 953.335,894.482 953.5,897.5C 947.824,897.334 942.157,897.501 936.5,898C 920.915,904.014 904.748,906.848 888,906.5C 869.061,906.461 850.561,903.628 832.5,898C 806.169,897.5 779.835,897.333 753.5,897.5C 753.5,890.833 753.5,884.167 753.5,877.5C 767.837,877.667 782.171,877.5 796.5,877C 778.983,858.809 769.816,836.976 769,811.5C 771.462,726.318 791.796,645.651 830,569.5C 881.162,474.676 956.662,406.842 1056.5,366C 1108.38,345.612 1162.05,331.945 1217.5,325C 1237.66,323.303 1257.66,321.47 1277.5,319.5 Z"/></g>
<g><path style="opacity:1" fill="#000000" d="M 1702.5,326.5 C 1709.17,326.5 1715.83,326.5 1722.5,326.5C 1722.5,353.167 1722.5,379.833 1722.5,406.5C 1715.83,406.5 1709.17,406.5 1702.5,406.5C 1702.5,379.833 1702.5,353.167 1702.5,326.5 Z"/></g>
<g><path style="opacity:1" fill="#000000" d="M 153.5,877.5 C 180.167,877.5 206.833,877.5 233.5,877.5C 233.5,884.167 233.5,890.833 233.5,897.5C 206.833,897.5 180.167,897.5 153.5,897.5C 153.5,890.833 153.5,884.167 153.5,877.5 Z"/></g>
<g><path style="opacity:1" fill="#000000" d="M 273.5,877.5 C 300.167,877.5 326.833,877.5 353.5,877.5C 353.5,884.167 353.5,890.833 353.5,897.5C 326.833,897.5 300.167,897.5 273.5,897.5C 273.5,890.833 273.5,884.167 273.5,877.5 Z"/></g>
<g><path style="opacity:1" fill="#000000" d="M 393.5,877.5 C 420.167,877.5 446.833,877.5 473.5,877.5C 473.5,884.167 473.5,890.833 473.5,897.5C 446.833,897.5 420.167,897.5 393.5,897.5C 393.5,890.833 393.5,884.167 393.5,877.5 Z"/></g>
<g><path style="opacity:1" fill="#000000" d="M 513.5,877.5 C 540.167,877.5 566.833,877.5 593.5,877.5C 593.5,884.167 593.5,890.833 593.5,897.5C 566.833,897.5 540.167,897.5 513.5,897.5C 513.5,890.833 513.5,884.167 513.5,877.5 Z"/></g>
<g><path style="opacity:1" fill="#000000" d="M 633.5,877.5 C 660.167,877.5 686.833,877.5 713.5,877.5C 713.5,884.167 713.5,890.833 713.5,897.5C 686.833,897.5 660.167,897.5 633.5,897.5C 633.5,890.833 633.5,884.167 633.5,877.5 Z"/></g>
<g><path style="opacity:1" fill="#000000" d="M 993.5,877.5 C 1020.17,877.5 1046.83,877.5 1073.5,877.5C 1073.5,884.167 1073.5,890.833 1073.5,897.5C 1046.83,897.5 1020.17,897.5 993.5,897.5C 993.5,890.833 993.5,884.167 993.5,877.5 Z"/></g>
<g><path style="opacity:1" fill="#000000" d="M 1113.5,877.5 C 1140.17,877.5 1166.83,877.5 1193.5,877.5C 1193.5,884.167 1193.5,890.833 1193.5,897.5C 1166.83,897.5 1140.17,897.5 1113.5,897.5C 1113.5,890.833 1113.5,884.167 1113.5,877.5 Z"/></g>
<g><path style="opacity:1" fill="#000000" d="M 1233.5,877.5 C 1260.17,877.5 1286.83,877.5 1313.5,877.5C 1313.5,884.167 1313.5,890.833 1313.5,897.5C 1286.83,897.5 1260.17,897.5 1233.5,897.5C 1233.5,890.833 1233.5,884.167 1233.5,877.5 Z"/></g>
<g><path style="opacity:1" fill="#000000" d="M 1353.5,877.5 C 1380.17,877.5 1406.83,877.5 1433.5,877.5C 1433.5,884.167 1433.5,890.833 1433.5,897.5C 1406.83,897.5 1380.17,897.5 1353.5,897.5C 1353.5,890.833 1353.5,884.167 1353.5,877.5 Z"/></g>
<g><path style="opacity:1" fill="#000000" d="M 1473.5,877.5 C 1500.17,877.5 1526.83,877.5 1553.5,877.5C 1553.5,884.167 1553.5,890.833 1553.5,897.5C 1526.83,897.5 1500.17,897.5 1473.5,897.5C 1473.5,890.833 1473.5,884.167 1473.5,877.5 Z"/></g>
<g><path style="opacity:1" fill="#000000" d="M 178.5,1702.5 C 205.167,1702.5 231.833,1702.5 258.5,1702.5C 258.5,1709.17 258.5,1715.83 258.5,1722.5C 231.833,1722.5 205.167,1722.5 178.5,1722.5C 178.5,1715.83 178.5,1709.17 178.5,1702.5 Z"/></g>
<g><path style="opacity:1" fill="#000000" d="M 298.5,1702.5 C 325.167,1702.5 351.833,1702.5 378.5,1702.5C 378.5,1709.17 378.5,1715.83 378.5,1722.5C 351.833,1722.5 325.167,1722.5 298.5,1722.5C 298.5,1715.83 298.5,1709.17 298.5,1702.5 Z"/></g>
<g><path style="opacity:1" fill="#000000" d="M 418.5,1702.5 C 445.167,1702.5 471.833,1702.5 498.5,1702.5C 498.5,1709.17 498.5,1715.83 498.5,1722.5C 471.833,1722.5 445.167,1722.5 418.5,1722.5C 418.5,1715.83 418.5,1709.17 418.5,1702.5 Z"/></g>
<g><path style="opacity:1" fill="#000000" d="M 538.5,1702.5 C 565.167,1702.5 591.833,1702.5 618.5,1702.5C 618.5,1709.17 618.5,1715.83 618.5,1722.5C 591.833,1722.5 565.167,1722.5 538.5,1722.5C 538.5,1715.83 538.5,1709.17 538.5,1702.5 Z"/></g>
<g><path style="opacity:1" fill="#000000" d="M 658.5,1702.5 C 685.167,1702.5 711.833,1702.5 738.5,1702.5C 738.5,1709.17 738.5,1715.83 738.5,1722.5C 711.833,1722.5 685.167,1722.5 658.5,1722.5C 658.5,1715.83 658.5,1709.17 658.5,1702.5 Z"/></g>
<g><path style="opacity:1" fill="#000000" d="M 778.5,1702.5 C 805.167,1702.5 831.833,1702.5 858.5,1702.5C 858.5,1709.17 858.5,1715.83 858.5,1722.5C 831.833,1722.5 805.167,1722.5 778.5,1722.5C 778.5,1715.83 778.5,1709.17 778.5,1702.5 Z"/></g>
<g><path style="opacity:1" fill="#000000" d="M 898.5,1702.5 C 925.167,1702.5 951.833,1702.5 978.5,1702.5C 978.5,1709.17 978.5,1715.83 978.5,1722.5C 951.833,1722.5 925.167,1722.5 898.5,1722.5C 898.5,1715.83 898.5,1709.17 898.5,1702.5 Z"/></g>
<g><path style="opacity:1" fill="#000000" d="M 1018.5,1702.5 C 1045.17,1702.5 1071.83,1702.5 1098.5,1702.5C 1098.5,1709.17 1098.5,1715.83 1098.5,1722.5C 1071.83,1722.5 1045.17,1722.5 1018.5,1722.5C 1018.5,1715.83 1018.5,1709.17 1018.5,1702.5 Z"/></g>
<g><path style="opacity:1" fill="#000000" d="M 1138.5,1702.5 C 1165.17,1702.5 1191.83,1702.5 1218.5,1702.5C 1218.5,1709.17 1218.5,1715.83 1218.5,1722.5C 1191.83,1722.5 1165.17,1722.5 1138.5,1722.5C 1138.5,1715.83 1138.5,1709.17 1138.5,1702.5 Z"/></g>
<g><path style="opacity:1" fill="#000000" d="M 1258.5,1702.5 C 1285.17,1702.5 1311.83,1702.5 1338.5,1702.5C 1338.5,1709.17 1338.5,1715.83 1338.5,1722.5C 1311.83,1722.5 1285.17,1722.5 1258.5,1722.5C 1258.5,1715.83 1258.5,1709.17 1258.5,1702.5 Z"/></g>
<g><path style="opacity:1" fill="#000000" d="M 1378.5,1702.5 C 1405.17,1702.5 1431.83,1702.5 1458.5,1702.5C 1458.5,1709.17 1458.5,1715.83 1458.5,1722.5C 1431.83,1722.5 1405.17,1722.5 1378.5,1722.5C 1378.5,1715.83 1378.5,1709.17 1378.5,1702.5 Z"/></g>
<g><path style="opacity:1" fill="#000000" d="M 1498.5,1702.5 C 1525.17,1702.5 1551.83,1702.5 1578.5,1702.5C 1578.5,1709.17 1578.5,1715.83 1578.5,1722.5C 1551.83,1722.5 1525.17,1722.5 1498.5,1722.5C 1498.5,1715.83 1498.5,1709.17 1498.5,1702.5 Z"/></g>
<g><path style="opacity:1" fill="#000000" d="M 1618.5,1702.5 C 1645.17,1702.5 1671.83,1702.5 1698.5,1702.5C 1698.5,1709.17 1698.5,1715.83 1698.5,1722.5C 1671.83,1722.5 1645.17,1722.5 1618.5,1722.5C 1618.5,1715.83 1618.5,1709.17 1618.5,1702.5 Z"/></g>
<g><path style="opacity:1" fill="#000000" d="M 1738.5,1702.5 C 1765.17,1702.5 1791.83,1702.5 1818.5,1702.5C 1818.5,1709.17 1818.5,1715.83 1818.5,1722.5C 1791.83,1722.5 1765.17,1722.5 1738.5,1722.5C 1738.5,1715.83 1738.5,1709.17 1738.5,1702.5 Z"/></g>
<g><path style="opacity:1" fill="#000000" d="M 1858.5,1702.5 C 1885.17,1702.5 1911.83,1702.5 1938.5,1702.5C 1938.5,1709.17 1938.5,1715.83 1938.5,1722.5C 1911.83,1722.5 1885.17,1722.5 1858.5,1722.5C 1858.5,1715.83 1858.5,1709.17 1858.5,1702.5 Z"/></g>
<g><path style="opacity:1" fill="#000000" d="M 1978.5,1702.5 C 2005.17,1702.5 2031.83,1702.5 2058.5,1702.5C 2058.5,1709.17 2058.5,1715.83 2058.5,1722.5C 2031.83,1722.5 2005.17,1722.5 1978.5,1722.5C 1978.5,1715.83 1978.5,1709.17 1978.5,1702.5 Z"/></g>
<g><path style="opacity:1" fill="#000000" d="M 2098.5,1702.5 C 2125.17,1702.5 2151.83,1702.5 2178.5,1702.5C 2178.5,1709.17 2178.5,1715.83 2178.5,1722.5C 2151.83,1722.5 2125.17,1722.5 2098.5,1722.5C 2098.5,1715.83 2098.5,1709.17 2098.5,1702.5 Z"/></g>
<g><path style="opacity:1" fill="#000000" d="M 2218.5,1702.5 C 2245.17,1702.5 2271.83,1702.5 2298.5,1702.5C 2298.5,1709.17 2298.5,1715.83 2298.5,1722.5C 2271.83,1722.5 2245.17,1722.5 2218.5,1722.5C 2218.5,1715.83 2218.5,1709.17 2218.5,1702.5 Z"/></g>
<g><path style="opacity:1" fill="#000000" d="M 2338.5,1702.5 C 2365.17,1702.5 2391.83,1702.5 2418.5,1702.5C 2418.5,1709.17 2418.5,1715.83 2418.5,1722.5C 2391.83,1722.5 2365.17,1722.5 2338.5,1722.5C 2338.5,1715.83 2338.5,1709.17 2338.5,1702.5 Z"/></g>
<g><path style="opacity:1" fill="#000000" d="M 1370.5,1940.5 C 1446.24,1937.62 1504.74,1967.62 1546,2030.5C 1573.6,2083.95 1573.27,2137.29 1545,2190.5C 1496.2,2261.62 1429.03,2289.46 1343.5,2274C 1295.73,2262.05 1257.9,2235.88 1230,2195.5C 1205.03,2153.48 1199.03,2108.82 1212,2061.5C 1227.53,2018.96 1255.03,1986.46 1294.5,1964C 1318.24,1950.58 1343.57,1942.75 1370.5,1940.5 Z"/></g>
</svg>
