<?xml version="1.0" encoding="UTF-8"?>
<!DOCTYPE svg PUBLIC "-//W3C//DTD SVG 1.1//EN" "http://www.w3.org/Graphics/SVG/1.1/DTD/svg11.dtd">
<svg xmlns="http://www.w3.org/2000/svg" version="1.1" width="2598px" height="2598px" style="shape-rendering:geometricPrecision; text-rendering:geometricPrecision; image-rendering:optimizeQuality; fill-rule:evenodd; clip-rule:evenodd" xmlns:xlink="http://www.w3.org/1999/xlink">
<g><path style="opacity:1" fill="#fefffe" d="M -0.5,-0.5 C 865.5,-0.5 1731.5,-0.5 2597.5,-0.5C 2597.5,865.5 2597.5,1731.5 2597.5,2597.5C 1731.5,2597.5 865.5,2597.5 -0.5,2597.5C -0.5,1731.5 -0.5,865.5 -0.5,-0.5 Z"/></g>
<g><path style="opacity:1" fill="#000000" d="M 48.5,48.5 C 881.833,48.5 1715.17,48.5 2548.5,48.5C 2548.5,881.833 2548.5,1715.17 2548.5,2548.5C 1715.17,2548.5 881.833,2548.5 48.5,2548.5C 48.5,1715.17 48.5,881.833 48.5,48.5 Z"/></g>
<g><path style="opacity:1" fill="#fefefe" d="M 68.5,68.5 C 888.5,68.5 1708.5,68.5 2528.5,68.5C 2528.5,888.5 2528.5,1708.5 2528.5,2528.5C 1708.5,2528.5 888.5,2528.5 68.5,2528.5C 68.5,1708.5 68.5,888.5 68.5,68.5 Z"/></g>
<g><path style="opacity:1" fill="#575555" d="M 1296.5,87.5 C 1310.17,88.8284 1314,95.8284 1308,108.5C 1302.39,112.716 1297.06,112.383 1292,107.5C 1290.52,102.924 1290.19,98.2574 1291,93.5C 1292.36,90.9774 1294.19,88.9774 1296.5,87.5 Z"/></g>
<g><path style="opacity:1" fill="#575555" d="M 1297.5,126.5 C 1309.67,126.851 1313.84,132.851 1310,144.5C 1307.57,150.795 1303.07,152.962 1296.5,151C 1293.57,149.74 1291.74,147.573 1291,144.5C 1289.71,137.054 1291.88,131.054 1297.5,126.5 Z"/></g>
<g><path style="opacity:1" fill="#575555" d="M 1297.5,166.5 C 1309.67,166.851 1313.84,172.851 1310,184.5C 1307.57,190.795 1303.07,192.962 1296.5,191C 1293.57,189.74 1291.74,187.573 1291,184.5C 1289.71,177.054 1291.88,171.054 1297.5,166.5 Z"/></g>
<g><path style="opacity:1" fill="#575555" d="M 1297.5,206.5 C 1309.67,206.851 1313.84,212.851 1310,224.5C 1307.57,230.795 1303.07,232.962 1296.5,231C 1293.57,229.74 1291.74,227.573 1291,224.5C 1289.71,217.054 1291.88,211.054 1297.5,206.5 Z"/></g>
<g><path style="opacity:1" fill="#575555" d="M 1297.5,246.5 C 1309.67,246.851 1313.84,252.851 1310,264.5C 1307.57,270.795 1303.07,272.962 1296.5,271C 1293.57,269.74 1291.74,267.573 1291,264.5C 1289.71,257.054 1291.88,251.054 1297.5,246.5 Z"/></g>
<g><path style="opacity:1" fill="#575555" d="M 1297.5,286.5 C 1309.67,286.851 1313.84,292.851 1310,304.5C 1307.57,310.795 1303.07,312.962 1296.5,311C 1293.57,309.74 1291.74,307.573 1291,304.5C 1289.71,297.054 1291.88,291.054 1297.5,286.5 Z"/></g>
<g><path style="opacity:1" fill="#575555" d="M 1297.5,326.5 C 1309.67,326.851 1313.84,332.851 1310,344.5C 1307.57,350.795 1303.07,352.962 1296.5,351C 1293.57,349.74 1291.74,347.573 1291,344.5C 1289.71,337.054 1291.88,331.054 1297.5,326.5 Z"/></g>
<g><path style="opacity:1" fill="#575555" d="M 1297.5,366.5 C 1309.67,366.851 1313.84,372.851 1310,384.5C 1307.57,390.795 1303.07,392.962 1296.5,391C 1293.62,389.749 1291.79,387.583 1291,384.5C 1289.71,377.054 1291.88,371.054 1297.5,366.5 Z"/></g>
<g><path style="opacity:1" fill="#575555" d="M 1297.5,406.5 C 1309.67,406.851 1313.84,412.851 1310,424.5C 1307.57,430.795 1303.07,432.962 1296.5,431C 1293.62,429.749 1291.79,427.583 1291,424.5C 1289.71,417.054 1291.88,411.054 1297.5,406.5 Z"/></g>
<g><path style="opacity:1" fill="#575555" d="M 1297.5,446.5 C 1309.65,446.832 1313.82,452.832 1310,464.5C 1307.57,470.795 1303.07,472.962 1296.5,471C 1293.62,469.749 1291.79,467.583 1291,464.5C 1289.71,457.054 1291.88,451.054 1297.5,446.5 Z"/></g>
<g><path style="opacity:1" fill="#575555" d="M 1297.5,486.5 C 1309.67,486.851 1313.84,492.851 1310,504.5C 1307.57,510.795 1303.07,512.962 1296.5,511C 1293.62,509.749 1291.79,507.583 1291,504.5C 1289.71,497.054 1291.88,491.054 1297.5,486.5 Z"/></g>
<g><path style="opacity:1" fill="#575555" d="M 1297.5,526.5 C 1309.67,526.851 1313.84,532.851 1310,544.5C 1307.57,550.795 1303.07,552.962 1296.5,551C 1293.62,549.749 1291.79,547.583 1291,544.5C 1289.71,537.054 1291.88,531.054 1297.5,526.5 Z"/></g>
<g><path style="opacity:1" fill="#575555" d="M 1297.5,566.5 C 1309.61,566.799 1313.78,572.799 1310,584.5C 1307.57,590.795 1303.07,592.962 1296.5,591C 1293.62,589.749 1291.79,587.583 1291,584.5C 1289.71,577.054 1291.88,571.054 1297.5,566.5 Z"/></g>
<g><path style="opacity:1" fill="#575555" d="M 1297.5,606.5 C 1309.61,606.799 1313.78,612.799 1310,624.5C 1307.57,630.795 1303.07,632.962 1296.5,631C 1293.62,629.749 1291.79,627.583 1291,624.5C 1289.71,617.054 1291.88,611.054 1297.5,606.5 Z"/></g>
<g><path style="opacity:1" fill="#575555" d="M 1297.5,646.5 C 1309.61,646.799 1313.78,652.799 1310,664.5C 1307.57,670.795 1303.07,672.962 1296.5,671C 1293.62,669.749 1291.79,667.583 1291,664.5C 1289.71,657.054 1291.88,651.054 1297.5,646.5 Z"/></g>
<g><path style="opacity:1" fill="#575555" d="M 1297.5,686.5 C 1309.61,686.799 1313.78,692.799 1310,704.5C 1307.57,710.795 1303.07,712.962 1296.5,711C 1293.62,709.749 1291.79,707.583 1291,704.5C 1289.71,697.054 1291.88,691.054 1297.5,686.5 Z"/></g>
<g><path style="opacity:1" fill="#575555" d="M 1297.5,726.5 C 1309.61,726.799 1313.78,732.799 1310,744.5C 1307.57,750.795 1303.07,752.962 1296.5,751C 1293.62,749.749 1291.79,747.583 1291,744.5C 1289.71,737.054 1291.88,731.054 1297.5,726.5 Z"/></g>
<g><path style="opacity:1" fill="#575555" d="M 1297.5,766.5 C 1309.61,766.799 1313.78,772.799 1310,784.5C 1307.57,790.795 1303.07,792.962 1296.5,791C 1293.62,789.749 1291.79,787.583 1291,784.5C 1289.71,777.054 1291.88,771.054 1297.5,766.5 Z"/></g>
<g><path style="opacity:1" fill="#575555" d="M 1297.5,806.5 C 1309.61,806.799 1313.78,812.799 1310,824.5C 1307.57,830.795 1303.07,832.962 1296.5,831C 1293.62,829.749 1291.79,827.583 1291,824.5C 1289.71,817.054 1291.88,811.054 1297.5,806.5 Z"/></g>
<g><path style="opacity:1" fill="#575555" d="M 1297.5,846.5 C 1309.75,846.637 1313.92,852.637 1310,864.5C 1306.71,871.266 1301.54,873.099 1294.5,870C 1290.05,864.767 1289.21,858.934 1292,852.5C 1293.36,849.977 1295.19,847.977 1297.5,846.5 Z"/></g>
<g><path style="opacity:1" fill="#585656" d="M 1297.5,886.5 C 1309.75,886.637 1313.92,892.637 1310,904.5C 1307.57,910.795 1303.07,912.962 1296.5,911C 1293.62,909.749 1291.79,907.583 1291,904.5C 1289.71,897.054 1291.88,891.054 1297.5,886.5 Z"/></g>
<g><path style="opacity:1" fill="#585656" d="M 1297.5,926.5 C 1309.75,926.637 1313.92,932.637 1310,944.5C 1307.57,950.795 1303.07,952.962 1296.5,951C 1293.62,949.749 1291.79,947.583 1291,944.5C 1289.71,937.054 1291.88,931.054 1297.5,926.5 Z"/></g>
<g><path style="opacity:1" fill="#585656" d="M 1297.5,966.5 C 1309.75,966.637 1313.92,972.637 1310,984.5C 1306.71,991.266 1301.54,993.099 1294.5,990C 1290.05,984.767 1289.21,978.934 1292,972.5C 1293.36,969.977 1295.19,967.977 1297.5,966.5 Z"/></g>
<g><path style="opacity:1" fill="#575656" d="M 1297.5,1006.5 C 1309.75,1006.64 1313.92,1012.64 1310,1024.5C 1306.71,1031.27 1301.54,1033.1 1294.5,1030C 1290.05,1024.77 1289.21,1018.93 1292,1012.5C 1293.36,1009.98 1295.19,1007.98 1297.5,1006.5 Z"/></g>
<g><path style="opacity:1" fill="#575555" d="M 1297.5,1046.5 C 1309.75,1046.64 1313.92,1052.64 1310,1064.5C 1306.71,1071.27 1301.54,1073.1 1294.5,1070C 1290.16,1065.1 1289.32,1059.6 1292,1053.5C 1292.97,1050.38 1294.8,1048.05 1297.5,1046.5 Z"/></g>
<g><path style="opacity:1" fill="#575555" d="M 1297.5,1086.5 C 1309.75,1086.64 1313.92,1092.64 1310,1104.5C 1306.71,1111.27 1301.54,1113.1 1294.5,1110C 1290.16,1105.1 1289.32,1099.6 1292,1093.5C 1292.97,1090.38 1294.8,1088.05 1297.5,1086.5 Z"/></g>
<g><path style="opacity:1" fill="#575555" d="M 1297.5,1126.5 C 1309.75,1126.64 1313.92,1132.64 1310,1144.5C 1306.71,1151.27 1301.54,1153.1 1294.5,1150C 1290.16,1145.1 1289.32,1139.6 1292,1133.5C 1292.97,1130.38 1294.8,1128.05 1297.5,1126.5 Z"/></g>
<g><path style="opacity:1" fill="#585656" d="M 1297.5,1166.5 C 1309.78,1166.71 1313.95,1172.71 1310,1184.5C 1306.71,1191.27 1301.54,1193.1 1294.5,1190C 1290.05,1184.77 1289.21,1178.93 1292,1172.5C 1293.36,1169.98 1295.19,1167.98 1297.5,1166.5 Z"/></g>
<g><path style="opacity:1" fill="#585656" d="M 1297.5,1206.5 C 1309.78,1206.71 1313.95,1212.71 1310,1224.5C 1306.71,1231.27 1301.54,1233.1 1294.5,1230C 1290.05,1224.77 1289.21,1218.93 1292,1212.5C 1293.36,1209.98 1295.19,1207.98 1297.5,1206.5 Z"/></g>
<g><path style="opacity:1" fill="#575555" d="M 1297.5,1246.5 C 1309.78,1246.7 1313.95,1252.7 1310,1264.5C 1305.81,1272 1300.14,1273.34 1293,1268.5C 1290.17,1263.38 1289.84,1258.05 1292,1252.5C 1293.36,1249.98 1295.19,1247.98 1297.5,1246.5 Z"/></g>
<g><path style="opacity:1" fill="#565454" d="M 1297.5,1286.5 C 1308.2,1285.92 1313.03,1290.92 1312,1301.5C 1308.46,1310.86 1302.29,1313.36 1293.5,1309C 1284.34,1299.22 1285.67,1291.72 1297.5,1286.5 Z"/></g>
<g><path style="opacity:1" fill="#585656" d="M 93.5,1287.5 C 97.5598,1287.48 101.56,1287.98 105.5,1289C 111.777,1291.39 113.943,1295.89 112,1302.5C 107.521,1308.67 101.687,1310.17 94.5,1307C 85.7054,1300.79 85.3721,1294.29 93.5,1287.5 Z"/></g>
<g><path style="opacity:1" fill="#585656" d="M 133.5,1287.5 C 137.56,1287.48 141.56,1287.98 145.5,1289C 151.777,1291.39 153.943,1295.89 152,1302.5C 147.521,1308.67 141.687,1310.17 134.5,1307C 125.705,1300.79 125.372,1294.29 133.5,1287.5 Z"/></g>
<g><path style="opacity:1" fill="#585656" d="M 173.5,1287.5 C 177.534,1287.67 181.534,1288.17 185.5,1289C 191.777,1291.39 193.943,1295.89 192,1302.5C 187.521,1308.67 181.687,1310.17 174.5,1307C 165.705,1300.79 165.372,1294.29 173.5,1287.5 Z"/></g>
<g><path style="opacity:1" fill="#585656" d="M 213.5,1287.5 C 217.534,1287.67 221.534,1288.17 225.5,1289C 231.777,1291.39 233.943,1295.89 232,1302.5C 227.521,1308.67 221.687,1310.17 214.5,1307C 205.705,1300.79 205.372,1294.29 213.5,1287.5 Z"/></g>
<g><path style="opacity:1" fill="#585656" d="M 253.5,1287.5 C 257.534,1287.67 261.534,1288.17 265.5,1289C 271.777,1291.39 273.943,1295.89 272,1302.5C 267.521,1308.67 261.687,1310.17 254.5,1307C 245.705,1300.79 245.372,1294.29 253.5,1287.5 Z"/></g>
<g><path style="opacity:1" fill="#585656" d="M 293.5,1287.5 C 299.989,1287.09 305.823,1288.76 311,1292.5C 314.315,1299.62 312.482,1304.79 305.5,1308C 293.751,1309.9 287.918,1305.07 288,1293.5C 289.36,1290.98 291.193,1288.98 293.5,1287.5 Z"/></g>
<g><path style="opacity:1" fill="#585656" d="M 333.5,1287.5 C 339.989,1287.09 345.823,1288.76 351,1292.5C 354.315,1299.62 352.482,1304.79 345.5,1308C 333.751,1309.9 327.918,1305.07 328,1293.5C 329.36,1290.98 331.193,1288.98 333.5,1287.5 Z"/></g>
<g><path style="opacity:1" fill="#585656" d="M 373.5,1287.5 C 377.56,1287.48 381.56,1287.98 385.5,1289C 391.777,1291.39 393.943,1295.89 392,1302.5C 386.682,1309.19 380.182,1310.36 372.5,1306C 365.539,1299.31 365.872,1293.15 373.5,1287.5 Z"/></g>
<g><path style="opacity:1" fill="#585656" d="M 413.5,1287.5 C 417.56,1287.48 421.56,1287.98 425.5,1289C 431.777,1291.39 433.943,1295.89 432,1302.5C 426.682,1309.19 420.182,1310.36 412.5,1306C 405.621,1299.35 405.955,1293.18 413.5,1287.5 Z"/></g>
<g><path style="opacity:1" fill="#585656" d="M 453.5,1287.5 C 457.56,1287.48 461.56,1287.98 465.5,1289C 471.777,1291.39 473.943,1295.89 472,1302.5C 466.682,1309.19 460.182,1310.36 452.5,1306C 445.621,1299.35 445.955,1293.18 453.5,1287.5 Z"/></g>
<g><path style="opacity:1" fill="#585656" d="M 493.5,1287.5 C 499.989,1287.09 505.823,1288.76 511,1292.5C 514.315,1299.62 512.482,1304.79 505.5,1308C 498.989,1309.04 493.489,1307.2 489,1302.5C 486.074,1296.08 487.574,1291.08 493.5,1287.5 Z"/></g>
<g><path style="opacity:1" fill="#585656" d="M 533.5,1287.5 C 539.989,1287.09 545.823,1288.76 551,1292.5C 554.315,1299.62 552.482,1304.79 545.5,1308C 533.751,1309.9 527.918,1305.07 528,1293.5C 529.36,1290.98 531.193,1288.98 533.5,1287.5 Z"/></g>
<g><path style="opacity:1" fill="#575555" d="M 574.5,1287.5 C 580.625,1287.32 586.125,1288.99 591,1292.5C 594.505,1300.98 591.839,1306.31 583,1308.5C 572.523,1308.69 567.523,1303.69 568,1293.5C 569.494,1290.69 571.66,1288.69 574.5,1287.5 Z"/></g>
<g><path style="opacity:1" fill="#575555" d="M 614.5,1287.5 C 620.625,1287.32 626.125,1288.99 631,1292.5C 634.505,1300.98 631.839,1306.31 623,1308.5C 612.505,1308.67 607.505,1303.67 608,1293.5C 609.494,1290.69 611.66,1288.69 614.5,1287.5 Z"/></g>
<g><path style="opacity:1" fill="#585656" d="M 654.5,1287.5 C 660.625,1287.32 666.125,1288.99 671,1292.5C 674.315,1299.62 672.482,1304.79 665.5,1308C 658.989,1309.04 653.489,1307.2 649,1302.5C 645.82,1295.55 647.654,1290.55 654.5,1287.5 Z"/></g>
<g><path style="opacity:1" fill="#585656" d="M 694.5,1287.5 C 700.645,1287.22 706.145,1288.89 711,1292.5C 714.315,1299.62 712.482,1304.79 705.5,1308C 698.989,1309.04 693.489,1307.2 689,1302.5C 685.82,1295.55 687.654,1290.55 694.5,1287.5 Z"/></g>
<g><path style="opacity:1" fill="#585656" d="M 734.5,1287.5 C 740.645,1287.22 746.145,1288.89 751,1292.5C 754.29,1303.11 750.457,1308.28 739.5,1308C 730.771,1306.95 726.937,1302.11 728,1293.5C 729.494,1290.69 731.66,1288.69 734.5,1287.5 Z"/></g>
<g><path style="opacity:1" fill="#575555" d="M 774.5,1287.5 C 780.625,1287.32 786.125,1288.99 791,1292.5C 794.29,1303.11 790.457,1308.28 779.5,1308C 770.771,1306.95 766.937,1302.11 768,1293.5C 769.494,1290.69 771.66,1288.69 774.5,1287.5 Z"/></g>
<g><path style="opacity:1" fill="#585656" d="M 814.5,1287.5 C 820.625,1287.32 826.125,1288.99 831,1292.5C 833.691,1306.12 828.191,1310.95 814.5,1307C 808.723,1304.28 806.556,1299.78 808,1293.5C 809.494,1290.69 811.66,1288.69 814.5,1287.5 Z"/></g>
<g><path style="opacity:1" fill="#585656" d="M 854.5,1287.5 C 860.645,1287.22 866.145,1288.89 871,1292.5C 873.691,1306.12 868.191,1310.95 854.5,1307C 848.723,1304.28 846.556,1299.78 848,1293.5C 849.494,1290.69 851.66,1288.69 854.5,1287.5 Z"/></g>
<g><path style="opacity:1" fill="#585656" d="M 894.5,1287.5 C 900.645,1287.22 906.145,1288.89 911,1292.5C 913.691,1306.12 908.191,1310.95 894.5,1307C 888.723,1304.28 886.556,1299.78 888,1293.5C 889.494,1290.69 891.66,1288.69 894.5,1287.5 Z"/></g>
<g><path style="opacity:1" fill="#585656" d="M 934.5,1287.5 C 940.645,1287.22 946.145,1288.89 951,1292.5C 953.691,1306.12 948.191,1310.95 934.5,1307C 928.723,1304.28 926.556,1299.78 928,1293.5C 929.494,1290.69 931.66,1288.69 934.5,1287.5 Z"/></g>
<g><path style="opacity:1" fill="#585656" d="M 974.5,1287.5 C 980.625,1287.32 986.125,1288.99 991,1292.5C 993.691,1306.12 988.191,1310.95 974.5,1307C 968.743,1304.32 966.576,1299.82 968,1293.5C 969.494,1290.69 971.66,1288.69 974.5,1287.5 Z"/></g>
<g><path style="opacity:1" fill="#585656" d="M 1014.5,1287.5 C 1020.63,1287.32 1026.13,1288.99 1031,1292.5C 1033.69,1306.12 1028.19,1310.95 1014.5,1307C 1008.74,1304.32 1006.58,1299.82 1008,1293.5C 1009.49,1290.69 1011.66,1288.69 1014.5,1287.5 Z"/></g>
<g><path style="opacity:1" fill="#585656" d="M 1054.5,1287.5 C 1060.63,1287.32 1066.13,1288.99 1071,1292.5C 1073.69,1306.12 1068.19,1310.95 1054.5,1307C 1048.74,1304.32 1046.58,1299.82 1048,1293.5C 1049.49,1290.69 1051.66,1288.69 1054.5,1287.5 Z"/></g>
<g><path style="opacity:1" fill="#585656" d="M 1094.5,1287.5 C 1100.63,1287.32 1106.13,1288.99 1111,1292.5C 1113.69,1306.12 1108.19,1310.95 1094.5,1307C 1088.74,1304.32 1086.58,1299.82 1088,1293.5C 1089.49,1290.69 1091.66,1288.69 1094.5,1287.5 Z"/></g>
<g><path style="opacity:1" fill="#585656" d="M 1134.5,1287.5 C 1140.07,1287.38 1145.24,1288.71 1150,1291.5C 1153.35,1296.39 1153.19,1301.23 1149.5,1306C 1142.79,1309.19 1136.29,1308.69 1130,1304.5C 1125.59,1297.08 1127.09,1291.41 1134.5,1287.5 Z"/></g>
<g><path style="opacity:1" fill="#585656" d="M 1174.5,1287.5 C 1180.05,1287.5 1185.22,1288.84 1190,1291.5C 1193.35,1296.39 1193.19,1301.23 1189.5,1306C 1182.79,1309.19 1176.29,1308.69 1170,1304.5C 1165.59,1297.08 1167.09,1291.41 1174.5,1287.5 Z"/></g>
<g><path style="opacity:1" fill="#585656" d="M 1214.5,1287.5 C 1220.07,1287.38 1225.24,1288.71 1230,1291.5C 1233.35,1296.39 1233.19,1301.23 1229.5,1306C 1222.79,1309.19 1216.29,1308.69 1210,1304.5C 1205.59,1297.08 1207.09,1291.41 1214.5,1287.5 Z"/></g>
<g><path style="opacity:1" fill="#585656" d="M 1254.5,1287.5 C 1260.05,1287.5 1265.22,1288.84 1270,1291.5C 1273.35,1296.39 1273.19,1301.23 1269.5,1306C 1262.79,1309.19 1256.29,1308.69 1250,1304.5C 1245.59,1297.08 1247.09,1291.41 1254.5,1287.5 Z"/></g>
<g><path style="opacity:1" fill="#585656" d="M 1334.5,1287.5 C 1340.05,1287.5 1345.22,1288.84 1350,1291.5C 1353.35,1296.39 1353.19,1301.23 1349.5,1306C 1342.79,1309.19 1336.29,1308.69 1330,1304.5C 1325.59,1297.08 1327.09,1291.41 1334.5,1287.5 Z"/></g>
<g><path style="opacity:1" fill="#585656" d="M 1374.5,1287.5 C 1380.05,1287.5 1385.22,1288.84 1390,1291.5C 1393.35,1296.39 1393.19,1301.23 1389.5,1306C 1382.79,1309.19 1376.29,1308.69 1370,1304.5C 1365.59,1297.08 1367.09,1291.41 1374.5,1287.5 Z"/></g>
<g><path style="opacity:1" fill="#585656" d="M 1414.5,1287.5 C 1420.05,1287.5 1425.22,1288.84 1430,1291.5C 1433.35,1296.39 1433.19,1301.23 1429.5,1306C 1422.79,1309.19 1416.29,1308.69 1410,1304.5C 1405.59,1297.08 1407.09,1291.41 1414.5,1287.5 Z"/></g>
<g><path style="opacity:1" fill="#585656" d="M 1454.5,1287.5 C 1460.05,1287.5 1465.22,1288.84 1470,1291.5C 1473.35,1296.39 1473.19,1301.23 1469.5,1306C 1462.73,1309.18 1456.23,1308.68 1450,1304.5C 1445.59,1297.08 1447.09,1291.41 1454.5,1287.5 Z"/></g>
<g><path style="opacity:1" fill="#585656" d="M 1494.5,1287.5 C 1500.05,1287.5 1505.22,1288.84 1510,1291.5C 1513.35,1296.39 1513.19,1301.23 1509.5,1306C 1502.73,1309.18 1496.23,1308.68 1490,1304.5C 1485.59,1297.08 1487.09,1291.41 1494.5,1287.5 Z"/></g>
<g><path style="opacity:1" fill="#585656" d="M 1534.5,1287.5 C 1540.05,1287.5 1545.22,1288.84 1550,1291.5C 1553.35,1296.39 1553.19,1301.23 1549.5,1306C 1542.15,1309.36 1535.32,1308.52 1529,1303.5C 1525.72,1296.24 1527.55,1290.91 1534.5,1287.5 Z"/></g>
<g><path style="opacity:1" fill="#585656" d="M 1574.5,1287.5 C 1580.05,1287.5 1585.22,1288.84 1590,1291.5C 1593.35,1296.39 1593.19,1301.23 1589.5,1306C 1582.15,1309.36 1575.32,1308.52 1569,1303.5C 1565.72,1296.24 1567.55,1290.91 1574.5,1287.5 Z"/></g>
<g><path style="opacity:1" fill="#585656" d="M 1614.5,1287.5 C 1620.51,1287.27 1625.84,1288.94 1630.5,1292.5C 1633.25,1297.15 1632.91,1301.65 1629.5,1306C 1622.15,1309.36 1615.32,1308.52 1609,1303.5C 1605.72,1296.24 1607.55,1290.91 1614.5,1287.5 Z"/></g>
<g><path style="opacity:1" fill="#585656" d="M 1654.5,1287.5 C 1660.51,1287.27 1665.84,1288.94 1670.5,1292.5C 1673.25,1297.15 1672.91,1301.65 1669.5,1306C 1662.15,1309.36 1655.32,1308.52 1649,1303.5C 1645.72,1296.24 1647.55,1290.91 1654.5,1287.5 Z"/></g>
<g><path style="opacity:1" fill="#585656" d="M 1694.5,1287.5 C 1700.51,1287.27 1705.84,1288.94 1710.5,1292.5C 1713.25,1297.15 1712.91,1301.65 1709.5,1306C 1702.15,1309.36 1695.32,1308.52 1689,1303.5C 1685.72,1296.24 1687.55,1290.91 1694.5,1287.5 Z"/></g>
<g><path style="opacity:1" fill="#585656" d="M 1734.5,1287.5 C 1740.51,1287.27 1745.84,1288.94 1750.5,1292.5C 1753.25,1297.15 1752.91,1301.65 1749.5,1306C 1742.15,1309.36 1735.32,1308.52 1729,1303.5C 1725.72,1296.24 1727.55,1290.91 1734.5,1287.5 Z"/></g>
<g><path style="opacity:1" fill="#585656" d="M 1774.5,1287.5 C 1781.6,1286.86 1787.44,1289.2 1792,1294.5C 1793.53,1302.47 1790.36,1307.13 1782.5,1308.5C 1777.27,1308.56 1772.77,1306.89 1769,1303.5C 1765.72,1296.24 1767.55,1290.91 1774.5,1287.5 Z"/></g>
<g><path style="opacity:1" fill="#585656" d="M 1814.5,1287.5 C 1821.6,1286.86 1827.44,1289.2 1832,1294.5C 1833.53,1302.47 1830.36,1307.13 1822.5,1308.5C 1817.27,1308.56 1812.77,1306.89 1809,1303.5C 1805.72,1296.24 1807.55,1290.91 1814.5,1287.5 Z"/></g>
<g><path style="opacity:1" fill="#585656" d="M 1854.5,1287.5 C 1861.6,1286.86 1867.44,1289.2 1872,1294.5C 1873.53,1302.47 1870.36,1307.13 1862.5,1308.5C 1857.27,1308.56 1852.77,1306.89 1849,1303.5C 1845.72,1296.24 1847.55,1290.91 1854.5,1287.5 Z"/></g>
<g><path style="opacity:1" fill="#585656" d="M 1894.5,1287.5 C 1901.6,1286.86 1907.44,1289.2 1912,1294.5C 1913.53,1302.47 1910.36,1307.13 1902.5,1308.5C 1897.27,1308.56 1892.77,1306.89 1889,1303.5C 1885.72,1296.24 1887.55,1290.91 1894.5,1287.5 Z"/></g>
<g><path style="opacity:1" fill="#585656" d="M 1934.5,1287.5 C 1941.6,1286.86 1947.44,1289.2 1952,1294.5C 1953.53,1302.47 1950.36,1307.13 1942.5,1308.5C 1937.27,1308.56 1932.77,1306.89 1929,1303.5C 1925.72,1296.24 1927.55,1290.91 1934.5,1287.5 Z"/></g>
<g><path style="opacity:1" fill="#585656" d="M 1974.5,1287.5 C 1981.6,1286.86 1987.44,1289.2 1992,1294.5C 1993.53,1302.47 1990.36,1307.13 1982.5,1308.5C 1971.59,1309.09 1966.75,1304.09 1968,1293.5C 1969.49,1290.69 1971.66,1288.69 1974.5,1287.5 Z"/></g>
<g><path style="opacity:1" fill="#585656" d="M 2014.5,1287.5 C 2021.6,1286.86 2027.44,1289.2 2032,1294.5C 2033.53,1302.47 2030.36,1307.13 2022.5,1308.5C 2017.27,1308.56 2012.77,1306.89 2009,1303.5C 2005.72,1296.24 2007.55,1290.91 2014.5,1287.5 Z"/></g>
<g><path style="opacity:1" fill="#575555" d="M 2054.5,1287.5 C 2060.99,1287.04 2066.49,1289.04 2071,1293.5C 2073.87,1301.76 2071.04,1306.76 2062.5,1308.5C 2057.27,1308.56 2052.77,1306.89 2049,1303.5C 2045.72,1296.24 2047.55,1290.91 2054.5,1287.5 Z"/></g>
<g><path style="opacity:1" fill="#585656" d="M 2094.5,1287.5 C 2100.99,1287.04 2106.49,1289.04 2111,1293.5C 2113.87,1301.76 2111.04,1306.76 2102.5,1308.5C 2091.59,1309.09 2086.75,1304.09 2088,1293.5C 2089.49,1290.69 2091.66,1288.69 2094.5,1287.5 Z"/></g>
<g><path style="opacity:1" fill="#585656" d="M 2134.5,1287.5 C 2140.99,1287.04 2146.49,1289.04 2151,1293.5C 2153.87,1301.76 2151.04,1306.76 2142.5,1308.5C 2131.59,1309.09 2126.75,1304.09 2128,1293.5C 2129.49,1290.69 2131.66,1288.69 2134.5,1287.5 Z"/></g>
<g><path style="opacity:1" fill="#585656" d="M 2174.5,1287.5 C 2180.99,1287.04 2186.49,1289.04 2191,1293.5C 2193.87,1301.76 2191.04,1306.76 2182.5,1308.5C 2171.59,1309.09 2166.75,1304.09 2168,1293.5C 2169.49,1290.69 2171.66,1288.69 2174.5,1287.5 Z"/></g>
<g><path style="opacity:1" fill="#575555" d="M 2214.5,1287.5 C 2220.93,1287.21 2226.43,1289.21 2231,1293.5C 2233.87,1301.76 2231.04,1306.76 2222.5,1308.5C 2211.59,1309.09 2206.75,1304.09 2208,1293.5C 2209.49,1290.69 2211.66,1288.69 2214.5,1287.5 Z"/></g>
<g><path style="opacity:1" fill="#575555" d="M 2254.5,1287.5 C 2260.93,1287.21 2266.43,1289.21 2271,1293.5C 2273.87,1301.76 2271.04,1306.76 2262.5,1308.5C 2251.59,1309.09 2246.75,1304.09 2248,1293.5C 2249.49,1290.69 2251.66,1288.69 2254.5,1287.5 Z"/></g>
<g><path style="opacity:1" fill="#585656" d="M 2294.5,1287.5 C 2300.99,1287.04 2306.49,1289.04 2311,1293.5C 2313.87,1301.76 2311.04,1306.76 2302.5,1308.5C 2291.59,1309.09 2286.75,1304.09 2288,1293.5C 2289.49,1290.69 2291.66,1288.69 2294.5,1287.5 Z"/></g>
<g><path style="opacity:1" fill="#585656" d="M 2334.5,1287.5 C 2340.99,1287.04 2346.49,1289.04 2351,1293.5C 2353.9,1302.04 2350.9,1307.04 2342,1308.5C 2331.34,1308.85 2326.67,1303.85 2328,1293.5C 2329.49,1290.69 2331.66,1288.69 2334.5,1287.5 Z"/></g>
<g><path style="opacity:1" fill="#575656" d="M 2374.5,1287.5 C 2380.93,1287.21 2386.43,1289.21 2391,1293.5C 2393.87,1301.76 2391.04,1306.76 2382.5,1308.5C 2371.59,1309.09 2366.75,1304.09 2368,1293.5C 2369.49,1290.69 2371.66,1288.69 2374.5,1287.5 Z"/></g>
<g><path style="opacity:1" fill="#585656" d="M 2414.5,1287.5 C 2420.93,1287.21 2426.43,1289.21 2431,1293.5C 2433.89,1302.06 2430.89,1307.06 2422,1308.5C 2411.34,1308.85 2406.68,1303.85 2408,1293.5C 2409.49,1290.69 2411.66,1288.69 2414.5,1287.5 Z"/></g>
<g><path style="opacity:1" fill="#575656" d="M 2454.5,1287.5 C 2460.93,1287.21 2466.43,1289.21 2471,1293.5C 2473.92,1302.33 2470.75,1307.33 2461.5,1308.5C 2451.1,1308.61 2446.6,1303.61 2448,1293.5C 2449.49,1290.69 2451.66,1288.69 2454.5,1287.5 Z"/></g>
<g><path style="opacity:1" fill="#585656" d="M 2494.5,1287.5 C 2503.77,1285.61 2509.44,1289.11 2511.5,1298C 2510.21,1305 2505.88,1308.17 2498.5,1307.5C 2489.54,1307.03 2486.04,1302.36 2488,1293.5C 2489.49,1290.69 2491.66,1288.69 2494.5,1287.5 Z"/></g>
<g><path style="opacity:1" fill="#575555" d="M 1297.5,1326.5 C 1309.75,1326.64 1313.92,1332.64 1310,1344.5C 1305.81,1352 1300.14,1353.34 1293,1348.5C 1290.17,1343.38 1289.84,1338.05 1292,1332.5C 1293.36,1329.98 1295.19,1327.98 1297.5,1326.5 Z"/></g>
<g><path style="opacity:1" fill="#575555" d="M 1297.5,1366.5 C 1309.78,1366.7 1313.95,1372.7 1310,1384.5C 1305.81,1392 1300.14,1393.34 1293,1388.5C 1290.17,1383.38 1289.84,1378.05 1292,1372.5C 1293.36,1369.98 1295.19,1367.98 1297.5,1366.5 Z"/></g>
<g><path style="opacity:1" fill="#575555" d="M 1297.5,1406.5 C 1309.75,1406.64 1313.92,1412.64 1310,1424.5C 1305.81,1432 1300.14,1433.34 1293,1428.5C 1290.17,1423.38 1289.84,1418.05 1292,1412.5C 1293.36,1409.98 1295.19,1407.98 1297.5,1406.5 Z"/></g>
<g><path style="opacity:1" fill="#575555" d="M 1297.5,1446.5 C 1303.45,1445.53 1307.95,1447.53 1311,1452.5C 1311.51,1458.11 1310.51,1463.45 1308,1468.5C 1300.68,1473.51 1295.02,1472.18 1291,1464.5C 1289.71,1457.05 1291.88,1451.05 1297.5,1446.5 Z"/></g>
<g><path style="opacity:1" fill="#575555" d="M 1297.5,1486.5 C 1303.45,1485.53 1307.95,1487.53 1311,1492.5C 1311.51,1498.11 1310.51,1503.45 1308,1508.5C 1300.68,1513.51 1295.02,1512.18 1291,1504.5C 1289.71,1497.05 1291.88,1491.05 1297.5,1486.5 Z"/></g>
<g><path style="opacity:1" fill="#575656" d="M 1297.5,1526.5 C 1303.45,1525.53 1307.95,1527.53 1311,1532.5C 1311.51,1538.11 1310.51,1543.45 1308,1548.5C 1300.68,1553.51 1295.02,1552.18 1291,1544.5C 1289.71,1537.05 1291.88,1531.05 1297.5,1526.5 Z"/></g>
<g><path style="opacity:1" fill="#575656" d="M 1297.5,1566.5 C 1303.45,1565.53 1307.95,1567.53 1311,1572.5C 1311.67,1578.14 1310.67,1583.47 1308,1588.5C 1300.68,1593.51 1295.02,1592.18 1291,1584.5C 1289.71,1577.05 1291.88,1571.05 1297.5,1566.5 Z"/></g>
<g><path style="opacity:1" fill="#585656" d="M 1297.5,1606.5 C 1303.45,1605.53 1307.95,1607.53 1311,1612.5C 1311.67,1618.14 1310.67,1623.47 1308,1628.5C 1300.68,1633.51 1295.02,1632.18 1291,1624.5C 1289.71,1617.05 1291.88,1611.05 1297.5,1606.5 Z"/></g>
<g><path style="opacity:1" fill="#575656" d="M 1297.5,1646.5 C 1303.45,1645.53 1307.95,1647.53 1311,1652.5C 1311.67,1658.14 1310.67,1663.47 1308,1668.5C 1300.68,1673.51 1295.02,1672.18 1291,1664.5C 1289.71,1657.05 1291.88,1651.05 1297.5,1646.5 Z"/></g>
<g><path style="opacity:1" fill="#575555" d="M 1297.5,1686.5 C 1303.45,1685.53 1307.95,1687.53 1311,1692.5C 1311.67,1698.14 1310.67,1703.47 1308,1708.5C 1300.68,1713.51 1295.02,1712.18 1291,1704.5C 1289.88,1697.16 1292.05,1691.16 1297.5,1686.5 Z"/></g>
<g><path style="opacity:1" fill="#575555" d="M 1297.5,1726.5 C 1303.59,1725.14 1308.09,1727.14 1311,1732.5C 1311.51,1738.11 1310.51,1743.45 1308,1748.5C 1300.73,1753.52 1295.06,1752.18 1291,1744.5C 1289.88,1737.16 1292.05,1731.16 1297.5,1726.5 Z"/></g>
<g><path style="opacity:1" fill="#575555" d="M 1297.5,1766.5 C 1303.59,1765.14 1308.09,1767.14 1311,1772.5C 1311.51,1778.11 1310.51,1783.45 1308,1788.5C 1300.68,1793.51 1295.02,1792.18 1291,1784.5C 1289.88,1777.16 1292.05,1771.16 1297.5,1766.5 Z"/></g>
<g><path style="opacity:1" fill="#585656" d="M 1297.5,1806.5 C 1303.59,1805.14 1308.09,1807.14 1311,1812.5C 1311.51,1818.11 1310.51,1823.45 1308,1828.5C 1300.68,1833.51 1295.02,1832.18 1291,1824.5C 1289.71,1817.05 1291.88,1811.05 1297.5,1806.5 Z"/></g>
<g><path style="opacity:1" fill="#575555" d="M 1297.5,1846.5 C 1303.59,1845.14 1308.09,1847.14 1311,1852.5C 1311.51,1858.11 1310.51,1863.45 1308,1868.5C 1300.73,1873.52 1295.06,1872.18 1291,1864.5C 1289.71,1857.05 1291.88,1851.05 1297.5,1846.5 Z"/></g>
<g><path style="opacity:1" fill="#575555" d="M 1297.5,1886.5 C 1303.59,1885.14 1308.09,1887.14 1311,1892.5C 1311.51,1898.11 1310.51,1903.45 1308,1908.5C 1300.73,1913.52 1295.06,1912.18 1291,1904.5C 1289.71,1897.05 1291.88,1891.05 1297.5,1886.5 Z"/></g>
<g><path style="opacity:1" fill="#575555" d="M 1297.5,1926.5 C 1303.59,1925.14 1308.09,1927.14 1311,1932.5C 1311.51,1938.11 1310.51,1943.45 1308,1948.5C 1300.73,1953.52 1295.06,1952.18 1291,1944.5C 1289.71,1937.05 1291.88,1931.05 1297.5,1926.5 Z"/></g>
<g><path style="opacity:1" fill="#575656" d="M 1297.5,1966.5 C 1303.59,1965.14 1308.09,1967.14 1311,1972.5C 1311.51,1978.11 1310.51,1983.45 1308,1988.5C 1300.73,1993.52 1295.06,1992.18 1291,1984.5C 1289.71,1977.05 1291.88,1971.05 1297.5,1966.5 Z"/></g>
<g><path style="opacity:1" fill="#575656" d="M 1297.5,2006.5 C 1303.59,2005.14 1308.09,2007.14 1311,2012.5C 1311.51,2018.11 1310.51,2023.45 1308,2028.5C 1300.73,2033.52 1295.06,2032.18 1291,2024.5C 1289.71,2017.05 1291.88,2011.05 1297.5,2006.5 Z"/></g>
<g><path style="opacity:1" fill="#585656" d="M 1297.5,2046.5 C 1303.59,2045.14 1308.09,2047.14 1311,2052.5C 1311.51,2058.11 1310.51,2063.45 1308,2068.5C 1300.73,2073.52 1295.06,2072.18 1291,2064.5C 1289.71,2057.05 1291.88,2051.05 1297.5,2046.5 Z"/></g>
<g><path style="opacity:1" fill="#575656" d="M 1297.5,2086.5 C 1310.24,2086.28 1314.41,2092.28 1310,2104.5C 1307.32,2110.26 1302.82,2112.42 1296.5,2111C 1290.26,2106.08 1288.76,2099.92 1292,2092.5C 1293.36,2089.98 1295.19,2087.98 1297.5,2086.5 Z"/></g>
<g><path style="opacity:1" fill="#585656" d="M 1297.5,2126.5 C 1310.24,2126.28 1314.41,2132.28 1310,2144.5C 1307.32,2150.26 1302.82,2152.42 1296.5,2151C 1290.26,2146.08 1288.76,2139.92 1292,2132.5C 1293.36,2129.98 1295.19,2127.98 1297.5,2126.5 Z"/></g>
<g><path style="opacity:1" fill="#575656" d="M 1297.5,2166.5 C 1310.24,2166.28 1314.41,2172.28 1310,2184.5C 1307.32,2190.26 1302.82,2192.42 1296.5,2191C 1290.26,2186.08 1288.76,2179.92 1292,2172.5C 1293.36,2169.98 1295.19,2167.98 1297.5,2166.5 Z"/></g>
<g><path style="opacity:1" fill="#575555" d="M 1297.5,2206.5 C 1310.24,2206.28 1314.41,2212.28 1310,2224.5C 1306.94,2230.94 1302.11,2232.78 1295.5,2230C 1290.1,2225.13 1288.94,2219.3 1292,2212.5C 1293.36,2209.98 1295.19,2207.98 1297.5,2206.5 Z"/></g>
<g><path style="opacity:1" fill="#575555" d="M 1297.5,2246.5 C 1310.24,2246.28 1314.41,2252.28 1310,2264.5C 1306.94,2270.94 1302.11,2272.78 1295.5,2270C 1290.1,2265.13 1288.94,2259.3 1292,2252.5C 1293.36,2249.98 1295.19,2247.98 1297.5,2246.5 Z"/></g>
<g><path style="opacity:1" fill="#575555" d="M 1297.5,2286.5 C 1310.24,2286.28 1314.41,2292.28 1310,2304.5C 1306.94,2310.94 1302.11,2312.78 1295.5,2310C 1290.1,2305.13 1288.94,2299.3 1292,2292.5C 1293.36,2289.98 1295.19,2287.98 1297.5,2286.5 Z"/></g>
<g><path style="opacity:1" fill="#575555" d="M 1297.5,2326.5 C 1303.59,2325.14 1308.09,2327.14 1311,2332.5C 1311.38,2337.29 1310.71,2341.95 1309,2346.5C 1302.27,2353.61 1296.27,2352.94 1291,2344.5C 1289.88,2337.16 1292.05,2331.16 1297.5,2326.5 Z"/></g>
<g><path style="opacity:1" fill="#575555" d="M 1297.5,2366.5 C 1303.59,2365.14 1308.09,2367.14 1311,2372.5C 1311.38,2377.29 1310.71,2381.95 1309,2386.5C 1302.27,2393.61 1296.27,2392.94 1291,2384.5C 1289.88,2377.16 1292.05,2371.16 1297.5,2366.5 Z"/></g>
<g><path style="opacity:1" fill="#575555" d="M 1297.5,2406.5 C 1303.59,2405.14 1308.09,2407.14 1311,2412.5C 1311.38,2417.29 1310.71,2421.95 1309,2426.5C 1302.27,2433.61 1296.27,2432.94 1291,2424.5C 1289.88,2417.16 1292.05,2411.16 1297.5,2406.5 Z"/></g>
<g><path style="opacity:1" fill="#575555" d="M 1297.5,2446.5 C 1303.59,2445.14 1308.09,2447.14 1311,2452.5C 1311.38,2457.29 1310.71,2461.95 1309,2466.5C 1302.27,2473.61 1296.27,2472.94 1291,2464.5C 1289.88,2457.16 1292.05,2451.16 1297.5,2446.5 Z"/></g>
<g><path style="opacity:1" fill="#575555" d="M 1297.5,2486.5 C 1305.22,2485.01 1309.89,2488.01 1311.5,2495.5C 1311.03,2500.03 1309.86,2504.36 1308,2508.5C 1299.09,2513.8 1293.26,2511.46 1290.5,2501.5C 1290.47,2495.24 1292.8,2490.24 1297.5,2486.5 Z"/></g>
</svg>
