<?xml version="1.0" encoding="UTF-8"?>
<!DOCTYPE svg PUBLIC "-//W3C//DTD SVG 1.1//EN" "http://www.w3.org/Graphics/SVG/1.1/DTD/svg11.dtd">
<svg xmlns="http://www.w3.org/2000/svg" version="1.1" width="2598px" height="2598px" style="shape-rendering:geometricPrecision; text-rendering:geometricPrecision; image-rendering:optimizeQuality; fill-rule:evenodd; clip-rule:evenodd" xmlns:xlink="http://www.w3.org/1999/xlink">
<g><path style="opacity:1" fill="#fefffe" d="M -0.5,-0.5 C 865.5,-0.5 1731.5,-0.5 2597.5,-0.5C 2597.5,865.5 2597.5,1731.5 2597.5,2597.5C 1731.5,2597.5 865.5,2597.5 -0.5,2597.5C -0.5,1731.5 -0.5,865.5 -0.5,-0.5 Z"/></g>
<g><path style="opacity:1" fill="#000000" d="M 48.5,50.5 C 881.833,50.5 1715.17,50.5 2548.5,50.5C 2548.5,883.833 2548.5,1717.17 2548.5,2550.5C 1715.17,2550.5 881.833,2550.5 48.5,2550.5C 48.5,1717.17 48.5,883.833 48.5,50.5 Z"/></g>
<g><path style="opacity:1" fill="#fefefe" d="M 68.5,70.5 C 888.5,70.5 1708.5,70.5 2528.5,70.5C 2528.5,614.5 2528.5,1158.5 2528.5,1702.5C 2505.17,1702.5 2481.83,1702.5 2458.5,1702.5C 2458.5,1709.17 2458.5,1715.83 2458.5,1722.5C 2481.83,1722.5 2505.17,1722.5 2528.5,1722.5C 2528.5,1991.5 2528.5,2260.5 2528.5,2529.5C 1708.52,2530.6 888.524,2530.6 68.5,2529.5C 68.5,2260.5 68.5,1991.5 68.5,1722.5C 91.8333,1722.5 115.167,1722.5 138.5,1722.5C 138.5,1715.83 138.5,1709.17 138.5,1702.5C 115.167,1702.5 91.8333,1702.5 68.5,1702.5C 68.5,1434.17 68.5,1165.83 68.5,897.5C 83.5,897.5 98.5,897.5 113.5,897.5C 113.5,890.833 113.5,884.167 113.5,877.5C 98.5,877.5 83.5,877.5 68.5,877.5C 68.5,608.5 68.5,339.5 68.5,70.5 Z"/></g>
<g><path style="opacity:1" fill="#000000" d="M 1702.5,86.5 C 1709.17,86.5 1715.83,86.5 1722.5,86.5C 1722.5,113.167 1722.5,139.833 1722.5,166.5C 1715.83,166.5 1709.17,166.5 1702.5,166.5C 1702.5,139.833 1702.5,113.167 1702.5,86.5 Z"/></g>
<g><path style="opacity:1" fill="#000000" d="M 848.5,189.5 C 849.962,190.458 851.295,191.624 852.5,193C 978.166,193.5 1103.83,193.667 1229.5,193.5C 1229.59,235.645 1229.59,277.645 1229.5,319.5C 1225.15,319.334 1220.82,319.501 1216.5,320C 1164.32,372.014 1112.32,424.18 1060.5,476.5C 1124.65,541.153 1188.99,605.653 1253.5,670C 1224,699.5 1194.5,729 1165,758.5C 1100.65,693.986 1036.15,629.653 971.5,565.5C 911.514,624.986 851.68,684.653 792,744.5C 762.5,715 733,685.5 703.5,656C 729.5,630 755.5,604 781.5,578C 757.653,553.986 733.653,530.153 709.5,506.5C 639.18,576.32 569.014,646.32 499,716.5C 469.5,687 440,657.5 410.5,628C 513.167,525.333 615.833,422.667 718.5,320C 627.501,319.5 536.501,319.333 445.5,319.5C 445.5,277.5 445.5,235.5 445.5,193.5C 578.834,193.667 712.167,193.5 845.5,193C 846.71,191.961 847.71,190.794 848.5,189.5 Z"/></g>
<g><path style="opacity:1" fill="#000000" d="M 1702.5,206.5 C 1709.17,206.5 1715.83,206.5 1722.5,206.5C 1722.5,233.167 1722.5,259.833 1722.5,286.5C 1715.83,286.5 1709.17,286.5 1702.5,286.5C 1702.5,259.833 1702.5,233.167 1702.5,206.5 Z"/></g>
<g><path style="opacity:1" fill="#fdfdfd" d="M 895.5,319.5 C 943.501,319.333 991.501,319.5 1039.5,320C 983,376.5 926.5,433 870,489.5C 845.986,465.653 822.153,441.653 798.5,417.5C 830.854,384.812 863.188,352.146 895.5,319.5 Z"/></g>
<g><path style="opacity:1" fill="#000000" d="M 1702.5,326.5 C 1709.17,326.5 1715.83,326.5 1722.5,326.5C 1722.5,353.167 1722.5,379.833 1722.5,406.5C 1715.83,406.5 1709.17,406.5 1702.5,406.5C 1702.5,379.833 1702.5,353.167 1702.5,326.5 Z"/></g>
<g><path style="opacity:1" fill="#000000" d="M 1702.5,446.5 C 1709.17,446.5 1715.83,446.5 1722.5,446.5C 1722.5,473.167 1722.5,499.833 1722.5,526.5C 1715.83,526.5 1709.17,526.5 1702.5,526.5C 1702.5,499.833 1702.5,473.167 1702.5,446.5 Z"/></g>
<g><path style="opacity:1" fill="#000000" d="M 1702.5,566.5 C 1709.17,566.5 1715.83,566.5 1722.5,566.5C 1722.5,593.167 1722.5,619.833 1722.5,646.5C 1715.83,646.5 1709.17,646.5 1702.5,646.5C 1702.5,619.833 1702.5,593.167 1702.5,566.5 Z"/></g>
<g><path style="opacity:1" fill="#000000" d="M 1702.5,686.5 C 1709.17,686.5 1715.83,686.5 1722.5,686.5C 1722.5,713.167 1722.5,739.833 1722.5,766.5C 1715.83,766.5 1709.17,766.5 1702.5,766.5C 1702.5,739.833 1702.5,713.167 1702.5,686.5 Z"/></g>
<g><path style="opacity:1" fill="#000000" d="M 1702.5,806.5 C 1709.17,806.5 1715.83,806.5 1722.5,806.5C 1722.5,833.167 1722.5,859.833 1722.5,886.5C 1715.83,886.5 1709.17,886.5 1702.5,886.5C 1702.5,859.833 1702.5,833.167 1702.5,806.5 Z"/></g>
<g><path style="opacity:1" fill="#000000" d="M 153.5,877.5 C 180.167,877.5 206.833,877.5 233.5,877.5C 233.5,884.167 233.5,890.833 233.5,897.5C 206.833,897.5 180.167,897.5 153.5,897.5C 153.5,890.833 153.5,884.167 153.5,877.5 Z"/></g>
<g><path style="opacity:1" fill="#000000" d="M 273.5,877.5 C 300.167,877.5 326.833,877.5 353.5,877.5C 353.5,884.167 353.5,890.833 353.5,897.5C 326.833,897.5 300.167,897.5 273.5,897.5C 273.5,890.833 273.5,884.167 273.5,877.5 Z"/></g>
<g><path style="opacity:1" fill="#000000" d="M 393.5,877.5 C 420.167,877.5 446.833,877.5 473.5,877.5C 473.5,884.167 473.5,890.833 473.5,897.5C 446.833,897.5 420.167,897.5 393.5,897.5C 393.5,890.833 393.5,884.167 393.5,877.5 Z"/></g>
<g><path style="opacity:1" fill="#000000" d="M 513.5,877.5 C 540.167,877.5 566.833,877.5 593.5,877.5C 593.5,884.167 593.5,890.833 593.5,897.5C 566.833,897.5 540.167,897.5 513.5,897.5C 513.5,890.833 513.5,884.167 513.5,877.5 Z"/></g>
<g><path style="opacity:1" fill="#000000" d="M 633.5,877.5 C 660.167,877.5 686.833,877.5 713.5,877.5C 713.5,884.167 713.5,890.833 713.5,897.5C 686.833,897.5 660.167,897.5 633.5,897.5C 633.5,890.833 633.5,884.167 633.5,877.5 Z"/></g>
<g><path style="opacity:1" fill="#000000" d="M 753.5,877.5 C 780.167,877.5 806.833,877.5 833.5,877.5C 833.5,884.167 833.5,890.833 833.5,897.5C 806.833,897.5 780.167,897.5 753.5,897.5C 753.5,890.833 753.5,884.167 753.5,877.5 Z"/></g>
<g><path style="opacity:1" fill="#000000" d="M 873.5,877.5 C 900.167,877.5 926.833,877.5 953.5,877.5C 953.5,884.167 953.5,890.833 953.5,897.5C 926.833,897.5 900.167,897.5 873.5,897.5C 873.5,890.833 873.5,884.167 873.5,877.5 Z"/></g>
<g><path style="opacity:1" fill="#000000" d="M 993.5,877.5 C 1020.17,877.5 1046.83,877.5 1073.5,877.5C 1073.5,884.167 1073.5,890.833 1073.5,897.5C 1046.83,897.5 1020.17,897.5 993.5,897.5C 993.5,890.833 993.5,884.167 993.5,877.5 Z"/></g>
<g><path style="opacity:1" fill="#000000" d="M 1113.5,877.5 C 1140.17,877.5 1166.83,877.5 1193.5,877.5C 1193.5,884.167 1193.5,890.833 1193.5,897.5C 1166.83,897.5 1140.17,897.5 1113.5,897.5C 1113.5,890.833 1113.5,884.167 1113.5,877.5 Z"/></g>
<g><path style="opacity:1" fill="#000000" d="M 1233.5,877.5 C 1260.17,877.5 1286.83,877.5 1313.5,877.5C 1313.5,884.167 1313.5,890.833 1313.5,897.5C 1286.83,897.5 1260.17,897.5 1233.5,897.5C 1233.5,890.833 1233.5,884.167 1233.5,877.5 Z"/></g>
<g><path style="opacity:1" fill="#000000" d="M 1353.5,877.5 C 1380.17,877.5 1406.83,877.5 1433.5,877.5C 1433.5,884.167 1433.5,890.833 1433.5,897.5C 1406.83,897.5 1380.17,897.5 1353.5,897.5C 1353.5,890.833 1353.5,884.167 1353.5,877.5 Z"/></g>
<g><path style="opacity:1" fill="#000000" d="M 1473.5,877.5 C 1500.17,877.5 1526.83,877.5 1553.5,877.5C 1553.5,884.167 1553.5,890.833 1553.5,897.5C 1526.83,897.5 1500.17,897.5 1473.5,897.5C 1473.5,890.833 1473.5,884.167 1473.5,877.5 Z"/></g>
<g><path style="opacity:1" fill="#000000" d="M 1593.5,877.5 C 1620.17,877.5 1646.83,877.5 1673.5,877.5C 1673.5,884.167 1673.5,890.833 1673.5,897.5C 1646.83,897.5 1620.17,897.5 1593.5,897.5C 1593.5,890.833 1593.5,884.167 1593.5,877.5 Z"/></g>
<g><path style="opacity:1" fill="#000000" d="M 178.5,1702.5 C 205.167,1702.5 231.833,1702.5 258.5,1702.5C 258.5,1709.17 258.5,1715.83 258.5,1722.5C 231.833,1722.5 205.167,1722.5 178.5,1722.5C 178.5,1715.83 178.5,1709.17 178.5,1702.5 Z"/></g>
<g><path style="opacity:1" fill="#000000" d="M 298.5,1702.5 C 325.167,1702.5 351.833,1702.5 378.5,1702.5C 378.5,1709.17 378.5,1715.83 378.5,1722.5C 351.833,1722.5 325.167,1722.5 298.5,1722.5C 298.5,1715.83 298.5,1709.17 298.5,1702.5 Z"/></g>
<g><path style="opacity:1" fill="#000000" d="M 418.5,1702.5 C 445.167,1702.5 471.833,1702.5 498.5,1702.5C 498.5,1709.17 498.5,1715.83 498.5,1722.5C 471.833,1722.5 445.167,1722.5 418.5,1722.5C 418.5,1715.83 418.5,1709.17 418.5,1702.5 Z"/></g>
<g><path style="opacity:1" fill="#000000" d="M 538.5,1702.5 C 565.167,1702.5 591.833,1702.5 618.5,1702.5C 618.5,1709.17 618.5,1715.83 618.5,1722.5C 591.833,1722.5 565.167,1722.5 538.5,1722.5C 538.5,1715.83 538.5,1709.17 538.5,1702.5 Z"/></g>
<g><path style="opacity:1" fill="#000000" d="M 658.5,1702.5 C 685.167,1702.5 711.833,1702.5 738.5,1702.5C 738.5,1709.17 738.5,1715.83 738.5,1722.5C 711.833,1722.5 685.167,1722.5 658.5,1722.5C 658.5,1715.83 658.5,1709.17 658.5,1702.5 Z"/></g>
<g><path style="opacity:1" fill="#000000" d="M 778.5,1702.5 C 805.167,1702.5 831.833,1702.5 858.5,1702.5C 858.5,1709.17 858.5,1715.83 858.5,1722.5C 831.833,1722.5 805.167,1722.5 778.5,1722.5C 778.5,1715.83 778.5,1709.17 778.5,1702.5 Z"/></g>
<g><path style="opacity:1" fill="#000000" d="M 898.5,1702.5 C 925.167,1702.5 951.833,1702.5 978.5,1702.5C 978.5,1709.17 978.5,1715.83 978.5,1722.5C 951.833,1722.5 925.167,1722.5 898.5,1722.5C 898.5,1715.83 898.5,1709.17 898.5,1702.5 Z"/></g>
<g><path style="opacity:1" fill="#000000" d="M 1018.5,1702.5 C 1045.17,1702.5 1071.83,1702.5 1098.5,1702.5C 1098.5,1709.17 1098.5,1715.83 1098.5,1722.5C 1071.83,1722.5 1045.17,1722.5 1018.5,1722.5C 1018.5,1715.83 1018.5,1709.17 1018.5,1702.5 Z"/></g>
<g><path style="opacity:1" fill="#000000" d="M 1138.5,1702.5 C 1165.17,1702.5 1191.83,1702.5 1218.5,1702.5C 1218.5,1709.17 1218.5,1715.83 1218.5,1722.5C 1191.83,1722.5 1165.17,1722.5 1138.5,1722.5C 1138.5,1715.83 1138.5,1709.17 1138.5,1702.5 Z"/></g>
<g><path style="opacity:1" fill="#000000" d="M 1258.5,1702.5 C 1285.17,1702.5 1311.83,1702.5 1338.5,1702.5C 1338.5,1709.17 1338.5,1715.83 1338.5,1722.5C 1311.83,1722.5 1285.17,1722.5 1258.5,1722.5C 1258.5,1715.83 1258.5,1709.17 1258.5,1702.5 Z"/></g>
<g><path style="opacity:1" fill="#000000" d="M 1378.5,1702.5 C 1405.17,1702.5 1431.83,1702.5 1458.5,1702.5C 1458.5,1709.17 1458.5,1715.83 1458.5,1722.5C 1431.83,1722.5 1405.17,1722.5 1378.5,1722.5C 1378.5,1715.83 1378.5,1709.17 1378.5,1702.5 Z"/></g>
<g><path style="opacity:1" fill="#000000" d="M 1498.5,1702.5 C 1525.17,1702.5 1551.83,1702.5 1578.5,1702.5C 1578.5,1709.17 1578.5,1715.83 1578.5,1722.5C 1551.83,1722.5 1525.17,1722.5 1498.5,1722.5C 1498.5,1715.83 1498.5,1709.17 1498.5,1702.5 Z"/></g>
<g><path style="opacity:1" fill="#000000" d="M 1618.5,1702.5 C 1645.17,1702.5 1671.83,1702.5 1698.5,1702.5C 1698.5,1709.17 1698.5,1715.83 1698.5,1722.5C 1671.83,1722.5 1645.17,1722.5 1618.5,1722.5C 1618.5,1715.83 1618.5,1709.17 1618.5,1702.5 Z"/></g>
<g><path style="opacity:1" fill="#000000" d="M 1738.5,1702.5 C 1765.17,1702.5 1791.83,1702.5 1818.5,1702.5C 1818.5,1709.17 1818.5,1715.83 1818.5,1722.5C 1791.83,1722.5 1765.17,1722.5 1738.5,1722.5C 1738.5,1715.83 1738.5,1709.17 1738.5,1702.5 Z"/></g>
<g><path style="opacity:1" fill="#000000" d="M 1858.5,1702.5 C 1885.17,1702.5 1911.83,1702.5 1938.5,1702.5C 1938.5,1709.17 1938.5,1715.83 1938.5,1722.5C 1911.83,1722.5 1885.17,1722.5 1858.5,1722.5C 1858.5,1715.83 1858.5,1709.17 1858.5,1702.5 Z"/></g>
<g><path style="opacity:1" fill="#000000" d="M 1978.5,1702.5 C 2005.17,1702.5 2031.83,1702.5 2058.5,1702.5C 2058.5,1709.17 2058.5,1715.83 2058.5,1722.5C 2031.83,1722.5 2005.17,1722.5 1978.5,1722.5C 1978.5,1715.83 1978.5,1709.17 1978.5,1702.5 Z"/></g>
<g><path style="opacity:1" fill="#000000" d="M 2098.5,1702.5 C 2125.17,1702.5 2151.83,1702.5 2178.5,1702.5C 2178.5,1709.17 2178.5,1715.83 2178.5,1722.5C 2151.83,1722.5 2125.17,1722.5 2098.5,1722.5C 2098.5,1715.83 2098.5,1709.17 2098.5,1702.5 Z"/></g>
<g><path style="opacity:1" fill="#000000" d="M 2218.5,1702.5 C 2245.17,1702.5 2271.83,1702.5 2298.5,1702.5C 2298.5,1709.17 2298.5,1715.83 2298.5,1722.5C 2271.83,1722.5 2245.17,1722.5 2218.5,1722.5C 2218.5,1715.83 2218.5,1709.17 2218.5,1702.5 Z"/></g>
<g><path style="opacity:1" fill="#000000" d="M 2338.5,1702.5 C 2365.17,1702.5 2391.83,1702.5 2418.5,1702.5C 2418.5,1709.17 2418.5,1715.83 2418.5,1722.5C 2391.83,1722.5 2365.17,1722.5 2338.5,1722.5C 2338.5,1715.83 2338.5,1709.17 2338.5,1702.5 Z"/></g>
</svg>
