<?xml version="1.0" encoding="UTF-8"?>
<!DOCTYPE svg PUBLIC "-//W3C//DTD SVG 1.1//EN" "http://www.w3.org/Graphics/SVG/1.1/DTD/svg11.dtd">
<svg xmlns="http://www.w3.org/2000/svg" version="1.1" width="2598px" height="2598px" style="shape-rendering:geometricPrecision; text-rendering:geometricPrecision; image-rendering:optimizeQuality; fill-rule:evenodd; clip-rule:evenodd" xmlns:xlink="http://www.w3.org/1999/xlink">
<g><path style="opacity:1" fill="#fefffe" d="M -0.5,-0.5 C 865.5,-0.5 1731.5,-0.5 2597.5,-0.5C 2597.5,865.5 2597.5,1731.5 2597.5,2597.5C 1731.5,2597.5 865.5,2597.5 -0.5,2597.5C -0.5,1731.5 -0.5,865.5 -0.5,-0.5 Z"/></g>
<g><path style="opacity:1" fill="#000000" d="M 48.5,50.5 C 881.833,50.5 1715.17,50.5 2548.5,50.5C 2548.5,883.833 2548.5,1717.17 2548.5,2550.5C 1715.17,2550.5 881.833,2550.5 48.5,2550.5C 48.5,1717.17 48.5,883.833 48.5,50.5 Z"/></g>
<g><path style="opacity:1" fill="#fefefe" d="M 68.5,70.5 C 888.5,70.5 1708.5,70.5 2528.5,70.5C 2528.5,614.5 2528.5,1158.5 2528.5,1702.5C 2505.17,1702.5 2481.83,1702.5 2458.5,1702.5C 2458.5,1709.17 2458.5,1715.83 2458.5,1722.5C 2481.83,1722.5 2505.17,1722.5 2528.5,1722.5C 2528.5,1991.5 2528.5,2260.5 2528.5,2529.5C 1708.52,2530.6 888.524,2530.6 68.5,2529.5C 68.5,2260.5 68.5,1991.5 68.5,1722.5C 91.8333,1722.5 115.167,1722.5 138.5,1722.5C 138.5,1715.83 138.5,1709.17 138.5,1702.5C 115.167,1702.5 91.8333,1702.5 68.5,1702.5C 68.5,1434.17 68.5,1165.83 68.5,897.5C 83.5,897.5 98.5,897.5 113.5,897.5C 113.5,890.833 113.5,884.167 113.5,877.5C 98.5,877.5 83.5,877.5 68.5,877.5C 68.5,608.5 68.5,339.5 68.5,70.5 Z"/></g>
<g><path style="opacity:1" fill="#000000" d="M 1702.5,86.5 C 1709.17,86.5 1715.83,86.5 1722.5,86.5C 1722.5,113.167 1722.5,139.833 1722.5,166.5C 1715.83,166.5 1709.17,166.5 1702.5,166.5C 1702.5,139.833 1702.5,113.167 1702.5,86.5 Z"/></g>
<g><path style="opacity:1" fill="#000000" d="M 1702.5,206.5 C 1709.17,206.5 1715.83,206.5 1722.5,206.5C 1722.5,233.167 1722.5,259.833 1722.5,286.5C 1715.83,286.5 1709.17,286.5 1702.5,286.5C 1702.5,259.833 1702.5,233.167 1702.5,206.5 Z"/></g>
<g><path style="opacity:1" fill="#000000" d="M 1702.5,326.5 C 1709.17,326.5 1715.83,326.5 1722.5,326.5C 1722.5,353.167 1722.5,379.833 1722.5,406.5C 1715.83,406.5 1709.17,406.5 1702.5,406.5C 1702.5,379.833 1702.5,353.167 1702.5,326.5 Z"/></g>
<g><path style="opacity:1" fill="#000000" d="M 1702.5,446.5 C 1709.17,446.5 1715.83,446.5 1722.5,446.5C 1722.5,473.167 1722.5,499.833 1722.5,526.5C 1715.83,526.5 1709.17,526.5 1702.5,526.5C 1702.5,499.833 1702.5,473.167 1702.5,446.5 Z"/></g>
<g><path style="opacity:1" fill="#000000" d="M 1277.5,550.5 C 1437.5,546.994 1579,595.661 1702,696.5C 1702.5,693.183 1702.67,689.85 1702.5,686.5C 1709.17,686.5 1715.83,686.5 1722.5,686.5C 1722.33,695.839 1722.5,705.173 1723,714.5C 1800.71,787.252 1860.05,872.919 1901,971.5C 1949.97,1089.63 1970.31,1212.63 1962,1340.5C 1951.89,1503.6 1897.89,1649.93 1800,1779.5C 1702.53,1903.2 1576.36,1981.7 1421.5,2015C 1261.49,2044.06 1112.82,2015.4 975.5,1929C 886.21,1870.05 814.377,1794.55 760,1702.5C 668.755,1543.28 633.421,1372.28 654,1189.5C 666.792,1082.12 699.792,981.458 753,887.5C 753.498,884.183 753.665,880.85 753.5,877.5C 756.044,877.896 758.211,877.229 760,875.5C 844.482,731.296 965.982,632.13 1124.5,578C 1174.55,562.994 1225.55,553.827 1277.5,550.5 Z"/></g>
<g><path style="opacity:1" fill="#000000" d="M 1702.5,566.5 C 1709.17,566.5 1715.83,566.5 1722.5,566.5C 1722.5,593.167 1722.5,619.833 1722.5,646.5C 1715.83,646.5 1709.17,646.5 1702.5,646.5C 1702.5,619.833 1702.5,593.167 1702.5,566.5 Z"/></g>
<g><path style="opacity:1" fill="#fefefe" d="M 1280.5,763.5 C 1353.43,759.784 1421.76,775.617 1485.5,811C 1525.34,833.483 1561.17,861.316 1593,894.5C 1593.48,895.448 1593.65,896.448 1593.5,897.5C 1597.36,899.846 1600.86,902.846 1604,906.5C 1681.73,1003.6 1725.39,1114.6 1735,1239.5C 1744.01,1359.14 1721.01,1472.14 1666,1578.5C 1641.86,1624.58 1611.03,1665.75 1573.5,1702C 1548.5,1702.5 1523.5,1702.67 1498.5,1702.5C 1498.5,1709.17 1498.5,1715.83 1498.5,1722.5C 1515.5,1722.33 1532.5,1722.5 1549.5,1723C 1488.81,1773.16 1419.15,1802.83 1340.5,1812C 1256.7,1819.72 1179.36,1801.05 1108.5,1756C 1092.46,1745.98 1077.13,1734.98 1062.5,1723C 1074.5,1722.5 1086.5,1722.33 1098.5,1722.5C 1098.5,1715.83 1098.5,1709.17 1098.5,1702.5C 1078.5,1702.67 1058.5,1702.5 1038.5,1702C 989.621,1653.45 951.787,1597.28 925,1533.5C 869.45,1397.53 860.784,1258.53 899,1116.5C 919.453,1045.26 951.786,980.263 996,921.5C 1002.46,913.371 1009.29,905.537 1016.5,898C 1035.5,897.5 1054.5,897.333 1073.5,897.5C 1073.5,890.833 1073.5,884.167 1073.5,877.5C 1061.16,877.667 1048.83,877.5 1036.5,877C 1083.97,831.28 1139.3,798.28 1202.5,778C 1228.18,770.667 1254.18,765.833 1280.5,763.5 Z"/></g>
<g><path style="opacity:1" fill="#000000" d="M 153.5,877.5 C 180.167,877.5 206.833,877.5 233.5,877.5C 233.5,884.167 233.5,890.833 233.5,897.5C 206.833,897.5 180.167,897.5 153.5,897.5C 153.5,890.833 153.5,884.167 153.5,877.5 Z"/></g>
<g><path style="opacity:1" fill="#000000" d="M 273.5,877.5 C 300.167,877.5 326.833,877.5 353.5,877.5C 353.5,884.167 353.5,890.833 353.5,897.5C 326.833,897.5 300.167,897.5 273.5,897.5C 273.5,890.833 273.5,884.167 273.5,877.5 Z"/></g>
<g><path style="opacity:1" fill="#000000" d="M 393.5,877.5 C 420.167,877.5 446.833,877.5 473.5,877.5C 473.5,884.167 473.5,890.833 473.5,897.5C 446.833,897.5 420.167,897.5 393.5,897.5C 393.5,890.833 393.5,884.167 393.5,877.5 Z"/></g>
<g><path style="opacity:1" fill="#000000" d="M 513.5,877.5 C 540.167,877.5 566.833,877.5 593.5,877.5C 593.5,884.167 593.5,890.833 593.5,897.5C 566.833,897.5 540.167,897.5 513.5,897.5C 513.5,890.833 513.5,884.167 513.5,877.5 Z"/></g>
<g><path style="opacity:1" fill="#000000" d="M 633.5,877.5 C 660.167,877.5 686.833,877.5 713.5,877.5C 713.5,884.167 713.5,890.833 713.5,897.5C 686.833,897.5 660.167,897.5 633.5,897.5C 633.5,890.833 633.5,884.167 633.5,877.5 Z"/></g>
<g><path style="opacity:1" fill="#000000" d="M 1113.5,877.5 C 1140.17,877.5 1166.83,877.5 1193.5,877.5C 1193.5,884.167 1193.5,890.833 1193.5,897.5C 1166.83,897.5 1140.17,897.5 1113.5,897.5C 1113.5,890.833 1113.5,884.167 1113.5,877.5 Z"/></g>
<g><path style="opacity:1" fill="#000000" d="M 1233.5,877.5 C 1260.17,877.5 1286.83,877.5 1313.5,877.5C 1313.5,884.167 1313.5,890.833 1313.5,897.5C 1286.83,897.5 1260.17,897.5 1233.5,897.5C 1233.5,890.833 1233.5,884.167 1233.5,877.5 Z"/></g>
<g><path style="opacity:1" fill="#000000" d="M 1353.5,877.5 C 1380.17,877.5 1406.83,877.5 1433.5,877.5C 1433.5,884.167 1433.5,890.833 1433.5,897.5C 1406.83,897.5 1380.17,897.5 1353.5,897.5C 1353.5,890.833 1353.5,884.167 1353.5,877.5 Z"/></g>
<g><path style="opacity:1" fill="#000000" d="M 1473.5,877.5 C 1500.17,877.5 1526.83,877.5 1553.5,877.5C 1553.5,884.167 1553.5,890.833 1553.5,897.5C 1526.83,897.5 1500.17,897.5 1473.5,897.5C 1473.5,890.833 1473.5,884.167 1473.5,877.5 Z"/></g>
<g><path style="opacity:1" fill="#000000" d="M 178.5,1702.5 C 205.167,1702.5 231.833,1702.5 258.5,1702.5C 258.5,1709.17 258.5,1715.83 258.5,1722.5C 231.833,1722.5 205.167,1722.5 178.5,1722.5C 178.5,1715.83 178.5,1709.17 178.5,1702.5 Z"/></g>
<g><path style="opacity:1" fill="#000000" d="M 298.5,1702.5 C 325.167,1702.5 351.833,1702.5 378.5,1702.5C 378.5,1709.17 378.5,1715.83 378.5,1722.5C 351.833,1722.5 325.167,1722.5 298.5,1722.5C 298.5,1715.83 298.5,1709.17 298.5,1702.5 Z"/></g>
<g><path style="opacity:1" fill="#000000" d="M 418.5,1702.5 C 445.167,1702.5 471.833,1702.5 498.5,1702.5C 498.5,1709.17 498.5,1715.83 498.5,1722.5C 471.833,1722.5 445.167,1722.5 418.5,1722.5C 418.5,1715.83 418.5,1709.17 418.5,1702.5 Z"/></g>
<g><path style="opacity:1" fill="#000000" d="M 538.5,1702.5 C 565.167,1702.5 591.833,1702.5 618.5,1702.5C 618.5,1709.17 618.5,1715.83 618.5,1722.5C 591.833,1722.5 565.167,1722.5 538.5,1722.5C 538.5,1715.83 538.5,1709.17 538.5,1702.5 Z"/></g>
<g><path style="opacity:1" fill="#000000" d="M 658.5,1702.5 C 685.167,1702.5 711.833,1702.5 738.5,1702.5C 738.5,1709.17 738.5,1715.83 738.5,1722.5C 711.833,1722.5 685.167,1722.5 658.5,1722.5C 658.5,1715.83 658.5,1709.17 658.5,1702.5 Z"/></g>
<g><path style="opacity:1" fill="#000000" d="M 1138.5,1702.5 C 1165.17,1702.5 1191.83,1702.5 1218.5,1702.5C 1218.5,1709.17 1218.5,1715.83 1218.5,1722.5C 1191.83,1722.5 1165.17,1722.5 1138.5,1722.5C 1138.5,1715.83 1138.5,1709.17 1138.5,1702.5 Z"/></g>
<g><path style="opacity:1" fill="#000000" d="M 1258.5,1702.5 C 1285.17,1702.5 1311.83,1702.5 1338.5,1702.5C 1338.5,1709.17 1338.5,1715.83 1338.5,1722.5C 1311.83,1722.5 1285.17,1722.5 1258.5,1722.5C 1258.5,1715.83 1258.5,1709.17 1258.5,1702.5 Z"/></g>
<g><path style="opacity:1" fill="#000000" d="M 1378.5,1702.5 C 1405.17,1702.5 1431.83,1702.5 1458.5,1702.5C 1458.5,1709.17 1458.5,1715.83 1458.5,1722.5C 1431.83,1722.5 1405.17,1722.5 1378.5,1722.5C 1378.5,1715.83 1378.5,1709.17 1378.5,1702.5 Z"/></g>
<g><path style="opacity:1" fill="#000000" d="M 1858.5,1702.5 C 1885.17,1702.5 1911.83,1702.5 1938.5,1702.5C 1938.5,1709.17 1938.5,1715.83 1938.5,1722.5C 1911.83,1722.5 1885.17,1722.5 1858.5,1722.5C 1858.5,1715.83 1858.5,1709.17 1858.5,1702.5 Z"/></g>
<g><path style="opacity:1" fill="#000000" d="M 1978.5,1702.5 C 2005.17,1702.5 2031.83,1702.5 2058.5,1702.5C 2058.5,1709.17 2058.5,1715.83 2058.5,1722.5C 2031.83,1722.5 2005.17,1722.5 1978.5,1722.5C 1978.5,1715.83 1978.5,1709.17 1978.5,1702.5 Z"/></g>
<g><path style="opacity:1" fill="#000000" d="M 2098.5,1702.5 C 2125.17,1702.5 2151.83,1702.5 2178.5,1702.5C 2178.5,1709.17 2178.5,1715.83 2178.5,1722.5C 2151.83,1722.5 2125.17,1722.5 2098.5,1722.5C 2098.5,1715.83 2098.5,1709.17 2098.5,1702.5 Z"/></g>
<g><path style="opacity:1" fill="#000000" d="M 2218.5,1702.5 C 2245.17,1702.5 2271.83,1702.5 2298.5,1702.5C 2298.5,1709.17 2298.5,1715.83 2298.5,1722.5C 2271.83,1722.5 2245.17,1722.5 2218.5,1722.5C 2218.5,1715.83 2218.5,1709.17 2218.5,1702.5 Z"/></g>
<g><path style="opacity:1" fill="#000000" d="M 2338.5,1702.5 C 2365.17,1702.5 2391.83,1702.5 2418.5,1702.5C 2418.5,1709.17 2418.5,1715.83 2418.5,1722.5C 2391.83,1722.5 2365.17,1722.5 2338.5,1722.5C 2338.5,1715.83 2338.5,1709.17 2338.5,1702.5 Z"/></g>
</svg>
