<?xml version="1.0" encoding="UTF-8"?>
<!DOCTYPE svg PUBLIC "-//W3C//DTD SVG 1.1//EN" "http://www.w3.org/Graphics/SVG/1.1/DTD/svg11.dtd">
<svg xmlns="http://www.w3.org/2000/svg" version="1.1" width="2598px" height="2598px" style="shape-rendering:geometricPrecision; text-rendering:geometricPrecision; image-rendering:optimizeQuality; fill-rule:evenodd; clip-rule:evenodd" xmlns:xlink="http://www.w3.org/1999/xlink">
<g><path style="opacity:1" fill="#fefffe" d="M -0.5,-0.5 C 865.5,-0.5 1731.5,-0.5 2597.5,-0.5C 2597.5,865.5 2597.5,1731.5 2597.5,2597.5C 1731.5,2597.5 865.5,2597.5 -0.5,2597.5C -0.5,1731.5 -0.5,865.5 -0.5,-0.5 Z"/></g>
<g><path style="opacity:1" fill="#000000" d="M 48.5,50.5 C 881.833,50.5 1715.17,50.5 2548.5,50.5C 2548.5,883.833 2548.5,1717.17 2548.5,2550.5C 1715.17,2550.5 881.833,2550.5 48.5,2550.5C 48.5,1717.17 48.5,883.833 48.5,50.5 Z"/></g>
<g><path style="opacity:1" fill="#fefefe" d="M 68.5,70.5 C 888.5,70.5 1708.5,70.5 2528.5,70.5C 2528.5,614.5 2528.5,1158.5 2528.5,1702.5C 2505.17,1702.5 2481.83,1702.5 2458.5,1702.5C 2458.5,1709.17 2458.5,1715.83 2458.5,1722.5C 2481.83,1722.5 2505.17,1722.5 2528.5,1722.5C 2528.5,1991.5 2528.5,2260.5 2528.5,2529.5C 1708.52,2530.6 888.524,2530.6 68.5,2529.5C 68.5,2260.5 68.5,1991.5 68.5,1722.5C 91.8333,1722.5 115.167,1722.5 138.5,1722.5C 138.5,1715.83 138.5,1709.17 138.5,1702.5C 115.167,1702.5 91.8333,1702.5 68.5,1702.5C 68.5,1434.17 68.5,1165.83 68.5,897.5C 83.5,897.5 98.5,897.5 113.5,897.5C 113.5,890.833 113.5,884.167 113.5,877.5C 98.5,877.5 83.5,877.5 68.5,877.5C 68.5,608.5 68.5,339.5 68.5,70.5 Z"/></g>
<g><path style="opacity:1" fill="#000000" d="M 1702.5,86.5 C 1709.17,86.5 1715.83,86.5 1722.5,86.5C 1722.5,113.167 1722.5,139.833 1722.5,166.5C 1715.83,166.5 1709.17,166.5 1702.5,166.5C 1702.5,139.833 1702.5,113.167 1702.5,86.5 Z"/></g>
<g><path style="opacity:1" fill="#000000" d="M 1702.5,206.5 C 1709.17,206.5 1715.83,206.5 1722.5,206.5C 1722.5,233.167 1722.5,259.833 1722.5,286.5C 1715.83,286.5 1709.17,286.5 1702.5,286.5C 1702.5,259.833 1702.5,233.167 1702.5,206.5 Z"/></g>
<g><path style="opacity:1" fill="#000000" d="M 1702.5,326.5 C 1709.17,326.5 1715.83,326.5 1722.5,326.5C 1722.5,353.167 1722.5,379.833 1722.5,406.5C 1715.83,406.5 1709.17,406.5 1702.5,406.5C 1702.5,379.833 1702.5,353.167 1702.5,326.5 Z"/></g>
<g><path style="opacity:1" fill="#000000" d="M 1702.5,446.5 C 1709.17,446.5 1715.83,446.5 1722.5,446.5C 1722.5,473.167 1722.5,499.833 1722.5,526.5C 1715.83,526.5 1709.17,526.5 1702.5,526.5C 1702.5,499.833 1702.5,473.167 1702.5,446.5 Z"/></g>
<g><path style="opacity:1" fill="#000000" d="M 1289.5,877.5 C 1290.83,855.33 1290.83,832.996 1289.5,810.5C 1288.89,810.624 1288.56,810.957 1288.5,811.5C 1257.04,836.453 1225.71,861.62 1194.5,887C 1193.54,890.394 1193.21,893.894 1193.5,897.5C 1188.7,897.121 1184.04,897.621 1179.5,899C 1123.41,945.093 1066.74,990.427 1009.5,1035C 992.013,1046.58 973.013,1054.58 952.5,1059C 927.28,1063.58 903.946,1058.91 882.5,1045C 860.966,1029.13 844.132,1009.3 832,985.5C 816.644,947.619 821.977,912.952 848,881.5C 856.798,870.368 866.631,860.202 877.5,851C 1019.5,737 1161.5,623 1303.5,509C 1325.17,492.163 1349.17,479.496 1375.5,471C 1462.27,454.416 1509.44,490.249 1517,578.5C 1517.5,678.166 1517.67,777.833 1517.5,877.5C 1529.5,877.5 1541.5,877.5 1553.5,877.5C 1553.5,884.167 1553.5,890.833 1553.5,897.5C 1541.5,897.5 1529.5,897.5 1517.5,897.5C 1517.5,1165.83 1517.5,1434.17 1517.5,1702.5C 1537.83,1702.5 1558.17,1702.5 1578.5,1702.5C 1578.5,1709.17 1578.5,1715.83 1578.5,1722.5C 1558.17,1722.5 1537.83,1722.5 1517.5,1722.5C 1517.67,1821.5 1517.5,1920.5 1517,2019.5C 1516.78,2044.14 1510.12,2066.81 1497,2087.5C 1478.93,2109.79 1455.43,2121.95 1426.5,2124C 1398.67,2127.86 1371.67,2124.86 1345.5,2115C 1320.74,2103.57 1304.57,2084.74 1297,2058.5C 1293.7,2046.72 1291.7,2034.72 1291,2022.5C 1290.5,1922.5 1290.33,1822.5 1290.5,1722.5C 1279.83,1722.5 1269.17,1722.5 1258.5,1722.5C 1258.5,1715.83 1258.5,1709.17 1258.5,1702.5C 1269.17,1702.5 1279.83,1702.5 1290.5,1702.5C 1290.5,1434.17 1290.5,1165.83 1290.5,897.5C 1271.5,897.5 1252.5,897.5 1233.5,897.5C 1233.5,890.833 1233.5,884.167 1233.5,877.5C 1252.17,877.5 1270.83,877.5 1289.5,877.5 Z"/></g>
<g><path style="opacity:1" fill="#000000" d="M 1702.5,566.5 C 1709.17,566.5 1715.83,566.5 1722.5,566.5C 1722.5,593.167 1722.5,619.833 1722.5,646.5C 1715.83,646.5 1709.17,646.5 1702.5,646.5C 1702.5,619.833 1702.5,593.167 1702.5,566.5 Z"/></g>
<g><path style="opacity:1" fill="#000000" d="M 1702.5,686.5 C 1709.17,686.5 1715.83,686.5 1722.5,686.5C 1722.5,713.167 1722.5,739.833 1722.5,766.5C 1715.83,766.5 1709.17,766.5 1702.5,766.5C 1702.5,739.833 1702.5,713.167 1702.5,686.5 Z"/></g>
<g><path style="opacity:1" fill="#000000" d="M 1702.5,806.5 C 1709.17,806.5 1715.83,806.5 1722.5,806.5C 1722.5,833.167 1722.5,859.833 1722.5,886.5C 1715.83,886.5 1709.17,886.5 1702.5,886.5C 1702.5,859.833 1702.5,833.167 1702.5,806.5 Z"/></g>
<g><path style="opacity:1" fill="#bababa" d="M 1288.5,811.5 C 1288.56,810.957 1288.89,810.624 1289.5,810.5C 1290.83,832.996 1290.83,855.33 1289.5,877.5C 1289.83,855.327 1289.5,833.327 1288.5,811.5 Z"/></g>
<g><path style="opacity:1" fill="#000000" d="M 153.5,877.5 C 180.167,877.5 206.833,877.5 233.5,877.5C 233.5,884.167 233.5,890.833 233.5,897.5C 206.833,897.5 180.167,897.5 153.5,897.5C 153.5,890.833 153.5,884.167 153.5,877.5 Z"/></g>
<g><path style="opacity:1" fill="#000000" d="M 273.5,877.5 C 300.167,877.5 326.833,877.5 353.5,877.5C 353.5,884.167 353.5,890.833 353.5,897.5C 326.833,897.5 300.167,897.5 273.5,897.5C 273.5,890.833 273.5,884.167 273.5,877.5 Z"/></g>
<g><path style="opacity:1" fill="#000000" d="M 393.5,877.5 C 420.167,877.5 446.833,877.5 473.5,877.5C 473.5,884.167 473.5,890.833 473.5,897.5C 446.833,897.5 420.167,897.5 393.5,897.5C 393.5,890.833 393.5,884.167 393.5,877.5 Z"/></g>
<g><path style="opacity:1" fill="#000000" d="M 513.5,877.5 C 540.167,877.5 566.833,877.5 593.5,877.5C 593.5,884.167 593.5,890.833 593.5,897.5C 566.833,897.5 540.167,897.5 513.5,897.5C 513.5,890.833 513.5,884.167 513.5,877.5 Z"/></g>
<g><path style="opacity:1" fill="#000000" d="M 633.5,877.5 C 660.167,877.5 686.833,877.5 713.5,877.5C 713.5,884.167 713.5,890.833 713.5,897.5C 686.833,897.5 660.167,897.5 633.5,897.5C 633.5,890.833 633.5,884.167 633.5,877.5 Z"/></g>
<g><path style="opacity:1" fill="#000000" d="M 753.5,877.5 C 780.167,877.5 806.833,877.5 833.5,877.5C 833.5,884.167 833.5,890.833 833.5,897.5C 806.833,897.5 780.167,897.5 753.5,897.5C 753.5,890.833 753.5,884.167 753.5,877.5 Z"/></g>
<g><path style="opacity:1" fill="#000000" d="M 1593.5,877.5 C 1620.17,877.5 1646.83,877.5 1673.5,877.5C 1673.5,884.167 1673.5,890.833 1673.5,897.5C 1646.83,897.5 1620.17,897.5 1593.5,897.5C 1593.5,890.833 1593.5,884.167 1593.5,877.5 Z"/></g>
<g><path style="opacity:1" fill="#000000" d="M 178.5,1702.5 C 205.167,1702.5 231.833,1702.5 258.5,1702.5C 258.5,1709.17 258.5,1715.83 258.5,1722.5C 231.833,1722.5 205.167,1722.5 178.5,1722.5C 178.5,1715.83 178.5,1709.17 178.5,1702.5 Z"/></g>
<g><path style="opacity:1" fill="#000000" d="M 298.5,1702.5 C 325.167,1702.5 351.833,1702.5 378.5,1702.5C 378.5,1709.17 378.5,1715.83 378.5,1722.5C 351.833,1722.5 325.167,1722.5 298.5,1722.5C 298.5,1715.83 298.5,1709.17 298.5,1702.5 Z"/></g>
<g><path style="opacity:1" fill="#000000" d="M 418.5,1702.5 C 445.167,1702.5 471.833,1702.5 498.5,1702.5C 498.5,1709.17 498.5,1715.83 498.5,1722.5C 471.833,1722.5 445.167,1722.5 418.5,1722.5C 418.5,1715.83 418.5,1709.17 418.5,1702.5 Z"/></g>
<g><path style="opacity:1" fill="#000000" d="M 538.5,1702.5 C 565.167,1702.5 591.833,1702.5 618.5,1702.5C 618.5,1709.17 618.5,1715.83 618.5,1722.5C 591.833,1722.5 565.167,1722.5 538.5,1722.5C 538.5,1715.83 538.5,1709.17 538.5,1702.5 Z"/></g>
<g><path style="opacity:1" fill="#000000" d="M 658.5,1702.5 C 685.167,1702.5 711.833,1702.5 738.5,1702.5C 738.5,1709.17 738.5,1715.83 738.5,1722.5C 711.833,1722.5 685.167,1722.5 658.5,1722.5C 658.5,1715.83 658.5,1709.17 658.5,1702.5 Z"/></g>
<g><path style="opacity:1" fill="#000000" d="M 778.5,1702.5 C 805.167,1702.5 831.833,1702.5 858.5,1702.5C 858.5,1709.17 858.5,1715.83 858.5,1722.5C 831.833,1722.5 805.167,1722.5 778.5,1722.5C 778.5,1715.83 778.5,1709.17 778.5,1702.5 Z"/></g>
<g><path style="opacity:1" fill="#000000" d="M 898.5,1702.5 C 925.167,1702.5 951.833,1702.5 978.5,1702.5C 978.5,1709.17 978.5,1715.83 978.5,1722.5C 951.833,1722.5 925.167,1722.5 898.5,1722.5C 898.5,1715.83 898.5,1709.17 898.5,1702.5 Z"/></g>
<g><path style="opacity:1" fill="#000000" d="M 1018.5,1702.5 C 1045.17,1702.5 1071.83,1702.5 1098.5,1702.5C 1098.5,1709.17 1098.5,1715.83 1098.5,1722.5C 1071.83,1722.5 1045.17,1722.5 1018.5,1722.5C 1018.5,1715.83 1018.5,1709.17 1018.5,1702.5 Z"/></g>
<g><path style="opacity:1" fill="#000000" d="M 1138.5,1702.5 C 1165.17,1702.5 1191.83,1702.5 1218.5,1702.5C 1218.5,1709.17 1218.5,1715.83 1218.5,1722.5C 1191.83,1722.5 1165.17,1722.5 1138.5,1722.5C 1138.5,1715.83 1138.5,1709.17 1138.5,1702.5 Z"/></g>
<g><path style="opacity:1" fill="#000000" d="M 1618.5,1702.5 C 1645.17,1702.5 1671.83,1702.5 1698.5,1702.5C 1698.5,1709.17 1698.5,1715.83 1698.5,1722.5C 1671.83,1722.5 1645.17,1722.5 1618.5,1722.5C 1618.5,1715.83 1618.5,1709.17 1618.5,1702.5 Z"/></g>
<g><path style="opacity:1" fill="#000000" d="M 1738.5,1702.5 C 1765.17,1702.5 1791.83,1702.5 1818.5,1702.5C 1818.5,1709.17 1818.5,1715.83 1818.5,1722.5C 1791.83,1722.5 1765.17,1722.5 1738.5,1722.5C 1738.5,1715.83 1738.5,1709.17 1738.5,1702.5 Z"/></g>
<g><path style="opacity:1" fill="#000000" d="M 1858.5,1702.5 C 1885.17,1702.5 1911.83,1702.5 1938.5,1702.5C 1938.5,1709.17 1938.5,1715.83 1938.5,1722.5C 1911.83,1722.5 1885.17,1722.5 1858.5,1722.5C 1858.5,1715.83 1858.5,1709.17 1858.5,1702.5 Z"/></g>
<g><path style="opacity:1" fill="#000000" d="M 1978.5,1702.5 C 2005.17,1702.5 2031.83,1702.5 2058.5,1702.5C 2058.5,1709.17 2058.5,1715.83 2058.5,1722.5C 2031.83,1722.5 2005.17,1722.5 1978.5,1722.5C 1978.5,1715.83 1978.5,1709.17 1978.5,1702.5 Z"/></g>
<g><path style="opacity:1" fill="#000000" d="M 2098.5,1702.5 C 2125.17,1702.5 2151.83,1702.5 2178.5,1702.5C 2178.5,1709.17 2178.5,1715.83 2178.5,1722.5C 2151.83,1722.5 2125.17,1722.5 2098.5,1722.5C 2098.5,1715.83 2098.5,1709.17 2098.5,1702.5 Z"/></g>
<g><path style="opacity:1" fill="#000000" d="M 2218.5,1702.5 C 2245.17,1702.5 2271.83,1702.5 2298.5,1702.5C 2298.5,1709.17 2298.5,1715.83 2298.5,1722.5C 2271.83,1722.5 2245.17,1722.5 2218.5,1722.5C 2218.5,1715.83 2218.5,1709.17 2218.5,1702.5 Z"/></g>
<g><path style="opacity:1" fill="#000000" d="M 2338.5,1702.5 C 2365.17,1702.5 2391.83,1702.5 2418.5,1702.5C 2418.5,1709.17 2418.5,1715.83 2418.5,1722.5C 2391.83,1722.5 2365.17,1722.5 2338.5,1722.5C 2338.5,1715.83 2338.5,1709.17 2338.5,1702.5 Z"/></g>
</svg>
