<?xml version="1.0" encoding="UTF-8"?>
<!DOCTYPE svg PUBLIC "-//W3C//DTD SVG 1.1//EN" "http://www.w3.org/Graphics/SVG/1.1/DTD/svg11.dtd">
<svg xmlns="http://www.w3.org/2000/svg" version="1.1" width="2598px" height="2598px" style="shape-rendering:geometricPrecision; text-rendering:geometricPrecision; image-rendering:optimizeQuality; fill-rule:evenodd; clip-rule:evenodd" xmlns:xlink="http://www.w3.org/1999/xlink">
<g><path style="opacity:1" fill="#fefffe" d="M -0.5,-0.5 C 865.5,-0.5 1731.5,-0.5 2597.5,-0.5C 2597.5,865.5 2597.5,1731.5 2597.5,2597.5C 1731.5,2597.5 865.5,2597.5 -0.5,2597.5C -0.5,1731.5 -0.5,865.5 -0.5,-0.5 Z"/></g>
<g><path style="opacity:1" fill="#000000" d="M 48.5,50.5 C 881.833,50.5 1715.17,50.5 2548.5,50.5C 2548.5,883.833 2548.5,1717.17 2548.5,2550.5C 1715.17,2550.5 881.833,2550.5 48.5,2550.5C 48.5,1717.17 48.5,883.833 48.5,50.5 Z"/></g>
<g><path style="opacity:1" fill="#fefefe" d="M 68.5,70.5 C 888.5,70.5 1708.5,70.5 2528.5,70.5C 2528.5,614.5 2528.5,1158.5 2528.5,1702.5C 2505.17,1702.5 2481.83,1702.5 2458.5,1702.5C 2458.5,1709.17 2458.5,1715.83 2458.5,1722.5C 2481.83,1722.5 2505.17,1722.5 2528.5,1722.5C 2528.5,1991.5 2528.5,2260.5 2528.5,2529.5C 1708.52,2530.6 888.524,2530.6 68.5,2529.5C 68.5,2260.5 68.5,1991.5 68.5,1722.5C 91.8333,1722.5 115.167,1722.5 138.5,1722.5C 138.5,1715.83 138.5,1709.17 138.5,1702.5C 115.167,1702.5 91.8333,1702.5 68.5,1702.5C 68.5,1434.17 68.5,1165.83 68.5,897.5C 83.5,897.5 98.5,897.5 113.5,897.5C 113.5,890.833 113.5,884.167 113.5,877.5C 98.5,877.5 83.5,877.5 68.5,877.5C 68.5,608.5 68.5,339.5 68.5,70.5 Z"/></g>
<g><path style="opacity:1" fill="#000000" d="M 1702.5,86.5 C 1709.17,86.5 1715.83,86.5 1722.5,86.5C 1722.5,113.167 1722.5,139.833 1722.5,166.5C 1715.83,166.5 1709.17,166.5 1702.5,166.5C 1702.5,139.833 1702.5,113.167 1702.5,86.5 Z"/></g>
<g><path style="opacity:1" fill="#000000" d="M 1702.5,206.5 C 1709.17,206.5 1715.83,206.5 1722.5,206.5C 1722.5,233.167 1722.5,259.833 1722.5,286.5C 1715.83,286.5 1709.17,286.5 1702.5,286.5C 1702.5,259.833 1702.5,233.167 1702.5,206.5 Z"/></g>
<g><path style="opacity:1" fill="#000000" d="M 1702.5,326.5 C 1709.17,326.5 1715.83,326.5 1722.5,326.5C 1722.5,353.167 1722.5,379.833 1722.5,406.5C 1715.83,406.5 1709.17,406.5 1702.5,406.5C 1702.5,379.833 1702.5,353.167 1702.5,326.5 Z"/></g>
<g><path style="opacity:1" fill="#000000" d="M 1326.5,440.5 C 1415.08,436.226 1501.42,448.06 1585.5,476C 1645.49,497.815 1700.49,528.149 1750.5,567C 1767.08,580.243 1781.58,595.409 1794,612.5C 1822.64,654.404 1820.97,695.07 1789,734.5C 1751.67,779.698 1707.17,788.198 1655.5,760C 1637.99,748.824 1621.32,736.49 1605.5,723C 1550.04,685.064 1488.71,662.731 1421.5,656C 1304.36,638.956 1197.69,664.29 1101.5,732C 1042.69,777.812 998.528,834.978 969,903.5C 936.448,981.919 917.781,1063.59 913,1148.5C 906.621,1225.06 904.955,1301.73 908,1378.5C 1018.51,1186.15 1185.01,1100.98 1407.5,1123C 1531.6,1137.24 1640.6,1184.91 1734.5,1266C 1808.06,1334.26 1853.56,1418.1 1871,1517.5C 1881.42,1579.02 1882.26,1640.68 1873.5,1702.5C 1895.17,1702.5 1916.83,1702.5 1938.5,1702.5C 1938.5,1709.17 1938.5,1715.83 1938.5,1722.5C 1915.5,1722.5 1892.5,1722.5 1869.5,1722.5C 1845.5,1846.72 1784.17,1947.89 1685.5,2026C 1611.98,2079.86 1529.65,2112.19 1438.5,2123C 1331.55,2136.77 1226.22,2129.1 1122.5,2100C 974.774,2054.93 864.608,1964.43 792,1828.5C 771.022,1788.56 753.355,1747.23 739,1704.5C 738.501,1710.49 738.334,1716.49 738.5,1722.5C 711.833,1722.5 685.167,1722.5 658.5,1722.5C 658.5,1715.83 658.5,1709.17 658.5,1702.5C 685.169,1702.67 711.835,1702.5 738.5,1702C 712.91,1621.72 696.41,1539.55 689,1455.5C 676.111,1320.59 678.111,1185.93 695,1051.5C 710.618,944.98 743.284,843.98 793,748.5C 881.504,585.756 1017.34,487.923 1200.5,455C 1242.36,447.702 1284.36,442.868 1326.5,440.5 Z"/></g>
<g><path style="opacity:1" fill="#000000" d="M 1702.5,446.5 C 1709.17,446.5 1715.83,446.5 1722.5,446.5C 1722.5,473.167 1722.5,499.833 1722.5,526.5C 1715.83,526.5 1709.17,526.5 1702.5,526.5C 1702.5,499.833 1702.5,473.167 1702.5,446.5 Z"/></g>
<g><path style="opacity:1" fill="#000000" d="M 1702.5,806.5 C 1709.17,806.5 1715.83,806.5 1722.5,806.5C 1722.5,833.167 1722.5,859.833 1722.5,886.5C 1715.83,886.5 1709.17,886.5 1702.5,886.5C 1702.5,859.833 1702.5,833.167 1702.5,806.5 Z"/></g>
<g><path style="opacity:1" fill="#000000" d="M 153.5,877.5 C 180.167,877.5 206.833,877.5 233.5,877.5C 233.5,884.167 233.5,890.833 233.5,897.5C 206.833,897.5 180.167,897.5 153.5,897.5C 153.5,890.833 153.5,884.167 153.5,877.5 Z"/></g>
<g><path style="opacity:1" fill="#000000" d="M 273.5,877.5 C 300.167,877.5 326.833,877.5 353.5,877.5C 353.5,884.167 353.5,890.833 353.5,897.5C 326.833,897.5 300.167,897.5 273.5,897.5C 273.5,890.833 273.5,884.167 273.5,877.5 Z"/></g>
<g><path style="opacity:1" fill="#000000" d="M 393.5,877.5 C 420.167,877.5 446.833,877.5 473.5,877.5C 473.5,884.167 473.5,890.833 473.5,897.5C 446.833,897.5 420.167,897.5 393.5,897.5C 393.5,890.833 393.5,884.167 393.5,877.5 Z"/></g>
<g><path style="opacity:1" fill="#000000" d="M 513.5,877.5 C 540.167,877.5 566.833,877.5 593.5,877.5C 593.5,884.167 593.5,890.833 593.5,897.5C 566.833,897.5 540.167,897.5 513.5,897.5C 513.5,890.833 513.5,884.167 513.5,877.5 Z"/></g>
<g><path style="opacity:1" fill="#000000" d="M 633.5,877.5 C 660.167,877.5 686.833,877.5 713.5,877.5C 713.5,884.167 713.5,890.833 713.5,897.5C 686.833,897.5 660.167,897.5 633.5,897.5C 633.5,890.833 633.5,884.167 633.5,877.5 Z"/></g>
<g><path style="opacity:1" fill="#000000" d="M 993.5,877.5 C 1020.17,877.5 1046.83,877.5 1073.5,877.5C 1073.5,884.167 1073.5,890.833 1073.5,897.5C 1046.83,897.5 1020.17,897.5 993.5,897.5C 993.5,890.833 993.5,884.167 993.5,877.5 Z"/></g>
<g><path style="opacity:1" fill="#000000" d="M 1113.5,877.5 C 1140.17,877.5 1166.83,877.5 1193.5,877.5C 1193.5,884.167 1193.5,890.833 1193.5,897.5C 1166.83,897.5 1140.17,897.5 1113.5,897.5C 1113.5,890.833 1113.5,884.167 1113.5,877.5 Z"/></g>
<g><path style="opacity:1" fill="#000000" d="M 1233.5,877.5 C 1260.17,877.5 1286.83,877.5 1313.5,877.5C 1313.5,884.167 1313.5,890.833 1313.5,897.5C 1286.83,897.5 1260.17,897.5 1233.5,897.5C 1233.5,890.833 1233.5,884.167 1233.5,877.5 Z"/></g>
<g><path style="opacity:1" fill="#000000" d="M 1353.5,877.5 C 1380.17,877.5 1406.83,877.5 1433.5,877.5C 1433.5,884.167 1433.5,890.833 1433.5,897.5C 1406.83,897.5 1380.17,897.5 1353.5,897.5C 1353.5,890.833 1353.5,884.167 1353.5,877.5 Z"/></g>
<g><path style="opacity:1" fill="#000000" d="M 1473.5,877.5 C 1500.17,877.5 1526.83,877.5 1553.5,877.5C 1553.5,884.167 1553.5,890.833 1553.5,897.5C 1526.83,897.5 1500.17,897.5 1473.5,897.5C 1473.5,890.833 1473.5,884.167 1473.5,877.5 Z"/></g>
<g><path style="opacity:1" fill="#000000" d="M 1593.5,877.5 C 1620.17,877.5 1646.83,877.5 1673.5,877.5C 1673.5,884.167 1673.5,890.833 1673.5,897.5C 1646.83,897.5 1620.17,897.5 1593.5,897.5C 1593.5,890.833 1593.5,884.167 1593.5,877.5 Z"/></g>
<g><path style="opacity:1" fill="#fefefe" d="M 1326.5,1329.5 C 1432.24,1323.47 1519.74,1360.14 1589,1439.5C 1632.02,1492.11 1652.86,1552.61 1651.5,1621C 1652.19,1648.45 1649.86,1675.61 1644.5,1702.5C 1635.83,1702.5 1627.17,1702.5 1618.5,1702.5C 1618.5,1709.17 1618.5,1715.83 1618.5,1722.5C 1625.51,1722.33 1632.51,1722.5 1639.5,1723C 1615.16,1807.67 1561.5,1865.01 1478.5,1895C 1409.8,1917.9 1339.47,1924.57 1267.5,1915C 1152.16,1899.13 1064.66,1841.63 1005,1742.5C 999.746,1733.66 994.746,1724.66 990,1715.5C 990.964,1589.08 1040.46,1486.58 1138.5,1408C 1193.22,1363.03 1255.88,1336.87 1326.5,1329.5 Z"/></g>
<g><path style="opacity:1" fill="#000000" d="M 178.5,1702.5 C 205.167,1702.5 231.833,1702.5 258.5,1702.5C 258.5,1709.17 258.5,1715.83 258.5,1722.5C 231.833,1722.5 205.167,1722.5 178.5,1722.5C 178.5,1715.83 178.5,1709.17 178.5,1702.5 Z"/></g>
<g><path style="opacity:1" fill="#000000" d="M 298.5,1702.5 C 325.167,1702.5 351.833,1702.5 378.5,1702.5C 378.5,1709.17 378.5,1715.83 378.5,1722.5C 351.833,1722.5 325.167,1722.5 298.5,1722.5C 298.5,1715.83 298.5,1709.17 298.5,1702.5 Z"/></g>
<g><path style="opacity:1" fill="#000000" d="M 418.5,1702.5 C 445.167,1702.5 471.833,1702.5 498.5,1702.5C 498.5,1709.17 498.5,1715.83 498.5,1722.5C 471.833,1722.5 445.167,1722.5 418.5,1722.5C 418.5,1715.83 418.5,1709.17 418.5,1702.5 Z"/></g>
<g><path style="opacity:1" fill="#000000" d="M 538.5,1702.5 C 565.167,1702.5 591.833,1702.5 618.5,1702.5C 618.5,1709.17 618.5,1715.83 618.5,1722.5C 591.833,1722.5 565.167,1722.5 538.5,1722.5C 538.5,1715.83 538.5,1709.17 538.5,1702.5 Z"/></g>
<g><path style="opacity:1" fill="#000000" d="M 1018.5,1702.5 C 1045.17,1702.5 1071.83,1702.5 1098.5,1702.5C 1098.5,1709.17 1098.5,1715.83 1098.5,1722.5C 1071.83,1722.5 1045.17,1722.5 1018.5,1722.5C 1018.5,1715.83 1018.5,1709.17 1018.5,1702.5 Z"/></g>
<g><path style="opacity:1" fill="#000000" d="M 1138.5,1702.5 C 1165.17,1702.5 1191.83,1702.5 1218.5,1702.5C 1218.5,1709.17 1218.5,1715.83 1218.5,1722.5C 1191.83,1722.5 1165.17,1722.5 1138.5,1722.5C 1138.5,1715.83 1138.5,1709.17 1138.5,1702.5 Z"/></g>
<g><path style="opacity:1" fill="#000000" d="M 1258.5,1702.5 C 1285.17,1702.5 1311.83,1702.5 1338.5,1702.5C 1338.5,1709.17 1338.5,1715.83 1338.5,1722.5C 1311.83,1722.5 1285.17,1722.5 1258.5,1722.5C 1258.5,1715.83 1258.5,1709.17 1258.5,1702.5 Z"/></g>
<g><path style="opacity:1" fill="#000000" d="M 1378.5,1702.5 C 1405.17,1702.5 1431.83,1702.5 1458.5,1702.5C 1458.5,1709.17 1458.5,1715.83 1458.5,1722.5C 1431.83,1722.5 1405.17,1722.5 1378.5,1722.5C 1378.5,1715.83 1378.5,1709.17 1378.5,1702.5 Z"/></g>
<g><path style="opacity:1" fill="#000000" d="M 1498.5,1702.5 C 1525.17,1702.5 1551.83,1702.5 1578.5,1702.5C 1578.5,1709.17 1578.5,1715.83 1578.5,1722.5C 1551.83,1722.5 1525.17,1722.5 1498.5,1722.5C 1498.5,1715.83 1498.5,1709.17 1498.5,1702.5 Z"/></g>
<g><path style="opacity:1" fill="#000000" d="M 1978.5,1702.5 C 2005.17,1702.5 2031.83,1702.5 2058.5,1702.5C 2058.5,1709.17 2058.5,1715.83 2058.5,1722.5C 2031.83,1722.5 2005.17,1722.5 1978.5,1722.5C 1978.5,1715.83 1978.5,1709.17 1978.5,1702.5 Z"/></g>
<g><path style="opacity:1" fill="#000000" d="M 2098.5,1702.5 C 2125.17,1702.5 2151.83,1702.5 2178.5,1702.5C 2178.5,1709.17 2178.5,1715.83 2178.5,1722.5C 2151.83,1722.5 2125.17,1722.5 2098.5,1722.5C 2098.5,1715.83 2098.5,1709.17 2098.5,1702.5 Z"/></g>
<g><path style="opacity:1" fill="#000000" d="M 2218.5,1702.5 C 2245.17,1702.5 2271.83,1702.5 2298.5,1702.5C 2298.5,1709.17 2298.5,1715.83 2298.5,1722.5C 2271.83,1722.5 2245.17,1722.5 2218.5,1722.5C 2218.5,1715.83 2218.5,1709.17 2218.5,1702.5 Z"/></g>
<g><path style="opacity:1" fill="#000000" d="M 2338.5,1702.5 C 2365.17,1702.5 2391.83,1702.5 2418.5,1702.5C 2418.5,1709.17 2418.5,1715.83 2418.5,1722.5C 2391.83,1722.5 2365.17,1722.5 2338.5,1722.5C 2338.5,1715.83 2338.5,1709.17 2338.5,1702.5 Z"/></g>
</svg>
