<?xml version="1.0" encoding="UTF-8"?>
<!DOCTYPE svg PUBLIC "-//W3C//DTD SVG 1.1//EN" "http://www.w3.org/Graphics/SVG/1.1/DTD/svg11.dtd">
<svg xmlns="http://www.w3.org/2000/svg" version="1.1" width="2598px" height="2598px" style="shape-rendering:geometricPrecision; text-rendering:geometricPrecision; image-rendering:optimizeQuality; fill-rule:evenodd; clip-rule:evenodd" xmlns:xlink="http://www.w3.org/1999/xlink">
<g><path style="opacity:1" fill="#fefffe" d="M -0.5,-0.5 C 865.5,-0.5 1731.5,-0.5 2597.5,-0.5C 2597.5,865.5 2597.5,1731.5 2597.5,2597.5C 1731.5,2597.5 865.5,2597.5 -0.5,2597.5C -0.5,1731.5 -0.5,865.5 -0.5,-0.5 Z"/></g>
<g><path style="opacity:1" fill="#000000" d="M 48.5,50.5 C 881.833,50.5 1715.17,50.5 2548.5,50.5C 2548.5,883.833 2548.5,1717.17 2548.5,2550.5C 1715.17,2550.5 881.833,2550.5 48.5,2550.5C 48.5,1717.17 48.5,883.833 48.5,50.5 Z"/></g>
<g><path style="opacity:1" fill="#fefefe" d="M 68.5,70.5 C 888.5,70.5 1708.5,70.5 2528.5,70.5C 2528.5,614.5 2528.5,1158.5 2528.5,1702.5C 2505.17,1702.5 2481.83,1702.5 2458.5,1702.5C 2458.5,1709.17 2458.5,1715.83 2458.5,1722.5C 2481.83,1722.5 2505.17,1722.5 2528.5,1722.5C 2528.5,1991.5 2528.5,2260.5 2528.5,2529.5C 1708.52,2530.6 888.524,2530.6 68.5,2529.5C 68.5,2260.5 68.5,1991.5 68.5,1722.5C 91.8333,1722.5 115.167,1722.5 138.5,1722.5C 138.5,1715.83 138.5,1709.17 138.5,1702.5C 115.167,1702.5 91.8333,1702.5 68.5,1702.5C 68.5,1434.17 68.5,1165.83 68.5,897.5C 83.5,897.5 98.5,897.5 113.5,897.5C 113.5,890.833 113.5,884.167 113.5,877.5C 98.5,877.5 83.5,877.5 68.5,877.5C 68.5,608.5 68.5,339.5 68.5,70.5 Z"/></g>
<g><path style="opacity:1" fill="#000000" d="M 1702.5,86.5 C 1709.17,86.5 1715.83,86.5 1722.5,86.5C 1722.5,113.167 1722.5,139.833 1722.5,166.5C 1715.83,166.5 1709.17,166.5 1702.5,166.5C 1702.5,139.833 1702.5,113.167 1702.5,86.5 Z"/></g>
<g><path style="opacity:1" fill="#000000" d="M 1702.5,206.5 C 1709.17,206.5 1715.83,206.5 1722.5,206.5C 1722.5,233.167 1722.5,259.833 1722.5,286.5C 1715.83,286.5 1709.17,286.5 1702.5,286.5C 1702.5,259.833 1702.5,233.167 1702.5,206.5 Z"/></g>
<g><path style="opacity:1" fill="#000000" d="M 1702.5,326.5 C 1709.17,326.5 1715.83,326.5 1722.5,326.5C 1722.5,353.167 1722.5,379.833 1722.5,406.5C 1715.83,406.5 1709.17,406.5 1702.5,406.5C 1702.5,379.833 1702.5,353.167 1702.5,326.5 Z"/></g>
<g><path style="opacity:1" fill="#000000" d="M 1257.5,381.5 C 1343.18,378.502 1425.85,392.669 1505.5,424C 1583.57,456.599 1649.07,505.765 1702,571.5C 1702.49,569.866 1702.66,568.199 1702.5,566.5C 1709.17,566.5 1715.83,566.5 1722.5,566.5C 1722.33,578.171 1722.5,589.838 1723,601.5C 1762.79,666.539 1785.12,737.205 1790,813.5C 1800.59,933.377 1766.93,1038.71 1689,1129.5C 1639.67,1185.2 1583.5,1232.37 1520.5,1271C 1581.16,1301.71 1637.5,1338.71 1689.5,1382C 1837.49,1510.65 1886.99,1670.48 1838,1861.5C 1811.69,1952.67 1759.19,2024.5 1680.5,2077C 1598.37,2132.72 1507.7,2165.72 1408.5,2176C 1315.27,2186.47 1223.27,2180.14 1132.5,2157C 1026.03,2126.89 938.535,2068.72 870,1982.5C 821.215,1917.5 794.548,1844.17 790,1762.5C 789.288,1749.17 788.788,1735.84 788.5,1722.5C 785.167,1722.5 781.833,1722.5 778.5,1722.5C 778.5,1715.83 778.5,1709.17 778.5,1702.5C 782.167,1702.5 785.833,1702.5 789.5,1702.5C 794.09,1639.05 811.59,1579.38 842,1523.5C 865.935,1481.64 894.269,1442.97 927,1407.5C 966.063,1366.91 1008.23,1330.25 1053.5,1297.5C 991.362,1267.46 934.362,1229.96 882.5,1185C 774.016,1084.98 724.183,960.811 733,812.5C 740.229,657.11 810.396,540.277 943.5,462C 1014.36,421.713 1090.36,397.046 1171.5,388C 1200.25,384.936 1228.92,382.769 1257.5,381.5 Z"/></g>
<g><path style="opacity:1" fill="#000000" d="M 1702.5,446.5 C 1709.17,446.5 1715.83,446.5 1722.5,446.5C 1722.5,473.167 1722.5,499.833 1722.5,526.5C 1715.83,526.5 1709.17,526.5 1702.5,526.5C 1702.5,499.833 1702.5,473.167 1702.5,446.5 Z"/></g>
<g><path style="opacity:1" fill="#fefefe" d="M 1245.5,591.5 C 1300.83,587.337 1354.16,595.504 1405.5,616C 1467.71,643.882 1513.88,688.382 1544,749.5C 1575.75,828.561 1570.75,905.228 1529,979.5C 1513.75,1007.32 1495.08,1032.66 1473,1055.5C 1432.43,1093.41 1387.93,1125.91 1339.5,1153C 1320.22,1163.56 1300.72,1173.72 1281,1183.5C 1212.83,1159 1149,1126.5 1089.5,1086C 1052.96,1060.46 1022.12,1029.29 997,992.5C 974.003,955.527 962.003,915.193 961,871.5C 955.656,747.621 1010.16,662.455 1124.5,616C 1163.8,602.106 1204.14,593.94 1245.5,591.5 Z"/></g>
<g><path style="opacity:1" fill="#000000" d="M 153.5,877.5 C 180.167,877.5 206.833,877.5 233.5,877.5C 233.5,884.167 233.5,890.833 233.5,897.5C 206.833,897.5 180.167,897.5 153.5,897.5C 153.5,890.833 153.5,884.167 153.5,877.5 Z"/></g>
<g><path style="opacity:1" fill="#000000" d="M 273.5,877.5 C 300.167,877.5 326.833,877.5 353.5,877.5C 353.5,884.167 353.5,890.833 353.5,897.5C 326.833,897.5 300.167,897.5 273.5,897.5C 273.5,890.833 273.5,884.167 273.5,877.5 Z"/></g>
<g><path style="opacity:1" fill="#000000" d="M 393.5,877.5 C 420.167,877.5 446.833,877.5 473.5,877.5C 473.5,884.167 473.5,890.833 473.5,897.5C 446.833,897.5 420.167,897.5 393.5,897.5C 393.5,890.833 393.5,884.167 393.5,877.5 Z"/></g>
<g><path style="opacity:1" fill="#000000" d="M 513.5,877.5 C 540.167,877.5 566.833,877.5 593.5,877.5C 593.5,884.167 593.5,890.833 593.5,897.5C 566.833,897.5 540.167,897.5 513.5,897.5C 513.5,890.833 513.5,884.167 513.5,877.5 Z"/></g>
<g><path style="opacity:1" fill="#000000" d="M 633.5,877.5 C 660.167,877.5 686.833,877.5 713.5,877.5C 713.5,884.167 713.5,890.833 713.5,897.5C 686.833,897.5 660.167,897.5 633.5,897.5C 633.5,890.833 633.5,884.167 633.5,877.5 Z"/></g>
<g><path style="opacity:1" fill="#000000" d="M 993.5,877.5 C 1020.17,877.5 1046.83,877.5 1073.5,877.5C 1073.5,884.167 1073.5,890.833 1073.5,897.5C 1046.83,897.5 1020.17,897.5 993.5,897.5C 993.5,890.833 993.5,884.167 993.5,877.5 Z"/></g>
<g><path style="opacity:1" fill="#000000" d="M 1113.5,877.5 C 1140.17,877.5 1166.83,877.5 1193.5,877.5C 1193.5,884.167 1193.5,890.833 1193.5,897.5C 1166.83,897.5 1140.17,897.5 1113.5,897.5C 1113.5,890.833 1113.5,884.167 1113.5,877.5 Z"/></g>
<g><path style="opacity:1" fill="#000000" d="M 1233.5,877.5 C 1260.17,877.5 1286.83,877.5 1313.5,877.5C 1313.5,884.167 1313.5,890.833 1313.5,897.5C 1286.83,897.5 1260.17,897.5 1233.5,897.5C 1233.5,890.833 1233.5,884.167 1233.5,877.5 Z"/></g>
<g><path style="opacity:1" fill="#000000" d="M 1353.5,877.5 C 1380.17,877.5 1406.83,877.5 1433.5,877.5C 1433.5,884.167 1433.5,890.833 1433.5,897.5C 1406.83,897.5 1380.17,897.5 1353.5,897.5C 1353.5,890.833 1353.5,884.167 1353.5,877.5 Z"/></g>
<g><path style="opacity:1" fill="#000000" d="M 1473.5,877.5 C 1500.17,877.5 1526.83,877.5 1553.5,877.5C 1553.5,884.167 1553.5,890.833 1553.5,897.5C 1526.83,897.5 1500.17,897.5 1473.5,897.5C 1473.5,890.833 1473.5,884.167 1473.5,877.5 Z"/></g>
<g><path style="opacity:1" fill="#fefefe" d="M 1293.5,1379.5 C 1358.26,1403.05 1418.93,1434.21 1475.5,1473C 1520.04,1503.88 1557.54,1541.71 1588,1586.5C 1610.63,1621.89 1623.8,1660.56 1627.5,1702.5C 1624.5,1702.5 1621.5,1702.5 1618.5,1702.5C 1618.5,1709.17 1618.5,1715.83 1618.5,1722.5C 1621.83,1722.5 1625.17,1722.5 1628.5,1722.5C 1629.79,1792.15 1604.46,1849.99 1552.5,1896C 1506.31,1934.25 1453.31,1957.58 1393.5,1966C 1336.67,1974.06 1280.01,1973.06 1223.5,1963C 1127.5,1944.65 1062.33,1889.82 1028,1798.5C 1008.94,1740.04 1011.94,1682.71 1037,1626.5C 1061.88,1573.6 1096.05,1527.43 1139.5,1488C 1176.14,1452.34 1216.47,1421.68 1260.5,1396C 1271.31,1389.93 1282.31,1384.43 1293.5,1379.5 Z"/></g>
<g><path style="opacity:1" fill="#000000" d="M 178.5,1702.5 C 205.167,1702.5 231.833,1702.5 258.5,1702.5C 258.5,1709.17 258.5,1715.83 258.5,1722.5C 231.833,1722.5 205.167,1722.5 178.5,1722.5C 178.5,1715.83 178.5,1709.17 178.5,1702.5 Z"/></g>
<g><path style="opacity:1" fill="#000000" d="M 298.5,1702.5 C 325.167,1702.5 351.833,1702.5 378.5,1702.5C 378.5,1709.17 378.5,1715.83 378.5,1722.5C 351.833,1722.5 325.167,1722.5 298.5,1722.5C 298.5,1715.83 298.5,1709.17 298.5,1702.5 Z"/></g>
<g><path style="opacity:1" fill="#000000" d="M 418.5,1702.5 C 445.167,1702.5 471.833,1702.5 498.5,1702.5C 498.5,1709.17 498.5,1715.83 498.5,1722.5C 471.833,1722.5 445.167,1722.5 418.5,1722.5C 418.5,1715.83 418.5,1709.17 418.5,1702.5 Z"/></g>
<g><path style="opacity:1" fill="#000000" d="M 538.5,1702.5 C 565.167,1702.5 591.833,1702.5 618.5,1702.5C 618.5,1709.17 618.5,1715.83 618.5,1722.5C 591.833,1722.5 565.167,1722.5 538.5,1722.5C 538.5,1715.83 538.5,1709.17 538.5,1702.5 Z"/></g>
<g><path style="opacity:1" fill="#000000" d="M 658.5,1702.5 C 685.167,1702.5 711.833,1702.5 738.5,1702.5C 738.5,1709.17 738.5,1715.83 738.5,1722.5C 711.833,1722.5 685.167,1722.5 658.5,1722.5C 658.5,1715.83 658.5,1709.17 658.5,1702.5 Z"/></g>
<g><path style="opacity:1" fill="#000000" d="M 1018.5,1702.5 C 1045.17,1702.5 1071.83,1702.5 1098.5,1702.5C 1098.5,1709.17 1098.5,1715.83 1098.5,1722.5C 1071.83,1722.5 1045.17,1722.5 1018.5,1722.5C 1018.5,1715.83 1018.5,1709.17 1018.5,1702.5 Z"/></g>
<g><path style="opacity:1" fill="#000000" d="M 1138.5,1702.5 C 1165.17,1702.5 1191.83,1702.5 1218.5,1702.5C 1218.5,1709.17 1218.5,1715.83 1218.5,1722.5C 1191.83,1722.5 1165.17,1722.5 1138.5,1722.5C 1138.5,1715.83 1138.5,1709.17 1138.5,1702.5 Z"/></g>
<g><path style="opacity:1" fill="#000000" d="M 1258.5,1702.5 C 1285.17,1702.5 1311.83,1702.5 1338.5,1702.5C 1338.5,1709.17 1338.5,1715.83 1338.5,1722.5C 1311.83,1722.5 1285.17,1722.5 1258.5,1722.5C 1258.5,1715.83 1258.5,1709.17 1258.5,1702.5 Z"/></g>
<g><path style="opacity:1" fill="#000000" d="M 1378.5,1702.5 C 1405.17,1702.5 1431.83,1702.5 1458.5,1702.5C 1458.5,1709.17 1458.5,1715.83 1458.5,1722.5C 1431.83,1722.5 1405.17,1722.5 1378.5,1722.5C 1378.5,1715.83 1378.5,1709.17 1378.5,1702.5 Z"/></g>
<g><path style="opacity:1" fill="#000000" d="M 1498.5,1702.5 C 1525.17,1702.5 1551.83,1702.5 1578.5,1702.5C 1578.5,1709.17 1578.5,1715.83 1578.5,1722.5C 1551.83,1722.5 1525.17,1722.5 1498.5,1722.5C 1498.5,1715.83 1498.5,1709.17 1498.5,1702.5 Z"/></g>
<g><path style="opacity:1" fill="#000000" d="M 1858.5,1702.5 C 1885.17,1702.5 1911.83,1702.5 1938.5,1702.5C 1938.5,1709.17 1938.5,1715.83 1938.5,1722.5C 1911.83,1722.5 1885.17,1722.5 1858.5,1722.5C 1858.5,1715.83 1858.5,1709.17 1858.5,1702.5 Z"/></g>
<g><path style="opacity:1" fill="#000000" d="M 1978.5,1702.5 C 2005.17,1702.5 2031.83,1702.5 2058.5,1702.5C 2058.5,1709.17 2058.5,1715.83 2058.5,1722.5C 2031.83,1722.5 2005.17,1722.5 1978.5,1722.5C 1978.5,1715.83 1978.5,1709.17 1978.5,1702.5 Z"/></g>
<g><path style="opacity:1" fill="#000000" d="M 2098.5,1702.5 C 2125.17,1702.5 2151.83,1702.5 2178.5,1702.5C 2178.5,1709.17 2178.5,1715.83 2178.5,1722.5C 2151.83,1722.5 2125.17,1722.5 2098.5,1722.5C 2098.5,1715.83 2098.5,1709.17 2098.5,1702.5 Z"/></g>
<g><path style="opacity:1" fill="#000000" d="M 2218.5,1702.5 C 2245.17,1702.5 2271.83,1702.5 2298.5,1702.5C 2298.5,1709.17 2298.5,1715.83 2298.5,1722.5C 2271.83,1722.5 2245.17,1722.5 2218.5,1722.5C 2218.5,1715.83 2218.5,1709.17 2218.5,1702.5 Z"/></g>
<g><path style="opacity:1" fill="#000000" d="M 2338.5,1702.5 C 2365.17,1702.5 2391.83,1702.5 2418.5,1702.5C 2418.5,1709.17 2418.5,1715.83 2418.5,1722.5C 2391.83,1722.5 2365.17,1722.5 2338.5,1722.5C 2338.5,1715.83 2338.5,1709.17 2338.5,1702.5 Z"/></g>
</svg>
