<?xml version="1.0" encoding="UTF-8"?>
<svg id="Layer_1" data-name="Layer 1" xmlns="http://www.w3.org/2000/svg" viewBox="0 0 598.28 598.28">
  <defs>
    <style>
      .cls-1 {
        stroke-dasharray: 0 0 0 0 9.92 9.92 9.92 9.92;
      }

      .cls-1, .cls-2, .cls-3, .cls-4, .cls-5, .cls-6, .cls-7, .cls-8 {
        fill: none;
        stroke: #231f20;
        stroke-miterlimit: 10;
      }

      .cls-1, .cls-2, .cls-3, .cls-4, .cls-6, .cls-7, .cls-8 {
        stroke-width: 3px;
      }

      .cls-3 {
        stroke-dasharray: 0 0 0 0 11.08 11.08 11.08 11.08;
      }

      .cls-4 {
        stroke-dasharray: 0 0 0 0 0 0 11.08 11.08 11.08 11.08 11.08 11.08;
      }

      .cls-5 {
        stroke-linecap: round;
        stroke-width: 20px;
      }

      .cls-6 {
        stroke-dasharray: 0 0 0 0 0 0 9.92 9.92 9.92 9.92 9.92 9.92;
      }

      .cls-7 {
        stroke-dasharray: 0 0 0 0 9.44 9.44 9.44 9.44;
      }

      .cls-8 {
        stroke-dasharray: 0 0 0 0 0 0 9.44 9.44 9.44 9.44 9.44 9.44;
      }
    </style>
  </defs>
  <line class="cls-2" x1="1.5" y1="596.78" x2="1.5" y2="1.5"/>
  <line class="cls-2" x1="596.78" y1="596.78" x2="596.78" y2="1.5"/>
  <line class="cls-2" x1="1.5" y1="1.5" x2="596.78" y2="1.5"/>
  <line class="cls-2" x1="1.5" y1="596.78" x2="596.78" y2="596.78"/>
  <g>
    <line class="cls-2" x1="1.5" y1="395.18" x2="6.5" y2="395.18"/>
    <line class="cls-1" x1="16.42" y1="395.18" x2="51.14" y2="395.18"/>
    <line class="cls-6" x1="56.1" y1="395.18" x2="586.82" y2="395.18"/>
    <line class="cls-2" x1="591.78" y1="395.18" x2="596.78" y2="395.18"/>
  </g>
  <g>
    <line class="cls-2" x1="1.5" y1="199.93" x2="6.5" y2="199.93"/>
    <line class="cls-7" x1="15.94" y1="199.93" x2="48.96" y2="199.93"/>
    <line class="cls-8" x1="53.68" y1="199.93" x2="388.63" y2="199.93"/>
    <line class="cls-2" x1="393.35" y1="199.93" x2="398.35" y2="199.93"/>
  </g>
  <g>
    <line class="cls-2" x1="398.35" y1="199.93" x2="398.35" y2="194.93"/>
    <line class="cls-3" x1="398.35" y1="183.84" x2="398.35" y2="145.05"/>
    <line class="cls-4" x1="398.35" y1="139.51" x2="398.35" y2="12.04"/>
    <line class="cls-2" x1="398.35" y1="6.5" x2="398.35" y2="1.5"/>
  </g>
  <line id="_" data-name="ㅆ" class="cls-5" x1="78.24" y1="176.16" x2="173.62" y2="37.77"/>
  <line id="_-2" data-name="ㅆ" class="cls-5" x1="148.54" y1="84.02" x2="186.33" y2="167.33"/>
  <line id="_-3" data-name="ㅈ" class="cls-5" x1="65.89" y1="37.33" x2="170.77" y2="37.33"/>
  <line id="_-4" data-name="ㅆ" class="cls-5" x1="221.28" y1="176.38" x2="316.66" y2="38"/>
  <line id="_-5" data-name="ㅆ" class="cls-5" x1="291.58" y1="84.25" x2="329.37" y2="167.55"/>
  <line id="_-6" data-name="ㅈ" class="cls-5" x1="208.93" y1="37.55" x2="313.81" y2="37.55"/>
</svg>