<?xml version="1.0" encoding="utf-8"?>
<!-- Generator: Adobe Illustrator 27.9.2, SVG Export Plug-In . SVG Version: 6.00 Build 0)  -->
<svg version="1.1" id="Layer_1" xmlns="http://www.w3.org/2000/svg" xmlns:xlink="http://www.w3.org/1999/xlink" x="0px" y="0px"
	 viewBox="0 0 419.5 218.3" style="enable-background:new 0 0 419.5 218.3;" xml:space="preserve">
<style type="text/css">
	.st0{fill:none;stroke:#231F20;stroke-width:3;stroke-miterlimit:10;}
	.st1{fill:none;stroke:#231F20;stroke-width:3;stroke-miterlimit:10;stroke-dasharray:9.4354,9.4354,9.4354,9.4354;}
	.st2{fill:none;stroke:#231F20;stroke-width:3;stroke-miterlimit:10;stroke-dasharray:9.4354,9.4354,9.4354,9.4354,9.4354,9.4354;}
	.st3{fill:none;stroke:#231F20;stroke-width:3;stroke-miterlimit:10;stroke-dasharray:11.0838,11.0838,11.0838,11.0838;}
	
		.st4{fill:none;stroke:#231F20;stroke-width:3;stroke-miterlimit:10;stroke-dasharray:11.0838,11.0838,11.0838,11.0838,11.0838,11.0838;}
	.st5{display:none;}
	.st6{display:inline;fill:none;stroke:#231F20;stroke-width:20;stroke-linecap:round;stroke-miterlimit:10;}
	.st7{fill:none;stroke:#231F20;stroke-width:20;stroke-linecap:round;stroke-miterlimit:10;}
	.st8{display:inline;}
</style>
<line class="st0" x1="14.5" y1="12.7" x2="14.2" y2="218.2"/>
<line class="st0" x1="14" y1="14.2" x2="419.4" y2="14.2"/>
<g>
	<g>
		<line class="st0" x1="18.2" y1="212.6" x2="23.2" y2="212.6"/>
		<line class="st1" x1="32.6" y1="212.6" x2="65.6" y2="212.6"/>
		<line class="st2" x1="70.4" y1="212.6" x2="405.3" y2="212.6"/>
		<line class="st0" x1="410" y1="212.6" x2="415" y2="212.6"/>
	</g>
</g>
<g>
	<g>
		<line class="st0" x1="413.9" y1="212.9" x2="413.9" y2="207.9"/>
		<line class="st3" x1="413.9" y1="196.8" x2="413.9" y2="158"/>
		<line class="st4" x1="413.9" y1="152.5" x2="413.9" y2="25"/>
		<line class="st0" x1="413.9" y1="19.5" x2="413.9" y2="14.5"/>
	</g>
</g>
<g id="_x3134_" class="st5">
	<line id="_x3139__00000071555613146022014170000015797347702650758799_" class="st6" x1="278.4" y1="44.6" x2="278.4" y2="182"/>
	<line id="_x3139__00000062192558353490062280000009987698426026024124_" class="st6" x1="278.4" y1="44.3" x2="141.1" y2="44.3"/>
</g>
<g id="_x3147__00000160157717112511978230000012784163426992935346_" class="st5">
	<path id="_x30__00000112624015318692115620000004366722177101645236_" class="st6" d="M195.7,106.1c0,29,24.8,52.5,55.5,52.5"/>
	<path id="_x30__00000017485604483592071810000008796875371488957630_" class="st6" d="M251.2,158.9c27.5,0,49.8-26.1,49.8-58.4"/>
	<path id="_x30__00000107558354640828124920000011990968782640533168_" class="st6" d="M301,102.9c0-29-24.8-52.5-55.5-52.5"/>
	<path id="_x30__00000054237156980459802460000017265312360343254151_" class="st6" d="M245.5,50.4c-27.5,0-49.8,26.1-49.8,58.4"/>
</g>
<g id="_x314E__00000183207740004092161020000001526169812929141901_">
	<g>
		<path id="_x30__00000043442123809795860830000008352551896527314613_" class="st7" d="M158.7,144c0,29,24.8,52.5,55.5,52.5"/>
		<path id="_x30__00000135662875156558081030000014678780669448236978_" class="st7" d="M214.2,196.8c27.5,0,49.8-26.1,49.8-58.4"/>
		<path id="_x30__00000001663040414063862690000015209037803964803983_" class="st7" d="M264,140.8c0-29-24.8-52.5-55.5-52.5"/>
		<path id="_x30__00000031194958944769405670000000543374690865503659_" class="st7" d="M208.5,88.3c-27.5,0-49.8,26.1-49.8,58.4"/>
	</g>
	<line id="_x314E__00000067224267040139801260000003941610929237282702_" class="st7" x1="148.3" y1="65.7" x2="274.3" y2="65.7"/>
	<line id="_x314E_" class="st7" x1="211.3" y1="64.6" x2="211.3" y2="30.6"/>
</g>
<g class="st5">
	<line id="_x3145__00000092416354804798785700000001988866793398494082_" class="st6" x1="115.7" y1="177.9" x2="242.6" y2="39.5"/>
	<line id="_x3145_" class="st6" x1="223.3" y1="77.4" x2="303.8" y2="175.8"/>
</g>
<g class="st5">
	<g id="_x3134__00000061435556403465015040000015731048542975953025_" class="st8">
		<line id="_x3139__00000169522127264854702590000012766683327015573659_" class="st7" x1="278.4" y1="40.6" x2="278.4" y2="178"/>
		<line id="_x3139__00000149375983721454108380000005533663309035656613_" class="st7" x1="278.4" y1="40.3" x2="141.1" y2="40.3"/>
	</g>
	<g id="_x3134__00000144317807907215179900000007452913113527456169_" class="st8">
		
			<line id="_x3139__00000134220392130947315170000016495760000791798676_" class="st7" x1="141.1" y1="177.7" x2="141.1" y2="40.3"/>
		<line id="_x3139__00000016042171336857952520000002600554602540611968_" class="st7" x1="141.1" y1="178" x2="278.4" y2="178"/>
	</g>
</g>
</svg>
