<?xml version="1.0" encoding="utf-8"?>
<!-- Generator: Adobe Illustrator 27.9.2, SVG Export Plug-In . SVG Version: 6.00 Build 0)  -->
<svg version="1.1" id="Layer_1" xmlns="http://www.w3.org/2000/svg" xmlns:xlink="http://www.w3.org/1999/xlink" x="0px" y="0px"
	 viewBox="0 0 623.6 221.1" style="enable-background:new 0 0 623.6 221.1;" xml:space="preserve">
<style type="text/css">
	.st0{fill:none;stroke:#231F20;stroke-width:3;stroke-miterlimit:10;}
	.st1{fill:none;stroke:#231F20;stroke-width:3;stroke-miterlimit:10;stroke-dasharray:9.9199,9.9199,9.9199,9.9199;}
	.st2{fill:none;stroke:#231F20;stroke-width:3;stroke-miterlimit:10;stroke-dasharray:9.9199,9.9199,9.9199,9.9199,9.9199,9.9199;}
	.st3{display:none;}
	.st4{display:inline;fill:none;stroke:#231F20;stroke-width:20;stroke-linecap:round;stroke-miterlimit:10;}
	.st5{fill:none;stroke:#231F20;stroke-width:20;stroke-linecap:round;stroke-miterlimit:10;}
</style>
<line class="st0" x1="14.2" y1="209.8" x2="609.4" y2="209.8"/>
<g>
	<g>
		<line class="st0" x1="14.2" y1="10.7" x2="19.2" y2="10.7"/>
		<line class="st1" x1="29.1" y1="10.7" x2="63.8" y2="10.7"/>
		<line class="st2" x1="68.8" y1="10.7" x2="599.5" y2="10.7"/>
		<line class="st0" x1="604.4" y1="10.7" x2="609.4" y2="10.7"/>
	</g>
</g>
<line class="st0" x1="14.5" y1="0.5" x2="14.6" y2="211.5"/>
<line class="st0" x1="609.6" y1="211" x2="609.5" y2="0"/>
<g id="_x3147_" class="st3">
	<path id="_x30__00000160176543013836628730000012730868243718474662_" class="st4" d="M259.1,112c0,29,24.8,52.5,55.5,52.5"/>
	<path id="_x30__00000002384560913540772100000005079009347425563028_" class="st4" d="M314.6,164.8c27.5,0,49.8-26.1,49.8-58.4"/>
	<path id="_x30_" class="st4" d="M364.5,108.8c0-29-24.8-52.5-55.5-52.5"/>
	<path id="_x30__00000040557645117408956490000011533728137049625220_" class="st4" d="M309,56.3c-27.5,0-49.8,26.1-49.8,58.4"/>
</g>
<g id="_x314E__00000183207740004092161020000001526169812929141901_">
	<g>
		<path id="_x30__00000043442123809795860830000008352551896527314613_" class="st5" d="M334,138.5c0,26.7,24.8,48.3,55.5,48.3"/>
		<path id="_x30__00000135662875156558081030000014678780669448236978_" class="st5" d="M389.5,187.1c27.5,0,49.8-24.1,49.8-53.8"/>
		<path id="_x30__00000001663040414063862690000015209037803964803983_" class="st5" d="M439.3,135.5c0-26.7-24.8-48.3-55.5-48.3"/>
		<path id="_x30__00000031194958944769405670000000543374690865503659_" class="st5" d="M383.8,87.2c-27.5,0-49.8,24.1-49.8,53.8"/>
	</g>
	<line id="_x314E__00000067224267040139801260000003941610929237282702_" class="st5" x1="323.6" y1="66.4" x2="449.6" y2="66.4"/>
	<line id="_x314E_" class="st5" x1="386.6" y1="65.3" x2="386.6" y2="34"/>
</g>
<g>
	<line id="_x3139__00000003783290752309194090000007005709054464623019_" class="st5" x1="298.7" y1="49" x2="298.7" y2="109.5"/>
	<g>
		<line id="_x3139__00000071555613146022014170000015797347702650758799_" class="st5" x1="174" y1="172.1" x2="174" y2="111.6"/>
		<line id="_x3139__00000062192558353490062280000009987698426026024124_" class="st5" x1="174" y1="172.9" x2="298.2" y2="172.9"/>
		<line id="_x3139__00000063596339833383935390000005163507494556827528_" class="st5" x1="298.7" y1="48.2" x2="174.5" y2="48.2"/>
		
			<line id="_x3139__00000176039718818658824030000014588167903370289799_" class="st5" x1="298.7" y1="111.1" x2="174.5" y2="111.1"/>
	</g>
</g>
</svg>
